<svg width="81" height="81" viewBox="0 0 81 81" fill="none" xmlns="http://www.w3.org/2000/svg">
<path fill-rule="evenodd" clip-rule="evenodd" d="M75.8759 49.524C76.6099 46.6379 77 43.6145 77 40.5C77 37.342 76.5989 34.2777 75.845 31.3551C75.1376 32.0278 74.5318 33.0289 74.3506 34.4759C74.0652 36.7549 72.535 38.3562 70.9276 39.4029C70.5089 39.6755 70.0756 39.9172 69.6422 40.1296C70.481 40.4999 71.3911 41.0089 72.2193 41.6661C73.654 42.8045 74.9507 44.4807 75.0247 46.733C75.0644 47.9435 75.4111 48.853 75.8759 49.524ZM70.7431 26.8028C71.8142 28.517 73.1954 29.4212 74.5289 29.8457C73.4948 30.7952 72.6193 32.205 72.3661 34.2274C72.1833 35.6872 71.1913 36.8445 69.8361 37.727C69.1646 38.1643 68.4382 38.5101 67.7528 38.7709C67.4837 33.7931 65.8916 29.1672 63.3218 25.2385C63.4315 25.0864 63.5437 24.9228 63.6566 24.7488C64.6098 24.6042 65.8144 24.5419 66.9926 24.7117C68.5939 24.9425 69.9738 25.5717 70.7431 26.8028ZM62.4013 22.9536C62.3568 22.964 62.3132 22.9746 62.2705 22.9852L62.3052 23.1249C62.2315 23.2536 62.1573 23.3775 62.0832 23.4963C59.0737 19.5925 55.0392 16.5195 50.3826 14.6803C50.9728 14.0218 51.757 13.3017 52.653 12.7421C53.9741 11.917 55.4001 11.5203 56.7827 11.9635C58.7038 12.5793 60.3248 12.3878 61.5954 11.8628C61.4535 13.2348 61.7346 14.8517 62.8803 16.5326C63.7092 17.7486 63.7348 19.2365 63.3198 20.7371C63.0982 21.5379 62.7613 22.2995 62.4013 22.9536ZM64.7759 22.6282C65.5681 22.5875 66.4238 22.609 67.2779 22.7322C69.1712 23.0051 71.2301 23.808 72.4392 25.743C73.102 26.8037 73.9166 27.4316 74.7232 27.7821C72.4412 21.6438 68.555 16.2856 63.574 12.2171C63.5154 13.1425 63.7379 14.2398 64.5329 15.4062C65.8187 17.2926 65.7479 19.4609 65.2474 21.2703C65.1175 21.7396 64.9564 22.1949 64.7759 22.6282ZM70.8445 54.12C72.0052 52.4543 73.3962 51.6177 74.7045 51.2647C73.8016 50.2606 73.0918 48.8109 73.0257 46.7987C72.978 45.3464 72.1491 44.1634 70.9762 43.2328C69.9205 42.3951 68.6735 41.8373 67.7644 41.5555C67.5301 46.6896 65.8888 51.4567 63.2169 55.4803C63.2428 55.516 63.2688 55.5523 63.2948 55.589C64.1993 55.8841 65.6863 56.1578 67.1659 56.016C68.6559 55.8733 70.0024 55.3284 70.8445 54.12ZM72.4854 55.2634C73.1615 54.2931 73.9219 53.7188 74.6554 53.3987C72.404 59.3573 68.6382 64.5722 63.8274 68.574C63.6484 67.5815 63.7695 66.352 64.6048 65.0247C65.815 63.1015 65.6538 60.9287 65.0841 59.132C64.9531 58.7187 64.7981 58.317 64.6276 57.9321C65.4669 58.0505 66.4065 58.098 67.3567 58.0069C69.1852 57.8318 71.1885 57.1247 72.4854 55.2634ZM56.9582 68.7043C58.8771 68.0251 60.5179 68.1692 61.8152 68.6603C61.6208 67.2916 61.8369 65.6678 62.9121 63.9594C63.6853 62.7307 63.6542 61.2394 63.1776 59.7365C62.8809 58.8005 62.4284 57.9214 61.9725 57.2061C58.9376 61.09 54.8824 64.138 50.21 65.9469C50.8446 66.6476 51.7332 67.446 52.7541 68.0418C54.1152 68.8362 55.5711 69.1953 56.9582 68.7043ZM44.2805 72.9971C42.3585 73.6745 41.1679 74.8281 40.461 76.0383C39.7612 74.8293 38.5824 73.6763 36.6787 72.9982C35.3111 72.5112 34.4023 71.3017 33.8351 69.7928C33.4647 68.8073 33.2683 67.7626 33.1852 66.8701C35.4486 67.4724 37.8268 67.7935 40.2799 67.7935C42.8964 67.7935 45.4276 67.4282 47.8253 66.746C47.7484 67.6638 47.5496 68.759 47.1582 69.7895C46.5861 71.2957 45.668 72.508 44.2805 72.9971ZM61.199 70.5674C55.7642 74.316 49.263 76.6291 42.243 76.9591C42.7517 76.1432 43.5942 75.3596 44.9454 74.8833C47.1103 74.1203 48.3482 72.2891 49.0279 70.4996C49.3172 69.7379 49.5172 68.9554 49.6489 68.2128C50.2555 68.7658 50.9643 69.313 51.746 69.7692C53.3785 70.7219 55.4692 71.3529 57.6255 70.5897C59.0749 70.0766 60.2783 70.2022 61.199 70.5674ZM38.6773 76.9553C38.174 76.1396 37.3412 75.3573 36.0076 74.8823C33.8594 74.1172 32.6346 72.2832 31.963 70.4965C31.6898 69.7697 31.4972 69.0242 31.3669 68.3124C30.8341 68.8291 30.2267 69.3377 29.5621 69.7807C27.97 70.8421 25.9007 71.6197 23.7084 70.9866C22.4393 70.6201 21.3664 70.7262 20.5075 71.0426C25.7746 74.4974 31.9893 76.6264 38.6773 76.9553ZM18.0987 64.6208C19.2602 66.2959 19.5492 67.9305 19.4129 69.3282C20.6893 68.7536 22.3214 68.5043 24.2633 69.0651C25.6581 69.4679 27.1058 69.0146 28.4527 68.1166C29.3442 67.5223 30.1261 66.7738 30.7208 66.0875C26.0245 64.3473 21.9326 61.3619 18.8461 57.5322L18.8415 57.5401L18.932 57.7937C18.8398 57.8267 18.7429 57.8595 18.6416 57.892C18.2524 58.604 17.8836 59.4441 17.6467 60.3249C17.2265 61.8874 17.2604 63.4118 18.0987 64.6208ZM16.1902 58.3993C16.0081 58.849 15.8457 59.3205 15.7153 59.8055C15.217 61.6584 15.1462 63.8728 16.4551 65.7605C17.2054 66.8425 17.4552 67.8851 17.4394 68.7939C12.6561 64.8906 8.88113 59.7984 6.5652 53.9681C7.38784 54.2337 8.26798 54.7949 9.05047 55.8562C10.3878 57.6701 12.406 58.3164 14.2333 58.4413C14.9025 58.4871 15.5651 58.465 16.1902 58.3993ZM17.3276 56.1817C17.4083 56.0535 17.4886 55.9307 17.5678 55.8138C14.8816 51.8938 13.1838 47.2432 12.8337 42.2212C12.0286 42.5549 11.0843 43.0672 10.265 43.7544C9.11823 44.7163 8.3175 45.9284 8.30852 47.4012C8.29613 49.4313 7.62417 50.9088 6.74631 51.941C8.05929 52.2567 9.46556 53.049 10.6602 54.6694C11.5225 55.8389 12.8759 56.3439 14.3697 56.446C15.4265 56.5183 16.4827 56.3811 17.3276 56.1817ZM12.7803 39.3942C11.9848 39.0581 11.0601 38.5507 10.2558 37.8767C9.1082 36.9151 8.3111 35.7104 8.3022 34.2574C8.28987 32.2442 7.6191 30.776 6.7433 29.7481C8.06059 29.4302 9.47344 28.6311 10.6782 26.997C11.5522 25.8114 12.9129 25.3027 14.4061 25.1998C15.3664 25.1336 16.3251 25.2417 17.125 25.4128C14.5158 29.468 12.9429 34.2532 12.7803 39.3942ZM17.4387 12.2068C12.4456 16.2814 8.55135 21.6515 6.26853 27.8043C7.17492 27.5814 8.18062 27.0143 9.06838 25.8101C10.4146 23.9842 12.436 23.3308 14.2686 23.2045C15.1409 23.1444 16.0012 23.2003 16.7821 23.3183C16.4822 22.7185 16.2105 22.0638 16.0046 21.3787C15.4627 19.5754 15.3352 17.4025 16.574 15.4984C17.3608 14.289 17.5421 13.1543 17.4387 12.2068ZM11.1105 40.8185C10.4 41.1851 9.65967 41.6517 8.97961 42.2221C7.5723 43.4026 6.32239 45.1205 6.30855 47.389C6.30023 48.7538 5.90051 49.7477 5.37363 50.4534C4.47882 47.2893 4 43.9506 4 40.5C4 37.2357 4.42852 34.0714 5.23237 31.0605C5.82474 31.7705 6.29327 32.8065 6.30224 34.2696C6.31604 36.5231 7.56747 38.2334 8.97128 39.4097C9.65403 39.9818 10.3977 40.4503 11.1105 40.8185ZM49.6595 12.557C50.2223 12.0226 50.8744 11.4949 51.5936 11.0457C53.1814 10.0541 55.2337 9.36666 57.3933 10.0589C58.7086 10.4806 59.8071 10.3869 60.6705 10.0748C55.305 6.51063 48.9425 4.32784 42.0906 4.03404C42.5722 4.86568 43.4364 5.69951 44.9267 6.19197C47.0807 6.90375 48.3301 8.62194 49.0198 10.3244C49.3214 11.0687 49.5269 11.8338 49.6595 12.557ZM18.2504 16.5891C19.3511 14.8973 19.592 13.2779 19.4186 11.9074C20.7078 12.4162 22.3455 12.583 24.2736 11.931C25.6675 11.4597 27.1166 11.8386 28.464 12.6506C29.3352 13.1757 30.106 13.8497 30.7013 14.4795C26.0276 16.2153 21.9536 19.1847 18.8748 22.9921C18.5055 22.3444 18.1574 21.5931 17.92 20.8031C17.4671 19.2959 17.4587 17.806 18.2504 16.5891ZM31.9709 10.3276C31.7016 10.9991 31.5098 11.6876 31.3786 12.3468C30.8241 11.8459 30.19 11.3557 29.4963 10.9376C27.8789 9.96296 25.7992 9.30389 23.633 10.0364C22.297 10.4882 21.1764 10.406 20.2947 10.098C25.6463 6.5342 31.9924 4.34576 38.8282 4.0376C38.3516 4.86918 37.4972 5.70172 36.0265 6.19281C33.8889 6.90653 32.6525 8.62766 31.9709 10.3276ZM36.6599 8.08986C38.5694 7.45226 39.7563 6.35833 40.4609 5.20639C41.1727 6.35956 42.3714 7.45396 44.2991 8.09097C45.6976 8.5531 46.6042 9.68817 47.1662 11.0754C47.5404 11.9991 47.7366 12.9793 47.8178 13.8117C45.4223 13.1308 42.8937 12.7663 40.2799 12.7663C37.8301 12.7663 35.4551 13.0865 33.1944 13.6873C33.2817 12.8815 33.4747 11.9511 33.8272 11.0719C34.3844 9.68219 35.2816 8.55005 36.6599 8.08986ZM40.5 81C62.8675 81 81 62.8675 81 40.5C81 18.1325 62.8675 0 40.5 0C18.1325 0 0 18.1325 0 40.5C0 62.8675 18.1325 81 40.5 81ZM61.0556 51.3017C62.8032 48.0142 63.7935 44.2627 63.7935 40.2799C63.7935 27.8053 54.0792 17.5996 41.8028 16.8148L61.0556 51.3017ZM38.7571 16.8148L19.5042 51.3018C17.7565 48.0143 16.7663 44.2627 16.7663 40.2799C16.7663 27.8053 26.4806 17.5996 38.7571 16.8148ZM21.2085 54.0367H59.3513C55.0804 59.9473 48.1293 63.7935 40.2799 63.7935C32.4305 63.7935 25.4794 59.9473 21.2085 54.0367ZM21.3845 52.0367L40.2799 18.19L59.1753 52.0367H21.3845Z" fill="white"/>
</svg>
