<svg width="100" height="111" viewBox="0 0 100 111" fill="none" xmlns="http://www.w3.org/2000/svg">
<path fill-rule="evenodd" clip-rule="evenodd" d="M24.8704 83.7296C23.7298 84.8922 22.513 85.9774 21.2635 87.0216C20.0304 88.0518 18.8435 89.1651 17.5387 90.1054C17.2352 90.3251 16.917 89.8536 17.1552 89.6044C18.2764 88.4285 19.5627 87.4044 20.7587 86.3097C21.9469 85.2186 23.1906 84.1897 24.485 83.227C24.7862 83.004 25.1139 83.4815 24.8704 83.7296ZM14.357 67.3582C12.0614 68.1927 9.72603 68.9456 7.36255 69.5661C4.98238 70.1913 2.52786 70.4913 0.209132 71.1107C0.140199 71.1341 0.0817681 71.1811 0.0442001 71.2434C0.0066321 71.3058 -0.0076451 71.3794 0.00390022 71.4513C0.0154455 71.5231 0.0520673 71.5886 0.107271 71.636C0.162475 71.6834 0.232695 71.7098 0.305477 71.7104C2.75317 71.7779 5.30251 71.1505 7.65727 70.5402C10.0628 69.9177 12.4054 69.0737 14.6552 68.0189C15.0277 67.8426 14.7443 67.2175 14.357 67.3582ZM16.4432 51.8781C14.8189 50.9587 13.1447 50.1304 11.4284 49.3971C9.66383 48.6005 7.96224 47.9891 6.19389 47.2608C5.89348 47.1371 5.653 47.6375 5.9481 47.7839C7.63982 48.6248 9.20524 49.4964 10.9451 50.2922C12.6447 51.1112 14.3885 51.8348 16.1686 52.4596C16.2431 52.4815 16.3229 52.4761 16.3937 52.4443C16.4645 52.4126 16.5216 52.3565 16.5547 52.2864C16.5878 52.2162 16.5948 52.1365 16.5744 52.0617C16.5539 51.9868 16.5074 51.9217 16.4432 51.8781ZM28.4196 56.7932C28.5334 56.3441 27.8886 56.1541 27.675 56.5323C26.8436 57.9968 26.5636 59.7773 26.4969 61.4383C26.4316 63.0473 26.5299 64.9329 27.3587 66.3549C27.5312 66.6511 28.0623 66.4774 27.986 66.1516C27.6044 64.6193 27.4491 63.0395 27.5248 61.4622C27.5828 59.8505 28.0232 58.3427 28.4196 56.7932ZM30.9124 50.7186C30.0874 51.2697 28.8641 53.101 28.6794 54.176C28.6514 54.2756 28.6618 54.3822 28.7086 54.4745C28.7554 54.5668 28.8351 54.6382 28.932 54.6745C29.0289 54.7109 29.136 54.7095 29.2319 54.6707C29.3279 54.6319 29.4058 54.5585 29.4502 54.465C29.9469 53.3476 30.573 52.2924 31.3156 51.3209C31.6794 50.8813 31.2242 50.5115 30.9124 50.7186ZM30.3086 77.4084C28.037 75.5009 26.2225 73.1079 24.9989 70.4058C23.7753 67.7038 23.1737 64.7615 23.2386 61.796C23.3311 58.7839 24.0927 55.8302 25.4683 53.1489C26.8438 50.4677 28.7989 48.1263 31.1916 46.2943C31.262 46.2385 31.3082 46.1578 31.3207 46.0688C31.3332 45.9799 31.3111 45.8895 31.2589 45.8164C31.2066 45.7434 31.1283 45.6932 31.0401 45.6762C30.9519 45.6593 30.8606 45.6768 30.785 45.7253C28.1106 47.6406 25.9372 50.1722 24.4488 53.1056C22.9604 56.0391 22.2009 59.2881 22.2346 62.5774C22.3317 70.104 26.077 75.6605 31.9491 79.88C35.1732 82.198 38.8525 84.6437 39.6756 88.8192C39.7481 89.1879 40.3106 89.1625 40.2727 88.7699C39.7458 83.3071 34.0436 80.5396 30.3086 77.4084ZM76.4733 55.8366C76.3079 55.5036 75.7257 55.7573 75.8687 56.1063C76.7218 58.1704 77.1399 60.3883 77.0968 62.6213C77.0536 64.8544 76.5502 67.0545 75.618 69.084C73.3015 73.9912 68.9891 75.8081 65.6906 79.6349C64.0293 81.5626 62.6562 83.997 62.8974 86.626C62.9024 86.7065 62.9383 86.782 62.9975 86.8368C63.0567 86.8915 63.1348 86.9214 63.2154 86.9201C63.2961 86.9189 63.3731 86.8866 63.4306 86.83C63.4881 86.7734 63.5215 86.6968 63.524 86.6162C63.6841 83.4812 65.3826 81.1484 67.4882 79.1035C70.8102 75.8745 74.3837 73.8941 76.4494 69.4546C78.4366 65.184 78.5826 60.0921 76.4733 55.8366ZM79.7475 84.3797C78.2303 83.4872 76.2525 82.2378 74.6572 81.5979C74.2991 81.4541 74.1493 81.9556 74.3977 82.1604C75.7207 83.2517 77.7755 84.3911 79.2844 85.2965C80.9465 86.2937 82.6026 87.3008 84.3383 88.1672C84.4278 88.2197 84.5342 88.2353 84.635 88.2107C84.7358 88.1862 84.8231 88.1234 84.8784 88.0356C84.9337 87.9478 84.9527 87.8419 84.9313 87.7404C84.9099 87.6389 84.8499 87.5496 84.7639 87.4916C83.1488 86.3639 81.4449 85.3773 79.7475 84.3805V84.3797ZM97.8425 64.1166C95.8537 63.9193 93.8555 63.8324 91.857 63.8564C89.8345 63.8238 87.8132 63.8059 85.7911 63.8609C85.441 63.8704 85.4118 64.4599 85.7664 64.4853C87.7582 64.6275 89.7537 64.7 91.75 64.7561C93.7713 64.871 95.7974 64.8738 97.819 64.7645C97.8963 64.7546 97.9675 64.7177 98.0201 64.6602C98.0726 64.6027 98.103 64.5284 98.1059 64.4505C98.1087 64.3727 98.0837 64.2964 98.0355 64.2352C97.9873 64.174 97.9189 64.132 97.8425 64.1166ZM87.3022 47.8821C88.9859 47.4128 90.6285 46.8071 92.2139 46.0713C93.8195 45.3704 95.3471 44.5031 96.7717 43.4836C97.1298 43.2094 96.7201 42.6818 96.3404 42.8574C94.7853 43.5762 93.3139 44.4657 91.766 45.2004C90.2832 45.904 88.6093 46.7222 87.1061 47.3397C87.0466 47.3739 87.001 47.4281 86.9773 47.4926C86.9537 47.5571 86.9536 47.6279 86.9771 47.6925C87.0005 47.7571 87.0459 47.8113 87.1054 47.8458C87.1649 47.8802 87.2346 47.8925 87.3022 47.8806V47.8821ZM64.519 31.9131C60.0162 28.521 56.2925 27.1619 50.7576 25.9746C50.4382 25.906 50.533 25.4095 50.8452 25.4205C52.9225 25.5324 54.9705 25.962 56.9176 26.6946C55.5426 23.6021 52.9109 21.3546 50.6775 20.8077C48.1661 21.8394 44.5494 24.8454 43.4555 26.1624C44.8521 30.259 40.6736 33.6545 35.7338 31.6783C32.8095 32.8749 30.1091 34.5582 27.7471 36.6568C29.8469 37.6051 32.0371 41.3087 32.7126 44.4372C35.6925 43.3258 39.1507 42.1318 42.4029 42.4614C45.6551 42.791 55.7 47.8131 60.1459 48.8012C57.9709 45.354 59.575 37.1738 64.519 31.9101V31.9131Z" fill="#325BD3"/>
<path fill-rule="evenodd" clip-rule="evenodd" d="M38.6439 90.1621C42.1017 95.1592 40.2749 102.63 44.2395 107.451C48.7874 112.982 58.1564 110.744 60.829 105.53C63.4974 100.323 61.7242 96.6916 64.2212 88.1863C56.3452 92.8499 43.8852 91.9718 38.6439 90.1621ZM59.275 102.638C57.8389 104.469 55.5126 105.703 53.3444 106.422C51.1085 107.22 48.6995 107.403 46.3685 106.953C46.3006 106.933 46.242 106.889 46.2034 106.83C46.1649 106.77 46.1489 106.699 46.1584 106.629C46.1679 106.559 46.2022 106.494 46.2552 106.447C46.3081 106.4 46.3762 106.373 46.4471 106.372C48.7017 106.515 50.9622 106.204 53.0941 105.456C55.2249 104.741 57.1951 103.615 58.8934 102.143C59.1945 101.897 59.473 102.385 59.275 102.638ZM60.1963 97.8379C58.6684 99.9297 56.3968 101.183 53.932 101.873C52.1978 102.358 46.9982 103.117 45.1563 102.601C44.8604 102.518 44.8908 102.039 45.1676 102.041C47.9662 101.987 50.7501 101.624 53.4689 100.958C55.8101 100.345 57.9493 99.1276 59.6729 97.4286C59.935 97.16 60.4216 97.5299 60.1963 97.8379ZM60.2088 92.7354C60.4812 92.5654 60.8791 92.9091 60.6215 93.1841C58.9146 95.0071 55.3813 96.522 52.978 97.1555C50.17 97.9308 47.2264 98.0831 44.3533 97.6015C43.9671 97.534 44.0878 96.9844 44.4629 97.0147C47.2465 97.2564 50.051 97.0067 52.7482 96.277C55.9404 95.3803 57.6439 94.3357 60.2088 92.7354ZM59.1392 56.5419C56.9627 55.6213 55.9939 56.4357 55.4136 58.5329C54.323 62.4879 53.6849 66.5538 53.5113 70.6527C51.1592 71.0682 48.7622 71.1681 46.3837 70.9497C45.9062 68.8096 44.2899 61.9467 43.0837 60.2345C42.294 59.1118 41.0381 58.9654 39.9635 59.7729C38.8066 60.6423 36.8911 64.1213 36.2243 65.5676C35.276 67.6205 35.8207 68.7004 37.7988 69.5948C40.2752 70.7112 42.9085 71.4404 45.6065 71.7568C46.1785 74.3695 46.6367 76.9629 46.9694 79.6196C47.3255 82.4595 47.5459 85.423 47.7697 88.2853C47.7749 88.359 47.8083 88.4279 47.863 88.4777C47.9177 88.5274 47.9895 88.5541 48.0634 88.5523C48.1373 88.5504 48.2076 88.5201 48.2597 88.4677C48.3119 88.4153 48.3418 88.3448 48.3432 88.2709C48.406 85.3093 48.2421 82.3472 47.8532 79.4106C47.5357 76.8779 47.1074 74.3502 46.5783 71.8528C48.8806 72.0476 51.1982 71.956 53.478 71.5801C53.331 76.6671 53.9028 81.7495 55.1765 86.6766C55.3131 87.1952 56.1017 86.9615 55.9731 86.4426C54.762 81.5325 54.2203 76.4813 54.3625 71.4261C57.2832 70.8438 62.493 69.0907 64.4544 66.6597C66.2247 64.4654 65.281 61.8375 63.6147 59.87C62.3992 58.4306 60.8675 57.2917 59.1392 56.5419ZM38.9705 69.1608C36.7136 68.2403 35.9826 67.9186 37.2564 65.4565C37.935 64.1452 39.2333 61.7112 40.2404 60.7151C40.798 60.1647 41.5543 59.8806 42.1544 60.5281C43.2165 61.6782 45.0114 69.113 45.407 70.834C43.1981 70.557 41.0346 69.9946 38.9705 69.1608ZM63.7888 66.0505C62.1517 68.2551 57.1042 69.91 54.4001 70.482C54.5582 67.1186 55.2516 61.4472 56.4529 58.1491C56.8322 57.112 57.383 56.9163 58.4253 57.2573C60.6158 57.9757 63.1993 60.1879 64.132 62.26C64.4325 62.8614 64.5595 63.5345 64.4989 64.204C64.4383 64.8735 64.1924 65.5129 63.7888 66.0505ZM40.5044 16.2986C39.4021 16.7079 39.2489 17.9592 39.5064 19.0065C39.3144 18.986 39.1201 19.0095 38.9385 19.0752C38.7568 19.141 38.5925 19.2472 38.458 19.3858C37.9448 18.3423 36.7572 17.4369 35.6102 18.0882C34.6441 18.6367 34.6001 20.0936 34.869 21.0392C34.4138 21.2213 33.8551 21.3184 33.3726 21.5065C33.3141 21.5353 33.2677 21.5839 33.2418 21.6438C33.2159 21.7036 33.2123 21.7708 33.2315 21.8331C33.2507 21.8954 33.2915 21.9488 33.3466 21.9837C33.4016 22.0187 33.4674 22.0328 33.5319 22.0235C34.0102 21.9355 34.5978 21.758 35.0871 21.626C35.5976 22.7389 36.6377 23.7968 37.9532 23.1273C39.2625 22.4613 39.1252 21.1633 38.7088 19.9859C38.8182 19.8306 38.9726 19.7127 39.1513 19.6482C39.3299 19.5837 39.5241 19.5756 39.7075 19.6252C40.102 20.6277 41.0502 21.9746 42.2929 21.3734C43.5355 20.7722 43.3071 19.1355 42.957 18.0802C42.6069 17.025 41.7246 15.8461 40.5044 16.2986ZM37.7191 22.5671C36.6434 23.1361 35.8385 22.0061 35.5324 21.131C35.2786 20.4043 35.1561 19.1104 35.8893 18.6295C36.849 17.9998 37.773 19.2276 38.0726 20.0113C38.4068 20.886 38.7163 22.0406 37.7191 22.5671ZM42.0509 20.8253C41.0188 21.2589 40.4513 20.0352 40.1475 19.2701C39.8319 18.4762 39.7409 17.1775 40.7062 16.8532C41.6628 16.5315 42.2417 17.721 42.4666 18.4463C42.7002 19.2019 42.8561 20.487 42.0509 20.8253ZM37.0318 21.1693C37.1722 21.4781 37.1543 21.7045 36.9757 21.8521C36.7363 22.0528 36.497 21.89 36.346 21.6313C36.241 21.4512 36.1279 21.0332 36.4067 20.8598C36.6442 20.7138 36.9378 20.9626 37.0318 21.1693ZM41.6215 19.5838C41.6553 19.6912 41.659 19.8058 41.6322 19.9151C41.6055 20.0244 41.5493 20.1243 41.4698 20.204C41.2266 20.3641 40.9607 20.0879 40.8883 19.8546C40.7995 19.5702 40.8154 19.2606 41.0021 19.137C41.2968 18.9443 41.5578 19.3441 41.6219 19.5838H41.6215ZM40.4107 22.4768C40.5662 22.3308 40.6201 22.2238 40.4824 22.0459C40.2202 21.7567 39.9213 21.5031 39.5933 21.2915C39.3395 21.1132 39.6149 20.6941 39.8816 20.8363C40.1815 21.0014 40.4583 21.2055 40.7047 21.4432C41.3639 22.0683 41.2774 22.6392 40.5476 23.1535C40.2566 23.3809 39.9041 23.5159 39.5356 23.5412C39.4801 23.5292 39.4291 23.5015 39.3888 23.4614C39.3486 23.4213 39.3206 23.3705 39.3084 23.315C39.2962 23.2595 39.3002 23.2017 39.3199 23.1483C39.3396 23.095 39.3742 23.0485 39.4196 23.0143C39.6529 22.8273 40.0796 22.7879 40.4107 22.4768ZM38.3124 24.8479C38.8217 24.8978 39.3342 24.7909 39.7811 24.5414C40.1319 24.3468 40.3094 24.7899 40.0576 24.9852C39.5234 25.3107 38.9032 25.4667 38.2786 25.4328C37.6616 25.4281 37.0619 25.2277 36.566 24.8604C36.3312 24.6643 36.5558 24.2251 36.8463 24.3791C37.2858 24.6603 37.7912 24.8217 38.3124 24.8471V24.8479ZM37.0462 27.2243C38.6465 27.3908 40.4741 27.5748 41.8255 26.5146C43.4778 25.2207 42.8448 23.5381 42.253 22.1847C42.0922 21.8168 42.6012 21.6708 42.7439 21.9602C43.581 23.6561 43.9288 25.5177 42.3061 26.8711C40.8056 28.1229 38.793 28.014 36.973 27.7542C36.6734 27.7113 36.747 27.1924 37.0462 27.2235V27.2243ZM52.1894 19.9597C53.6748 18.8946 55.2315 17.905 56.1104 16.2394C57.0708 14.4187 57.1432 12.3011 57.2005 10.2873C56.521 10.3549 55.842 10.1529 55.3099 9.72481C54.7779 9.29673 54.4352 8.67681 54.3557 7.99854C54.347 7.93019 54.3641 7.86106 54.4037 7.80464C54.4432 7.74823 54.5024 7.70859 54.5696 7.69347C54.6368 7.67835 54.7073 7.68883 54.7672 7.72287C54.8271 7.75691 54.8721 7.81205 54.8936 7.87754C54.9602 8.38518 55.2153 8.84922 55.6081 9.17762C56.0009 9.50602 56.5028 9.67478 57.0143 9.65043C57.6326 9.61478 57.8567 9.67281 57.8423 10.1815C57.7812 12.3329 57.6929 14.5587 56.6862 16.5122C55.7921 18.2479 54.1406 19.4378 52.5092 20.4278C52.235 20.5951 51.9289 20.1456 52.1894 19.959V19.9597ZM57.7084 1.66974C57.4888 1.44215 57.8222 1.06284 58.0752 1.2525C58.765 1.8013 59.3019 2.51846 59.6342 3.33491C59.9285 4.02412 60.2058 5.18936 60.0442 5.92636C60.0198 5.99326 59.9743 6.05041 59.9146 6.08921C59.8549 6.12801 59.7842 6.14635 59.7131 6.14147C59.6421 6.13659 59.5745 6.10876 59.5207 6.06216C59.4668 6.01556 59.4296 5.95273 59.4146 5.88312C59.3148 4.9576 59.402 4.52216 59.0265 3.58943C58.7178 2.8688 58.2698 2.21619 57.7084 1.66898V1.66974ZM60.8108 5.9275C61.1424 5.15324 61.3401 4.32826 61.3953 3.48778C61.4213 2.64475 61.3003 1.80363 61.0376 1.00215C60.9492 0.689603 61.4044 0.532947 61.5645 0.810223C61.948 1.47326 62.0769 2.74471 62.05 3.51205C62.0441 4.44373 61.8172 5.36072 61.3881 6.18771C61.3463 6.25161 61.283 6.29848 61.2097 6.31987C61.1364 6.34126 61.0578 6.33577 60.9882 6.30439C60.9186 6.27301 60.8625 6.21779 60.8299 6.1487C60.7974 6.0796 60.7906 6.00116 60.8108 5.9275ZM61.7454 7.07605C62.2751 6.65593 62.7284 6.14767 63.0855 5.5736C63.4356 4.98021 63.7004 4.34048 63.8722 3.67326C63.8865 3.6018 63.9283 3.53879 63.9885 3.49772C64.0487 3.45665 64.1226 3.44079 64.1943 3.45353C64.2661 3.46628 64.33 3.50661 64.3724 3.5659C64.4148 3.62519 64.4322 3.69872 64.4211 3.77074C64.3093 4.52536 64.0424 5.24862 63.637 5.89488C63.2498 6.53826 62.7551 7.11046 62.1744 7.58661C62.2905 9.34395 62.3546 11.1066 62.4335 12.8658C62.7013 18.8286 62.344 21.0411 57.2051 25.0254C56.8637 25.2909 56.4844 24.7383 56.8231 24.475C61.9616 20.482 61.9946 18.3848 61.7575 12.5328C61.6904 10.8673 61.6036 9.20133 61.5709 7.53502C61.5684 7.45079 61.5826 7.36689 61.6129 7.28822C61.6431 7.20955 61.6887 7.13769 61.7469 7.07681L61.7454 7.07605ZM31.1866 26.6834C28.2758 30.2239 26.5993 33.7071 26.8147 38.3885C26.8239 38.464 26.8028 38.54 26.7559 38.5998C26.7091 38.6597 26.6404 38.6985 26.5649 38.7077C26.4895 38.7169 26.4135 38.6958 26.3536 38.6489C26.2937 38.6021 26.2549 38.5334 26.2457 38.4579C25.6388 34.045 27.8328 29.5267 30.6693 26.2821C30.9481 25.9665 31.4567 26.3564 31.1866 26.6834ZM31.4742 44.2955C29.8685 45.1835 26.6744 46.1272 24.8412 46.3977C15.0371 47.8455 17.9415 37.1607 20.9942 32.2494C22.6091 29.6534 24.4491 27.2045 26.4931 24.931C25.6144 22.563 25.5418 19.9714 26.2863 17.5579C26.4123 17.165 27.0358 17.0443 26.8815 17.7612C26.2651 20.6224 26.3614 21.8957 27.0377 24.5585C27.1062 24.7181 27.1264 24.8943 27.0959 25.0653C27.0654 25.2363 26.9856 25.3946 26.8663 25.5208C24.3443 28.0944 22.2449 31.0504 20.6456 34.2794C18.2939 39.2071 16.8388 47.0243 25.0316 45.6796C27.3287 45.303 29.0636 44.4658 31.2086 43.8127C31.4901 43.7273 31.767 44.1354 31.4753 44.2955H31.4742ZM83.2349 53.3819C83.8099 54.6473 85.8199 58.5849 85.8248 59.7293C85.8313 61.267 84.3542 62.1527 83.1268 60.9601C81.6361 59.5127 80.9905 57.9044 79.0807 56.3455C77.8976 55.3797 76.3363 54.6662 75.4992 53.3827C75.1802 52.9244 74.9812 52.3935 74.9205 51.8384C74.8598 51.2833 74.9393 50.7219 75.1518 50.2056C75.2921 49.8592 75.8725 50.0315 75.7818 50.3952C75.6547 50.8438 75.6271 51.3147 75.7008 51.775C75.7745 52.2354 75.9478 52.6741 76.2085 53.0606C76.8746 53.9797 78.5602 54.8513 79.5423 55.6566C81.52 57.2755 82.0495 58.5015 83.5577 60.1996C84.3011 61.0368 85.0245 60.6897 85.0275 59.7194C85.0298 58.8497 83.0509 55.1066 82.4455 53.8177C81.9297 52.7177 81.1589 51.364 80.8904 50.2336C80.7993 49.8543 81.3489 49.3866 81.5663 49.973C82.0378 51.2487 82.7254 52.2591 83.236 53.3819H83.2349ZM99.1621 21.6875C98.9873 23.6421 96.9602 31.3978 96.4952 32.8688C95.6334 35.5964 93.0165 35.3218 90.906 34.3227C90.5336 34.1463 90.7767 33.5588 91.1621 33.6574C92.7472 34.0621 94.9817 34.7304 95.6216 32.609C96.2687 30.4628 98.3053 23.5814 98.3557 21.6708C98.3713 21.0874 98.0026 20.8742 97.5538 21.2236C96.0366 22.3994 93.9538 26.0898 92.9236 27.8012C92.7609 28.072 92.2628 27.915 92.3804 27.5926C92.9672 25.9866 95.7593 21.3696 97.2542 20.4714C97.4537 20.3383 97.6877 20.2661 97.9275 20.2636C98.1674 20.2611 98.4028 20.3283 98.6051 20.4572C98.8074 20.5861 98.9679 20.771 99.067 20.9894C99.1661 21.2078 99.1995 21.4504 99.1633 21.6875H99.1621ZM74.1841 49.2941C74.4187 47.2922 74.5379 45.2786 74.5411 43.263C76.2119 39.4293 77.549 34.9766 78.6793 30.962C80.411 31.4972 82.0899 32.1902 83.695 33.0323C83.6821 36.2704 82.972 47.5621 82.3765 48.5548C80.3627 49.6241 75.5015 49.4181 74.1841 49.2941ZM91.3096 26.8165C91.2687 29.3279 89.4575 33.7833 88.882 35.0343C87.2218 33.7875 81.7601 31.0978 78.5269 30.0532C78.4227 30.0197 78.3095 30.0288 78.212 30.0786C78.1146 30.1283 78.0408 30.2147 78.0068 30.3187C77.1428 33.467 76.2396 36.6152 75.1062 39.6789C73.1426 44.9855 70.1509 49.835 61.4647 48.0617C56.5716 38.552 73.834 20.2066 76.4096 19.6695C79.6181 18.9997 89.3349 25.1699 91.3096 26.8173V26.8165ZM36.618 30.6855C36.2922 29.562 34.1145 26.5047 33.3654 25.7029C33.5349 25.584 33.6719 25.4245 33.7637 25.2389C33.8555 25.0533 33.8992 24.8477 33.8907 24.6408C33.8615 24.332 33.3813 24.2383 33.3195 24.5801C33.3066 24.75 33.2486 24.9134 33.1517 25.0536C33.0548 25.1938 32.9224 25.3057 32.768 25.3778C32.6136 25.45 32.4428 25.4798 32.2731 25.4642C32.1034 25.4485 31.9409 25.3881 31.8023 25.289C31.0376 24.8058 30.4978 23.4475 30.8919 22.5766C30.943 22.4772 31.0149 22.3901 31.1027 22.3211C31.1905 22.252 31.2922 22.2028 31.4007 22.1766C31.5093 22.1504 31.6223 22.148 31.7319 22.1694C31.8415 22.1908 31.9452 22.2357 32.0359 22.3008C32.0944 22.3375 32.1634 22.3537 32.2321 22.3469C32.3008 22.34 32.3652 22.3105 32.4152 22.2629C32.9502 21.5718 33.3356 20.7771 33.5469 19.9291C33.7582 19.0811 33.7908 18.1984 33.6427 17.3372C35.6702 17.1994 37.6495 16.6561 39.4632 15.7395C41.6431 14.6369 43.2677 13.4048 42.6308 10.2937C42.2515 8.43512 40.7286 6.4464 38.3177 7.01157C35.2768 7.7243 29.8268 12.7278 29.5693 15.7452C28.5387 15.9762 27.6822 16.472 27.4941 17.5826C27.1565 19.577 28.6987 21.9113 30.1826 23.0886C30.1371 24.5444 31.1021 26.3955 32.8473 25.9828C34.0643 27.5646 35.1642 29.2332 36.1382 30.9753C36.3073 31.2814 36.6999 30.9688 36.618 30.6855ZM34.3315 10.9568C35.252 9.88272 36.4135 9.04153 37.721 8.50188C38.8324 8.03192 40.6952 7.9735 40.8393 9.51995C40.8379 9.59228 40.8129 9.66217 40.7682 9.71906C40.7235 9.77594 40.6615 9.81672 40.5916 9.83524C40.5217 9.85375 40.4476 9.84899 40.3806 9.82167C40.3136 9.79435 40.2573 9.74596 40.2203 9.68381C39.701 8.52388 38.3996 8.93316 37.5025 9.37088C36.4834 9.89321 35.5443 10.5586 34.7135 11.3467C34.6612 11.3943 34.5925 11.4198 34.5218 11.4178C34.4511 11.4157 34.384 11.3864 34.3345 11.3359C34.285 11.2854 34.2571 11.2176 34.2565 11.1469C34.256 11.0762 34.2828 11.0081 34.3315 10.9568ZM54.8105 6.02309C54.9172 5.70605 55.0991 5.41954 55.3405 5.18797C55.5819 4.95641 55.8758 4.78667 56.197 4.69322C56.5182 4.59977 56.8573 4.5854 57.1852 4.65131C57.5132 4.71723 57.8204 4.86148 58.0805 5.07178C58.4321 5.34782 58.682 5.73282 58.791 6.16631C58.9 6.5998 58.862 7.05722 58.6829 7.46674C58.6539 7.53673 58.6006 7.59393 58.5329 7.62782C58.4651 7.66172 58.3874 7.67005 58.314 7.65129C58.2406 7.63252 58.1764 7.58792 58.1333 7.52567C58.0901 7.46341 58.0708 7.38768 58.079 7.31236C58.2778 6.48547 58.0684 5.67829 57.2066 5.3646C56.8435 5.24715 56.4494 5.27189 56.1039 5.43383C55.7584 5.59578 55.4873 5.88284 55.3453 6.23702C55.3169 6.30794 55.2616 6.36469 55.1913 6.39478C55.1211 6.42487 55.0419 6.42584 54.9709 6.39747C54.9 6.3691 54.8433 6.31372 54.8132 6.24351C54.7831 6.1733 54.7821 6.09401 54.8105 6.02309Z" fill="#121111"/>
</svg>
