<svg width="141" height="111" viewBox="0 0 141 111" fill="none" xmlns="http://www.w3.org/2000/svg">
<path fill-rule="evenodd" clip-rule="evenodd" d="M67.7654 100.794C78.9484 98.1943 87.8363 88.8069 94.5853 79.9548C101.663 80.5702 108.707 79.5274 115.767 80.0459C117.448 80.1703 123.088 80.8597 120.613 83.5673C116.263 88.3276 105.835 86.4405 101.55 88.391C101.453 88.4356 101.26 88.4448 101.272 88.5508C101.466 90.4809 107.783 91.4008 103.909 93.3798C103.387 93.627 102.841 93.8207 102.28 93.9579C97.7553 95.2083 91.9726 94.61 86.8138 95.7622C86.6855 95.7898 83.9092 96.5091 84.0515 96.8045C84.7593 98.2781 88.0895 98.633 89.4736 99.1403C89.6774 99.2144 91.3868 99.7401 91.3747 100.099C91.3229 101.639 86.5384 101.846 85.4859 101.827C79.6814 101.734 73.5888 101.968 67.8414 101.009" fill="#325BD3"/>
<path fill-rule="evenodd" clip-rule="evenodd" d="M12.9793 76.9034C4.7876 76.0509 3.77096 83.7323 11.8809 85.1368C11.8695 81.961 12.4461 78.8105 13.5815 75.8447" fill="#325BD3"/>
<path fill-rule="evenodd" clip-rule="evenodd" d="M36.5538 84.1522C44.2411 83.1118 43.3145 86.396 45.4766 89.3215C49.2391 94.4164 54.3358 100.896 60.9716 101.802C57.3015 104.223 52.3941 103.56 48.2394 103.523C46.729 103.51 43.7725 103.021 42.4784 104.03C41.9096 104.476 43.6621 105.386 43.9109 105.483C45.0428 105.918 50.7854 106.772 48.3261 109.162C46.5198 110.918 42.5491 110.338 40.2786 110.479C37.6842 110.64 35.085 110.474 32.4926 110.556C28.6318 110.676 24.6717 110.846 20.8516 110.158C18.6348 109.758 15.81 109.521 13.9467 108.122C12.7756 107.242 13.4335 106.046 14.6554 105.518C16.3982 104.768 18.8023 104.892 20.6763 104.701C20.9644 104.671 22.9444 104.524 22.9812 104.149C23.0916 103.028 19.7773 102.41 19.0759 102.309C16.695 101.968 14.3315 101.797 12.0121 101.111C11.3077 100.903 10.3177 100.7 9.79828 100.124C8.94188 99.1786 9.63949 98.0651 10.4591 97.3612C11.9599 96.0754 14.1868 95.7985 16.0923 95.6349C18.4334 95.4325 21.2694 96.1906 23.3099 95.3081C31.5132 91.76 32.0632 86.7741 36.5713 84.0515" fill="#325BD3"/>
<path fill-rule="evenodd" clip-rule="evenodd" d="M57.2218 29.053C57.0993 28.4371 57.1429 27.7997 57.3482 27.2061C57.6104 26.0879 57.9336 24.9849 58.3164 23.9021C58.6263 23.3342 58.435 23.6891 58.7119 23.2272C58.9864 22.9779 58.8775 23.0302 59.184 22.9764H59.1878C59.4125 23.1919 59.3519 23.0873 59.4386 23.4485C59.4397 24.0979 59.3226 24.7421 59.0929 25.3496C58.2104 28.3148 58.5459 28.0166 57.9538 29.086C57.8255 29.313 57.9446 29.1934 57.4896 29.5507C57.1938 29.0898 57.2407 29.1867 57.2218 29.053Z" fill="#121111"/>
<path fill-rule="evenodd" clip-rule="evenodd" d="M59.9771 28.4082C60.3336 28.4702 60.6734 28.6055 60.9749 28.8057C60.3339 29.7565 60.3659 29.5802 58.4221 29.7647C58.1603 29.8194 57.8878 29.7882 57.6451 29.6756C57.5115 29.6272 57.635 29.7076 57.1126 29.3208C57.3866 28.9504 57.4297 28.8066 57.9095 28.6217C58.1288 28.5651 59.3792 28.5031 59.8362 28.4281C59.8479 28.4256 59.9694 28.4082 59.9771 28.4082Z" fill="#121111"/>
<path fill-rule="evenodd" clip-rule="evenodd" d="M53.3652 23.7088C54.0914 32.5507 53.6837 37.3725 56.4291 38.7469C57.1101 39.0245 57.8349 39.1792 58.5699 39.2039C59.0884 39.2484 59.2312 39.2242 59.4597 39.4658C59.7018 39.8158 59.5885 39.6033 59.2462 43.4239C59.2002 44.0407 59.2235 44.0596 59.0603 44.2803C58.6924 44.6289 58.5123 44.4561 57.6331 44.2285C54.933 43.5568 52.1332 43.3811 49.3703 43.71C43.7197 44.2949 37.1425 47.002 32.3962 49.927L32.1566 49.9696L31.9576 49.8433L31.915 49.6128C32.0811 49.3534 31.9978 49.4405 32.3023 49.2227C33.1311 48.6461 33.9115 48.0942 35.0618 47.4053C41.8636 43.3237 50.6048 41.1118 58.0766 43.1054C58.1085 42.5951 58.3337 40.4568 58.3404 40.3871C57.3263 40.3673 56.3343 40.0864 55.4604 39.5713C54.9853 39.2693 54.5764 38.8741 54.2584 38.4095C52.2387 35.4588 52.5727 26.3734 52.3573 21.2166C52.3248 20.4566 52.29 20.7354 52.4187 20.3544L52.6676 20.2184H52.6734C53.1004 20.3564 53.0902 20.0097 53.3652 23.7088Z" fill="#121111"/>
<path fill-rule="evenodd" clip-rule="evenodd" d="M21.2264 60.7025H21.2298L21.3581 60.9586C21.2381 61.3541 21.3688 61.1038 20.8314 61.7932C19.3576 63.7354 18.0803 65.8193 17.0185 68.0141C14.9635 72.1041 13.491 76.4616 12.644 80.9598C12.0036 84.0828 11.656 87.4469 12.554 90.5365C13.3697 93.4664 15.113 95.0146 16.911 95.4774C17.5366 95.642 18.1825 95.7163 18.8291 95.6982C21.8722 95.5699 24.7522 94.1296 27.1922 92.2643C33.5012 87.3162 42.1687 76.6666 43.3505 70.7493C43.5247 69.9128 43.3829 70.2337 43.5848 69.8779L43.8094 69.8092H43.8152L44.0195 69.9263C44.1018 70.1877 44.126 70.0803 43.9972 70.9183C42.8049 78.6641 31.4301 92.0034 24.5136 95.3661C23.0419 96.0906 21.4667 96.5827 19.8443 96.8247C15.4166 97.4424 11.6143 94.7914 10.9153 88.2902C10.6113 85.3023 11.0208 82.8251 11.593 80.129C12.1739 77.0748 13.0803 74.0916 14.2968 71.2305C17.2635 64.2849 20.5172 61.0012 20.6939 60.7509L20.9539 60.6207L21.2264 60.7025Z" fill="#121111"/>
<path fill-rule="evenodd" clip-rule="evenodd" d="M26.0411 64.9017L26.0126 65.3476C25.8515 65.5996 25.7316 65.8756 25.6572 66.1653C25.6369 66.235 25.2617 67.7144 25.0448 68.6536C24.7311 69.9457 24.5607 69.9607 23.9987 70.3219C22.2737 71.3918 20.4427 72.2805 18.5349 72.9738L18.2362 72.985L18.0203 72.831V72.8272L17.9985 72.5614C17.9985 72.5585 18.1631 72.3135 18.1656 72.3106C18.7089 71.8818 19.286 71.4978 19.8914 71.1623C21.1913 70.5632 22.4498 69.8779 23.6583 69.1111C24.0534 68.1293 24.0383 66.9471 24.6967 65.8675C24.8502 65.5992 25.0418 65.3546 25.2656 65.1414C25.5991 64.848 25.559 64.8886 25.8465 64.8146L26.0411 64.9017Z" fill="#121111"/>
<path fill-rule="evenodd" clip-rule="evenodd" d="M39.4328 62.7798C39.578 63.3124 39.609 63.0868 39.3214 63.8594C39.1127 64.3815 38.8202 64.866 38.4554 65.2939C36.9144 67.0038 35.0981 68.4438 33.0817 69.5541C32.9786 69.6233 31.9924 70.0188 31.883 70.0595L31.5838 70.0745L31.3665 69.9239V69.9201L31.3403 69.6581L31.5001 69.4035C32.2192 68.7776 32.9906 68.2144 33.8059 67.7202C36.8878 65.6076 37.1241 64.8867 38.3566 63.612C39.1641 62.7489 38.8698 62.9493 39.4328 62.7798Z" fill="#121111"/>
<path fill-rule="evenodd" clip-rule="evenodd" d="M41.1191 67.4831C40.8823 68.3772 40.6776 68.9412 39.4155 70.2033C38.5787 71.0279 37.659 71.764 36.671 72.3997C36.5229 72.4786 36.5369 72.4811 36.277 72.6026C35.9637 72.7372 35.6438 72.8556 35.3184 72.9574C34.9471 72.9574 35.0701 73 34.8019 72.8122L34.7869 72.5561C35.0497 72.131 34.8324 72.4322 35.3591 71.9297C35.4332 71.8929 35.3799 71.887 36.0223 71.3928C36.8114 70.8966 37.5506 70.3255 38.2299 69.6872C38.7395 69.2045 39.21 68.6819 39.6367 68.1245C40.1208 67.5959 40.2423 67.5184 40.5265 67.2212C40.5953 67.1529 40.5057 67.1974 41.0077 67.0391L41.1191 67.4831Z" fill="#121111"/>
<path fill-rule="evenodd" clip-rule="evenodd" d="M42.4342 69.7589C42.289 70.9 42.1771 71.1197 41.3207 72.4811C40.7234 73.3935 40.0251 74.2357 39.239 74.9917C38.8834 75.2845 38.4904 75.5287 38.0704 75.7179C38.0384 75.7179 38.1759 75.7004 37.7673 75.7663L37.5388 75.6549L37.5354 75.6515L37.4832 75.4042L37.6003 75.1219C37.6211 75.0871 37.7978 74.877 38.1556 74.4195C39.0146 73.5803 39.7798 72.6501 40.4377 71.6455C41.2254 70.3326 40.9925 70.5625 41.7811 69.6161C41.8663 69.5038 41.7976 69.5502 42.2696 69.3392L42.4342 69.7589Z" fill="#121111"/>
<path fill-rule="evenodd" clip-rule="evenodd" d="M74.6175 23.2891C75.5546 23.2332 76.4805 23.516 77.2264 24.086C77.5869 24.394 77.8739 24.7787 78.0664 25.212C78.8458 27.0323 77.7827 29.1818 76.1899 29.9747C76.3153 33.6332 76.7602 39.1768 77.2598 42.5709C83.2827 41.9019 90.3212 42.0747 95.6315 44.9847C96.6851 45.5542 97.6717 46.2398 98.573 47.0286C99.4249 47.7768 100.182 48.6266 100.827 49.5591C101.458 50.4785 101.978 51.4698 102.376 52.5122C103.368 54.9923 103.771 58.583 102.908 62.6728C101.298 71.1932 90.9341 87.9663 78.0426 96.5632C68.5249 102.905 59.7068 102.716 54.8385 99.7942C49.2446 96.5202 43.5011 87.1535 40.3262 82.3559L40.2778 82.1178L40.4061 81.9173L40.64 81.8728C41.4179 82.3797 46.1705 90.6662 52.0287 96.2176C52.0994 96.281 52.3158 96.4785 52.3855 96.5429C55.008 98.9523 56.9493 99.7913 59.8254 100.281C64.7247 101.097 69.0768 99.9874 73.5012 97.8229C85.3436 91.7715 96.6704 76.9527 100.643 66.1618C103.15 59.5353 102.94 52.2353 97.4208 47.6343C93.6277 44.474 88.4346 43.5629 83.4754 43.4573C77.314 43.4573 76.8769 44.0605 76.3478 43.6452C76.1619 43.4331 76.1769 43.3862 76.1134 42.8706C75.5821 38.4962 75.2789 34.097 75.2052 29.6911C75.203 29.5923 75.2309 29.4953 75.2853 29.4129C75.3397 29.3305 75.4181 29.2668 75.5098 29.2302C76.8077 28.7969 77.971 26.9316 77.1988 25.3858C77.0141 25.0364 76.7454 24.7383 76.4168 24.5186C76.0882 24.2989 75.7101 24.1643 75.3166 24.1271C73.7979 23.9451 74.4205 24.1944 73.8187 23.9582L73.7016 23.6963V23.6924L73.8057 23.4247C74.115 23.2804 73.9858 23.2891 74.6175 23.2891Z" fill="#121111"/>
<path fill-rule="evenodd" clip-rule="evenodd" d="M45.1405 61.4365C48.0452 63.4214 49.1354 66.1188 48.8808 68.1536C54.1634 70.9865 59.625 73.4723 65.2308 75.5954C67.0951 72.7648 67.9825 70.9939 71.9086 64.8108C72.4809 63.9166 72.3264 64.1107 72.5864 63.9098L72.8226 63.9321H72.826C73.0758 64.284 73.1242 63.9989 71.7319 66.7322C69.8792 70.38 68.7246 72.2579 67.8706 73.6628C65.4844 77.3852 66.0654 77.1857 64.4291 76.5747C58.1244 74.2205 52.9657 71.6087 47.9479 69.0158C47.4042 68.6667 47.7479 68.2833 47.7058 67.5257C47.7058 64.8577 45.2877 62.3728 42.8526 61.0836C42.6139 60.9712 42.6972 61.0303 42.4585 60.7786V60.4963V60.4925L42.6613 60.2954L42.9518 60.2901C43.7232 60.5865 44.4576 60.9712 45.1405 61.4365Z" fill="#121111"/>
<path fill-rule="evenodd" clip-rule="evenodd" d="M64.6689 75.668C65.0513 75.7674 65.4239 75.9011 65.7823 76.0674C67.5004 77.0986 69.3377 77.9763 69.5337 78.1336C69.6965 78.2515 69.8517 78.3794 69.9985 78.5165C70.3911 78.9077 70.2502 78.6811 70.5092 79.2727C69.9399 79.4049 70.0851 79.3933 69.8164 79.3507C69.399 79.3103 68.9936 79.1879 68.6236 78.9905C67.5343 78.4192 66.509 77.8717 65.4071 77.2346C65.1169 77.0778 64.8504 76.8806 64.6156 76.6488C64.5972 76.6319 64.2985 76.34 64.283 76.3201C64.102 75.9962 64.1276 76.1153 64.1508 75.8016V75.7982C64.4171 75.6298 64.3009 75.6617 64.6689 75.668Z" fill="#121111"/>
<path fill-rule="evenodd" clip-rule="evenodd" d="M64.6421 31.4815C64.5116 32.0554 64.198 32.5713 63.7484 32.9513C62.8659 33.7578 61.6614 34.4883 60.3814 34.3281C60.0539 34.2963 59.7397 34.1827 59.4676 33.9977C59.1955 33.8127 58.9744 33.5622 58.8245 33.2693C58.7664 33.1662 58.7804 33.1904 58.7761 33.1798C58.7049 32.8181 58.6918 32.9377 58.8133 32.6472L58.8172 32.6434C59.1188 32.5688 58.9978 32.5644 59.3497 32.6826C59.3875 32.7093 59.4266 32.734 59.4669 32.7566C59.6237 32.8488 59.7901 32.9236 59.9631 32.9798C60.3281 33.1515 60.7396 33.198 61.1337 33.112C61.5086 33.0249 61.8643 32.8699 62.1833 32.6545C62.5954 32.3746 62.9799 32.0561 63.3316 31.7032L63.9338 31.2675C64.2151 31.0705 63.9929 31.1595 64.5632 31.0317L64.6421 31.4815Z" fill="#121111"/>
<path d="M66.263 25.502C66.7761 25.502 67.192 24.9196 67.192 24.2012C67.192 23.4828 66.7761 22.9004 66.263 22.9004C65.7499 22.9004 65.334 23.4828 65.334 24.2012C65.334 24.9196 65.7499 25.502 66.263 25.502Z" fill="#121111"/>
<path d="M56.0436 26.0598C56.5567 26.0598 56.9726 25.4774 56.9726 24.759C56.9726 24.0406 56.5567 23.4582 56.0436 23.4582C55.5305 23.4582 55.1146 24.0406 55.1146 24.759C55.1146 25.4774 55.5305 26.0598 56.0436 26.0598Z" fill="#121111"/>
<path fill-rule="evenodd" clip-rule="evenodd" d="M66.6866 21.3527C66.5882 21.301 66.4841 21.2612 66.3763 21.2341C66.07 21.1604 65.7484 21.1844 65.4565 21.3028C65.3903 21.3266 65.3256 21.3544 65.2628 21.3861C65.1933 21.4266 65.1214 21.4626 65.0474 21.4941C64.8441 21.5425 64.8755 21.5425 64.7017 21.5778C64.4432 21.633 64.7603 21.6195 64.0288 21.602C64.0438 20.9901 64.0177 21.1005 64.0864 20.9727C64.1454 20.826 64.2328 20.6925 64.3434 20.5796C64.454 20.4667 64.5858 20.3767 64.7313 20.3148C64.8314 20.2644 64.9344 20.2198 65.0396 20.1812C65.3745 20.051 65.732 19.9893 66.091 19.9998C66.4501 20.0103 66.8034 20.0927 67.13 20.2422C67.2794 20.3073 67.4062 20.4153 67.4941 20.5525C67.5893 20.6837 67.6568 20.8329 67.6926 20.991C67.7284 21.1491 67.7317 21.3129 67.7023 21.4723C67.361 21.4601 67.0213 21.4201 66.6866 21.3527Z" fill="#121111"/>
<path fill-rule="evenodd" clip-rule="evenodd" d="M77.0945 24.2487C74.8313 22.5858 73.0159 24.8974 72.9936 27.0939C69.9166 25.351 69.8347 21.5454 70.2249 18.435C68.7624 17.9615 67.601 16.8858 66.5849 15.7724C62.6384 19.4356 56.4209 19.6588 51.4413 19.5668C46.1286 19.47 44.3674 13.2603 45.6009 8.91632C46.3387 6.31663 48.3527 4.38162 50.6256 3.06095C54.834 0.614239 61.4862 0.431729 65.1974 3.97787C66.994 5.69405 67.6664 8.24873 69.4576 9.91408C73.0919 13.3 80.9926 12.4794 76.7024 24.2003" fill="#121111"/>
<path fill-rule="evenodd" clip-rule="evenodd" d="M57.6674 0.66656C59.2175 0.662068 60.7564 0.929309 62.2142 1.45615C64.2873 2.18828 66.0382 3.62398 67.1623 5.51352C68.8374 8.18341 69.0397 9.30801 71.8316 10.8325C74.5059 12.2848 78.8164 13.5774 78.3706 19.0987C78.1862 20.7259 77.7862 22.3214 77.1811 23.8431C77.3496 23.9592 77.2992 23.9089 77.4691 24.194L77.4043 24.4729V24.4768L77.1588 24.622L76.8766 24.5571C76.7391 24.4603 76.8282 24.501 76.5977 24.501C76.3988 24.3127 76.4263 24.3557 76.4215 24.2875C76.1158 24.1342 75.7735 24.0692 75.4329 24.0996C75.0497 24.1839 74.6952 24.367 74.4047 24.6308C74.1142 24.8946 73.8979 25.2299 73.7773 25.6033C73.7102 25.7647 73.6537 25.9303 73.6083 26.099C73.3832 26.9976 73.5812 27.0997 73.3663 27.4061C73.007 27.7658 72.6677 27.4826 72.2044 27.1641C70.6421 26.0371 69.9503 24.5063 69.6347 22.6134C69.4597 21.3588 69.4471 20.0869 69.5974 18.8291C69.0984 18.6219 68.6246 18.3584 68.1853 18.0438C67.6054 17.6085 67.0606 17.1284 66.5557 16.608C62.4122 19.9663 56.8463 20.2524 51.4383 20.1681C45.9731 20.0127 43.797 14.0097 44.9086 9.24991C45.7248 5.13397 50.6952 0.66656 57.6674 0.66656ZM48.3041 5.57597C46.8127 7.01504 45.9328 8.97328 45.8472 11.044C45.5863 14.7044 47.2996 18.5478 50.9571 18.9385C53.3696 19.0539 55.7876 18.9642 58.1849 18.6703C60.6578 18.3285 63.3078 17.5685 65.313 16.0527C66.2701 15.3531 66.1646 15.1915 66.6119 15.175C67.0476 15.2282 66.9406 15.3686 67.9422 16.3001C69.5882 17.8192 70.3144 17.7151 70.6605 18.0376C70.8857 18.3329 70.8058 18.45 70.7574 18.938C70.5676 20.7868 70.4969 22.9441 71.3277 24.6065C71.6338 25.2371 72.0716 25.7948 72.6115 26.2418C72.7359 25.6396 72.9784 25.068 73.3251 24.56C73.5984 24.1061 74.0023 23.7452 74.484 23.5244C74.9657 23.3037 75.5027 23.2334 76.025 23.3226C76.223 23.3644 76.4161 23.4267 76.6011 23.5085C76.6355 23.4393 76.94 22.4111 77.1027 21.7783C78.9452 13.9042 74.1297 13.6132 70.3541 11.334C67.6576 9.63623 67.3042 7.70849 65.6548 5.42008C62.0239 0.43951 52.9637 0.875697 48.3041 5.57597Z" fill="#121111"/>
<path fill-rule="evenodd" clip-rule="evenodd" d="M70.8859 12.7326C70.6193 12.3101 70.3981 11.8606 70.2261 11.3916C69.2356 8.28018 68.5259 7.24031 68.1875 5.84945C68.0906 5.45392 68.1003 5.4941 68.0984 5.48249L68.1173 5.17895L68.279 4.97949H68.2824H68.5389C68.8517 5.20509 68.7374 5.09278 69.0148 5.46651C69.4989 6.13701 69.6403 6.38633 70.5311 8.64666C71.5075 11.2265 71.4891 11.4022 71.5477 12.1487C71.5477 12.8221 71.6382 12.5254 71.3453 13.0976C70.8845 12.8028 70.9726 12.8807 70.8859 12.7326Z" fill="white"/>
<path fill-rule="evenodd" clip-rule="evenodd" d="M26.7735 68.1332C28.4267 68.0441 32.8225 68.7853 34.2681 68.1777C35.9295 67.4772 38.8613 64.3818 39.2999 62.5513C39.6141 61.2413 38.8158 58.8445 38.6256 57.5306C38.5568 57.0625 38.1415 53.0525 37.851 52.7684C36.6751 51.6142 27.4909 53.4461 25.5477 53.8107C25.2534 53.8663 23.8911 53.967 23.7294 54.2464C23.2569 55.0587 24.257 57.6448 24.5064 58.4068C25.5593 61.6272 26.0623 65.0329 27.0054 68.292" fill="#121111"/>
<path fill-rule="evenodd" clip-rule="evenodd" d="M37.6409 51.9884C38.4595 52.2895 38.5486 52.4585 38.8672 54.6903C39.3624 58.0902 38.9325 56.2167 39.6049 59.3077C40.044 61.3725 40.229 62.3611 39.3629 63.9325C38.355 65.7121 36.3507 67.7279 34.9628 68.4754C34.3963 68.7999 33.7521 68.9637 33.0994 68.9494C31.9715 68.9583 30.8442 68.8936 29.7247 68.7557C27.1409 68.4764 27.3138 68.5335 27.186 68.5161C27.1826 68.5161 27.092 68.5931 27.0891 68.596L26.8539 68.566L26.8054 68.5103H26.7846L26.513 68.4062L26.3886 68.1515V68.1462C26.5024 67.8403 26.4612 67.893 26.5295 67.8601C25.7031 65.2091 25.3676 63.5331 24.6139 60.8361C23.7424 57.7862 22.6372 55.4261 23.1078 54.1524C23.2806 53.6644 23.6447 53.5347 24.1631 53.4132C24.7063 53.3115 25.4049 53.2258 25.4243 53.2195C25.7685 53.144 28.9099 52.5558 31.0129 52.246C32.5538 52.0233 36.1619 51.5198 37.6409 51.9884ZM34.0546 67.6432C35.6705 66.8343 38.1933 64.1518 38.6909 62.4961C38.9906 61.1488 38.2204 59.0303 38.0384 57.6855C37.9764 57.3137 37.6206 53.9094 37.3732 53.1682C36.6262 52.7199 31.4863 53.3318 31.3121 53.419C29.487 53.661 25.6169 54.4114 25.464 54.4279C25.0438 54.4701 24.6269 54.5409 24.2164 54.6399C24.0871 55.3816 24.7034 57.1433 24.9426 57.8472C25.981 60.8138 26.437 64.5207 27.1884 67.7342C29.7886 67.7338 32.7155 68.1428 34.0546 67.6427V67.6432Z" fill="#121111"/>
<path fill-rule="evenodd" clip-rule="evenodd" d="M36.2128 63.1478C35.6139 61.7536 35.764 61.7817 34.9972 57.6851C34.559 55.327 34.6326 55.8513 34.5615 54.8516C34.5387 54.0334 34.513 54.2764 34.6229 53.8984L34.8311 53.7401H34.835L35.0891 53.8015C35.3225 54.0794 35.2658 53.9928 35.3385 54.1733C35.5127 54.624 35.5345 54.6676 35.6953 55.1561C35.8013 55.2626 36.8474 61.1397 36.9104 61.5464C36.9706 62.0301 36.9868 62.5184 36.9588 63.005C36.9491 63.3841 36.9995 63.2195 36.7114 63.7394C36.2534 63.3613 36.358 63.4964 36.2128 63.1478Z" fill="white"/>
<path d="M32.2821 59.0216C32.93 58.8937 33.3215 58.1123 33.1565 57.2764C32.9915 56.4404 32.3325 55.8664 31.6846 55.9942C31.0367 56.1221 30.6452 56.9035 30.8102 57.7394C30.9752 58.5754 31.6342 59.1495 32.2821 59.0216Z" fill="white"/>
<path fill-rule="evenodd" clip-rule="evenodd" d="M110.058 71.3124C111.732 71.3235 135.55 71.5544 136.856 72.1301L136.953 72.3435V72.3474C136.755 72.773 137.007 72.5977 134.35 72.7691C127.343 72.9477 119.541 72.513 110.334 72.513C107.253 72.4922 108.509 72.5614 102.884 72.4476C100.941 72.4084 101.335 72.4665 100.957 72.3101L100.837 72.0555V72.0521L100.941 71.7902L101.203 71.6619C101.878 71.6619 103.842 71.3124 110.058 71.3124Z" fill="#121111"/>
<path fill-rule="evenodd" clip-rule="evenodd" d="M3.42371 65.2905C12.9264 65.3709 11.8439 65.2271 13.9687 65.5413C15.0526 65.7519 14.7505 65.6444 15.1078 65.8318L15.2017 66.0346V66.0385L15.0918 66.2321C14.829 66.3425 14.9916 66.3333 13.9396 66.4345C11.7481 66.617 12.8557 66.5086 9.08059 66.5086C5.86219 66.4935 2.73869 66.5168 2.53148 66.4384C0.610033 66.2447 0.749458 66.2113 0.507885 66.085L0.402832 65.8361V65.8342L0.520472 65.5921L0.790124 65.4677C0.88259 65.4648 2.58764 65.2755 3.42371 65.2905Z" fill="#121111"/>
<path fill-rule="evenodd" clip-rule="evenodd" d="M106.144 79.0685C108.541 79.0685 108.559 79.0709 109.758 79.3822C109.946 79.4345 109.842 79.3647 110.232 79.7501C109.796 80.1141 110.072 80.0406 108.74 80.241C108.267 80.2841 107.792 80.2947 107.319 80.2725C103.404 80.2207 101.486 80.4424 100.49 79.8852L100.382 79.6475V79.6441L100.497 79.4098C100.661 79.296 100.854 79.2327 101.053 79.2277C102.331 79.0113 102.398 79.0685 106.144 79.0685Z" fill="#121111"/>
<path fill-rule="evenodd" clip-rule="evenodd" d="M130.026 79.7186C134.199 79.7186 134.282 79.7897 135.71 80.0734C136.027 80.223 135.945 80.148 136.083 80.3915V80.3949C135.941 80.6335 136.025 80.5604 135.702 80.7033C135.612 80.7033 135.533 80.7517 134.662 80.8708C133.419 81.0305 133.885 80.9192 129.682 80.9192C126.808 80.9192 126.907 81.0441 125.238 80.9003C124.605 80.8461 124.782 80.8853 124.442 80.7405L124.314 80.5086V80.5028L124.407 80.254L124.664 80.0996C124.736 80.0996 125.005 79.994 126.044 79.8377C126.044 79.7413 129.222 79.7186 130.026 79.7186Z" fill="#121111"/>
<path fill-rule="evenodd" clip-rule="evenodd" d="M1.33325 71.673C1.58305 71.673 2.88242 71.8183 2.95407 71.8255C5.18971 72.0569 5.24344 72.0303 5.80502 72.2806C6.24072 72.4868 6.08096 72.3735 6.4973 72.7952C6.00689 73.1273 6.18456 73.0484 5.71594 73.1651C5.03818 73.306 5.12145 73.2551 1.93404 72.923C1.63286 72.9245 1.33309 72.8819 1.04423 72.7967C0.172829 72.5188 0.411013 72.5512 0.343237 72.5512C0.0416339 72.3305 0.115703 72.4263 0 72.1407V72.1368C0.164599 71.8773 0.0745537 71.9577 0.410045 71.795C0.714657 71.7335 1.02311 71.6927 1.33325 71.673Z" fill="#121111"/>
<path fill-rule="evenodd" clip-rule="evenodd" d="M70.4226 36.9276V36.9315C70.4385 37.207 70.4647 37.1063 70.2923 37.3672C69.8946 37.7108 69.4696 38.0215 69.0215 38.2962C68.8807 38.3761 68.8681 38.3853 68.6827 38.4933C66.448 39.6343 61.8605 40.7115 59.0706 40.2288C58.2224 40.0657 58.3739 40.1189 58.0539 39.9219L57.9648 39.6692V39.6658C58.1929 39.2611 57.9648 39.3651 60.1351 39.1918C60.3414 39.1725 60.7809 39.1638 61.3391 39.1284C62.9921 39.0184 64.6249 38.7032 66.2001 38.1902C67.7115 37.6862 67.301 37.7656 68.2068 37.4379C68.307 37.403 69.7961 36.8918 69.9791 36.8226C70.2986 36.8216 70.149 36.7485 70.4226 36.9276Z" fill="#121111"/>
<path fill-rule="evenodd" clip-rule="evenodd" d="M120.442 37.4389C120.221 37.0455 119.977 36.6652 119.712 36.2998C117.791 33.5888 114.661 31.846 111.654 33.2877C110.647 33.7966 109.749 34.4979 109.011 35.3519C107.84 36.7937 107.219 38.6046 107.259 40.4617C107.284 41.6434 107.428 42.8195 107.69 43.9721C108.748 43.4836 112.835 41.019 113.099 40.9304C113.103 40.8621 113.182 38.0741 113.308 38.0741C113.342 38.001 113.393 37.9362 113.455 37.8843C113.517 37.8324 113.59 37.7946 113.668 37.7735C114.86 37.4893 115.614 37.3295 117.107 37.0095C118.998 36.6043 118.509 36.6358 118.947 36.7011L119.124 36.9204V36.9243L119.086 37.2046L118.862 37.3905C118.325 37.5638 118.219 37.5948 117.481 37.8199C114.05 38.853 114.351 38.6686 114.344 38.8158C114.236 41.43 114.464 41.5554 113.867 41.8758C111.969 42.8959 109.943 44.1885 107.746 45.2874C107.431 45.4423 107.295 45.5256 106.972 45.3711C106.705 45.1852 106.699 45.1528 106.446 43.8864C105.575 39.6407 106.064 35.9856 109.475 33.2562C113.606 29.9807 118.124 31.6988 120.614 36.3463C121.071 37.2288 121.002 37.1465 121.014 37.3978C121.014 37.4012 120.866 37.5769 120.863 37.5798C120.558 37.5798 120.713 37.6587 120.442 37.4389Z" fill="#121111"/>
<path fill-rule="evenodd" clip-rule="evenodd" d="M132.222 36.5597C133.832 36.9625 133.742 36.8952 133.865 37.7956C134.32 41.6371 133.687 44.8153 132.584 47.0209C131.955 48.3553 131.104 49.5731 130.067 50.6223C126.549 54.1403 120.312 54.3359 116.479 51.1645C113.169 48.4258 113.063 44.3869 113.249 40.1886C113.295 39.1463 113.249 39.4024 113.409 39.0495L113.671 38.942H113.675C114.212 39.1797 113.953 38.7857 114.169 42.8885C114.239 44.2374 114.493 45.5703 114.925 46.85C115.171 47.5465 115.508 48.207 115.929 48.8141C118.611 52.6279 124.493 53.2437 128.248 50.6C130.203 49.1719 131.66 46.73 132.291 44.3825C132.848 42.2727 132.978 40.073 132.674 37.9123C129.27 37.0244 125.758 36.6204 122.241 36.7122C121.574 36.7262 121.786 36.7606 121.472 36.6468C121.467 36.6391 121.365 36.444 121.362 36.4353L121.44 36.214L121.655 36.1008C125.206 35.7304 128.689 35.6946 132.222 36.5597Z" fill="#121111"/>
<path fill-rule="evenodd" clip-rule="evenodd" d="M131.231 37.9534L131.381 38.1205C131.381 38.1263 131.347 38.3417 131.346 38.3475L131.155 38.5184C130.294 38.9038 129.404 39.2176 128.492 39.4566C126.356 39.8735 124.19 40.1092 122.014 40.161C117.235 40.2995 116.042 39.8536 115.043 39.7113L114.789 39.5607L114.698 39.3041V39.3007L114.832 39.0587L115.107 38.9527C115.107 38.9527 116.77 38.9173 117.362 38.9173C118.555 38.9173 120.262 39.0659 123.048 38.9173C124.839 38.8206 126.622 38.6064 128.385 38.2763C128.735 38.2178 130.299 38.0227 130.973 37.9118C131.003 37.9142 130.886 37.9007 131.231 37.9534Z" fill="#121111"/>
<path fill-rule="evenodd" clip-rule="evenodd" d="M130.812 43.5039C129.215 43.2677 127.819 44.4402 126.238 44.5036C124.506 44.5724 122.873 43.9813 121.159 43.8903C119.494 43.8012 117.813 44.1149 116.152 44.2006C116.482 45.5663 117.083 47.144 118.125 48.1359C122.514 52.3095 129.889 49.5239 130.491 43.5039" fill="#325BD3"/>
<path fill-rule="evenodd" clip-rule="evenodd" d="M123.236 52.6178L123.389 52.8744L123.394 52.8928C123.673 54.0409 123.805 55.2198 123.786 56.4012C124.022 63.9292 123.428 63.766 123.428 64.2438C123.269 64.5271 123.347 64.4564 123.097 64.5706H123.093L122.904 64.4593L122.8 64.2104C122.415 61.1605 122.772 62.1897 122.584 56.2652C122.499 55.1598 122.516 54.049 122.633 52.9465C122.633 52.9403 122.633 52.9311 122.633 52.9257L122.749 52.6508L122.988 52.5229L123.236 52.6178Z" fill="#121111"/>
<path fill-rule="evenodd" clip-rule="evenodd" d="M125.402 52.735L125.506 53.0061C125.506 56.5048 125.757 59.9251 126.112 63.6256C126.263 63.6256 126.551 63.614 127.007 63.631C128.895 63.7012 131.762 64.195 132.812 65.7679C133.765 67.317 132.034 68.7742 130.246 69.0492C129.201 69.1974 128.149 69.2917 127.095 69.3319C124.375 69.4233 121.652 69.3301 118.945 69.0531C118.206 68.9884 117.482 68.8097 116.797 68.5234C115.087 67.7125 114.909 66.1222 116.738 65.108C118.384 64.193 120.213 64.3165 122.063 64.1398C122.218 64.0948 122.385 64.1073 122.531 64.1751L122.66 64.3688V64.3741L122.602 64.6007C122.386 64.7459 122.53 64.7328 121.435 64.911C119.84 65.1651 118.957 65.2402 117.776 65.764C117.308 65.9654 116.907 66.2977 116.623 66.7211V66.7283L116.619 66.7341V66.7414C116.616 66.748 116.614 66.7548 116.611 66.7617V66.7675V66.7709V66.7748V66.7801V66.7879V66.7913V66.8082V66.8155V66.8213V66.8252C116.616 66.8328 116.621 66.8407 116.625 66.8489C116.681 67.074 117.079 67.3688 117.693 67.575C119.527 68.1879 128.096 68.3792 130.328 67.7924C130.611 67.7187 130.884 67.6102 131.141 67.4695C131.409 67.3369 131.638 67.1367 131.806 66.8886L131.809 66.8794L131.815 66.8721C131.819 66.8629 131.815 66.8721 131.845 66.8106V66.8034L131.849 66.7976V66.7903L131.852 66.7826C131.855 66.77 131.865 66.738 131.869 66.7235V66.7177L131.873 66.7046V66.6935V66.6882V66.6804V66.6751V66.6175V66.6117V66.6005V66.5933V66.5875V66.5821V66.5744C131.863 66.5252 131.845 66.4782 131.818 66.4354L131.815 66.4258C131.361 65.8221 130.736 65.5752 129.923 65.2794C129.022 65.0091 128.09 64.8549 127.149 64.8204C125.492 64.7541 125.586 64.9405 125.217 64.7202C124.946 64.4883 124.978 64.5542 124.793 62.3529C124.6 60.2336 124.527 58.1051 124.576 55.9776C124.682 52.6997 124.687 52.385 125.402 52.735Z" fill="#121111"/>
<path fill-rule="evenodd" clip-rule="evenodd" d="M117.771 41.6865C117.872 42.0301 117.957 42.3787 118.023 42.7308C118.051 43.134 118.101 43.5353 118.174 43.9328C118.327 44.7531 118.619 45.5412 119.038 46.2629C119.056 46.3166 119.07 46.3485 119.092 46.4023C119.102 46.4275 119.293 46.9765 119.311 47.021C119.36 47.1512 119.35 47.0345 119.326 47.5729C118.802 47.5216 118.902 47.5472 118.778 47.4727C118.323 47.2309 117.961 46.8472 117.745 46.38C117.675 46.2474 117.634 46.1651 117.527 45.923C117.394 45.6168 117.282 45.302 117.191 44.9809C116.996 44.273 116.874 43.5471 116.827 42.8145C116.842 42.4337 116.904 42.0562 117.011 41.6904C117.2 41.3689 117.112 41.4517 117.388 41.3113H117.392C117.67 41.4498 117.581 41.3675 117.771 41.6865Z" fill="white"/>
<path fill-rule="evenodd" clip-rule="evenodd" d="M114.53 34.1572C115.338 34.1746 116.124 34.4172 116.801 34.8577C117.091 35.0436 116.988 34.9511 117.193 35.2034L117.2 35.4227C116.633 35.6313 116.958 35.5906 116.154 35.4619C115.443 35.3677 114.724 35.3397 114.008 35.3781C113.167 35.4605 112.366 35.7802 111.699 36.2999C111.032 36.8196 110.527 37.518 110.242 38.3138C109.96 39.1618 109.797 40.0449 109.758 40.9377L109.655 41.2199C109.65 41.2233 109.432 41.3584 109.426 41.3613L109.17 41.2795L109.005 41.0326C108.939 40.781 108.887 40.526 108.849 40.2686C108.702 39.2168 108.903 38.1459 109.421 37.2187C109.905 36.2851 110.64 35.5045 111.542 34.9639C112.444 34.4233 113.479 34.144 114.53 34.1572Z" fill="#121111"/>
<path fill-rule="evenodd" clip-rule="evenodd" d="M111.355 37.7769C111.779 38.1419 111.896 38.1961 111.965 38.3457C111.992 38.4426 111.981 38.4058 112.013 38.5016V38.5074L112.047 38.6933C111.611 39.2825 111.706 39.1973 111.576 39.2099C111.485 39.2203 111.393 39.2203 111.301 39.2099C111.138 39.175 111.214 39.2215 110.582 38.6953C110.536 38.6265 109.958 38.2111 109.958 38.1042C109.855 37.8313 109.806 37.5412 109.813 37.2497C110.786 37.1645 110.634 37.1572 111.355 37.7769Z" fill="#121111"/>
<path fill-rule="evenodd" clip-rule="evenodd" d="M114.913 35.2865C114.985 35.3833 114.939 35.3068 115.002 35.8829C115.038 36.2809 115.051 36.1787 115.027 36.2601L114.998 36.3046C114.938 36.3779 114.87 36.4446 114.796 36.5036C114.082 36.612 114.205 36.641 113.921 36.4513L113.88 36.4121L113.854 36.3733C113.854 36.2765 113.745 35.5208 113.776 35.4124L113.798 35.3717C113.846 35.3043 113.901 35.2421 113.962 35.1858H113.965L114.723 35.1301C114.791 35.195 114.736 35.1142 114.913 35.2865Z" fill="#121111"/>
<path fill-rule="evenodd" clip-rule="evenodd" d="M139.688 27.3267C140.184 27.4419 140.08 27.409 140.326 27.5688L140.393 27.7861V27.79C140.159 28.1516 140.586 28.0321 136.713 28.0321C135.839 27.9925 134.964 28.0561 134.104 28.2213C133.667 28.3133 133.245 28.466 132.85 28.675C132.479 28.876 132.147 29.1416 131.869 29.4592C130.491 31.0084 130.191 34.0356 129.682 36.535C129.29 38.4231 129.355 38.1273 129.167 38.4173L128.904 38.4952H128.9L128.664 38.35C128.55 38.0005 128.556 38.2478 128.612 37.2109C128.646 35.9924 128.783 34.7791 129.022 33.5839C129.179 33.2711 129.472 29.13 132.278 27.6196C132.405 27.6206 134.482 26.0491 139.688 27.3267Z" fill="#121111"/>
<path fill-rule="evenodd" clip-rule="evenodd" d="M54.888 2.99614C55.1179 3.02179 55.0502 3.00921 55.329 3.16267L55.4258 3.41877V3.42264L55.3019 3.6647L55.0279 3.77846V3.78088H55.0037H54.9954C54.2268 3.82539 53.4702 3.99275 52.7545 4.27662H52.7506C52.1915 4.48226 51.6594 4.75504 51.1661 5.08896C50.2903 5.7056 49.564 6.51095 49.0408 7.44563C48.5233 8.35291 48.1951 9.3557 48.076 10.3934C47.9652 11.793 48.1671 13.1998 48.6671 14.5118C48.9406 15.1939 48.8695 14.8366 48.9251 15.2592L48.8094 15.45C48.806 15.45 48.5892 15.4863 48.5858 15.4868L48.3728 15.3628C47.5549 14.4555 47.0358 13.3185 46.886 12.1062C46.3816 6.63474 50.8175 2.32176 54.888 2.99614Z" fill="white"/>
</svg>
