<svg width="162" height="141" viewBox="0 0 162 141" fill="none" xmlns="http://www.w3.org/2000/svg">
<path d="M13.299 57.1876C30.3022 57.0322 47.2382 57.2281 64.2597 56.8906C64.3541 56.8741 64.4509 56.8777 64.5438 56.901C64.6366 56.9244 64.7236 56.967 64.799 57.026C64.8744 57.0851 64.9365 57.1594 64.9814 57.244C65.0263 57.3286 65.0529 57.4217 65.0595 57.5173C65.0661 57.6128 65.0525 57.7087 65.0197 57.7987C64.9869 57.8887 64.9356 57.9708 64.8691 58.0396C64.8025 58.1085 64.7222 58.1627 64.6334 58.1986C64.5446 58.2345 64.4493 58.2513 64.3536 58.248C47.5236 58.5811 30.2122 58.9648 13.3911 58.5189C12.4218 58.4934 12.3018 57.197 13.299 57.1876ZM51.5143 31.4152C54.3496 44.043 36.9683 51.0933 29.058 43.1052C25.4298 39.4388 24.8608 33.4694 26.8345 28.8541C29.782 21.9614 37.3919 19.9827 43.9965 22.8136C47.5963 24.3565 50.6015 27.3484 51.5143 31.4152ZM49.9403 29.9939C49.4038 28.6129 48.5821 27.3605 47.5288 26.3185C46.4756 25.2765 45.2144 24.4684 43.8277 23.9468C36.4137 21.3502 29.2351 22.8364 27.0893 31.1248C25.9562 35.5003 27.1765 40.7995 31.0195 43.4878C39.8492 49.6642 54.4995 41.0882 49.9403 29.9945V29.9939ZM13.9213 19.1549C13.9213 18.7336 13.2368 18.7436 13.1996 19.1494C12.2763 28.8602 12.7332 39.034 12.7676 48.7965C12.7732 50.26 13.2845 50.3671 14.2006 50.4271C28.7543 51.3853 48.7378 50.8485 63.2626 50.205C63.7873 50.1817 63.8023 49.29 63.2626 49.2806C47.0356 48.9769 29.9652 50.0923 13.9979 49.1346C14.2478 39.3433 13.973 29.0057 13.9213 19.1549ZM64.7139 49.4477C64.7694 49.8802 65.6266 49.9385 65.6177 49.4544C65.4279 39.2561 65.5156 28.9818 65.2519 18.8152C65.2152 17.4172 65.1913 17.5382 63.6746 17.4766C48.1293 16.8715 30.7885 17.1702 15.3054 18.0618C15.1876 18.0672 15.0768 18.1192 14.9974 18.2064C14.9179 18.2935 14.8764 18.4087 14.8818 18.5265C14.8873 18.6443 14.9393 18.7551 15.0264 18.8345C15.1136 18.914 15.2287 18.9555 15.3465 18.9501C31.5858 18.8946 47.9994 18.2383 64.2198 18.7635C63.6268 26.8421 63.7062 41.5274 64.7139 49.4477ZM44.1686 33.8197C42.2604 32.7004 39.5799 30.9488 37.4419 29.7802C36.0145 28.9984 35.9035 30.0683 36.925 30.7751C38.3652 31.7711 41.039 33.0485 42.8844 34.3383C40.7669 35.6435 38.7372 37.0193 36.5819 38.3201C36.2732 35.4797 36.1305 32.6838 35.7236 29.8357C35.6509 29.3249 34.9413 29.4742 34.9547 29.9589C35.0407 33.113 35.4732 36.2115 35.5809 39.3233C35.5943 39.4074 35.6269 39.4873 35.6761 39.5568C35.7253 39.6263 35.7898 39.6835 35.8647 39.7241C35.9395 39.7647 36.0227 39.7875 36.1078 39.7908C36.1929 39.7941 36.2776 39.7777 36.3554 39.743C38.2108 38.7842 42.6562 36.1471 44.3018 34.7158C44.3681 34.6555 44.4185 34.5799 44.4486 34.4956C44.4787 34.4112 44.4875 34.3208 44.4743 34.2322C44.4612 34.1436 44.4264 34.0596 44.3731 33.9877C44.3197 33.9158 44.2495 33.8581 44.1686 33.8197ZM96.856 25.9638C99.1795 25.8144 99.0989 24.3127 96.705 24.4798C89.3831 24.9911 81.8892 24.8517 74.5529 24.6635C71.3251 24.5808 71.0042 25.9216 74.3181 26.0471C81.4795 26.3191 89.7246 26.4213 96.8538 25.9638H96.856ZM104.042 51.5802C104.169 49.1663 104.154 46.7471 103.998 44.335C103.964 43.9686 103.295 43.918 103.232 44.2911C102.919 46.1677 103.316 49.5821 103.239 51.6196C103.22 52.0593 104.012 52.021 104.04 51.5802H104.042ZM14.2295 1.02193C23.5072 0.994723 92.6327 0.548351 96.2897 0.696586C104.333 1.02304 104.81 10.4485 103.845 10.5989C102.817 10.7594 6.99646 10.1359 5.98546 10.0548C5.28259 9.99822 4.95169 1.04913 14.2295 1.02193ZM94.9539 6.12966C94.9513 6.3824 95.003 6.63275 95.1055 6.8638C95.2079 7.09485 95.3587 7.30124 95.5478 7.46901C95.7368 7.63678 95.9596 7.76204 96.2012 7.83632C96.4428 7.91061 96.6975 7.93219 96.9482 7.89961C97.2074 7.85989 97.4548 7.76359 97.6727 7.61752C97.8906 7.47146 98.0737 7.27921 98.2089 7.05444C98.3442 6.82967 98.4283 6.57789 98.4553 6.31696C98.4822 6.05603 98.4515 5.79236 98.3651 5.54466C98.2787 5.29697 98.1389 5.07132 97.9555 4.88374C97.7722 4.69617 97.5497 4.55126 97.3041 4.4593C97.0584 4.36735 96.7955 4.3306 96.534 4.35168C96.2725 4.37275 96.0189 4.45113 95.7911 4.58124C95.5307 4.74559 95.317 4.97412 95.1704 5.24488C95.0238 5.51565 94.9492 5.81956 94.9539 6.12744V6.12966ZM88.9434 7.30833C89.213 7.62662 89.5844 7.84198 89.9945 7.91796C90.4046 7.99394 90.8284 7.92587 91.1942 7.72528C91.5299 7.49675 91.7829 7.16605 91.9157 6.78229C92.0485 6.39853 92.0541 5.98216 91.9315 5.59502C91.7882 5.2104 91.5195 4.88525 91.1688 4.67202C90.818 4.45879 90.4057 4.3699 89.9983 4.41968C89.689 4.46967 89.3987 4.60119 89.1571 4.80072C88.9156 5.00024 88.7317 5.26055 88.6242 5.55482C88.5167 5.8491 88.4897 6.1667 88.5458 6.47492C88.6019 6.78313 88.7392 7.07081 88.9434 7.30833ZM82.3234 7.41937C82.6193 7.66853 82.9847 7.82053 83.37 7.8547C83.7553 7.88887 84.1418 7.80356 84.4769 7.61035C85.6567 6.95856 85.629 4.99264 84.2821 4.52961C83.8899 4.4139 83.4717 4.42105 83.0837 4.55007C82.6958 4.6791 82.3566 4.92383 82.1118 5.25136C81.8868 5.57964 81.7846 5.97667 81.8231 6.3728C81.8615 6.76893 82.0383 7.13886 82.3223 7.4177L82.3234 7.41937ZM103.221 12.7342C103.375 20.4391 102.692 28.1479 103.102 35.9078C103.126 36.3625 103.891 36.3308 103.884 35.89C103.76 28.2489 104.566 20.3397 104.018 12.7164C103.985 12.2567 103.212 12.2812 103.22 12.7325L103.221 12.7342ZM97.6599 18.2145C89.0234 18.6181 80.5601 18.044 71.9596 18.0429C71.621 18.0429 71.5583 18.6536 71.8875 18.7974C74.5313 19.9389 93.7825 19.809 97.6965 19.5142C97.864 19.5024 98.0204 19.4264 98.1331 19.302C98.2458 19.1776 98.306 19.0145 98.3013 18.8467C98.2966 18.679 98.2272 18.5195 98.1077 18.4017C97.9882 18.2839 97.8277 18.2168 97.6599 18.2145ZM12.0875 69.5011C18.2462 69.5333 24.7042 70.0991 29.6093 69.741C30.0534 69.7082 30.1151 68.9543 29.6482 68.941C23.8414 68.7744 18.2823 68.4013 12.7882 68.2797C9.06842 68.197 6.99923 66.7185 6.61948 62.8361C5.97935 56.2815 6.23085 47.957 6.19421 41.277C6.15201 33.9541 6.83767 13.7491 6.66445 11.701C6.6606 11.5931 6.6176 11.4903 6.54349 11.4118C6.46937 11.3334 6.36921 11.2846 6.26173 11.2746C6.15425 11.2646 6.04681 11.2941 5.95948 11.3575C5.87216 11.421 5.81094 11.5141 5.78725 11.6194C5.54353 12.8319 5.16711 27.6316 5.03608 39.0829C4.95281 46.3381 4.63135 56.3604 5.39196 63.3447C5.79392 67.0489 8.2856 69.4828 12.0875 69.5011ZM78.9412 68.303C68.4026 68.9526 56.28 68.5251 45.4077 68.8027C44.9408 68.8144 44.9392 69.6138 45.4133 69.6266C56.1795 69.9137 68.2066 69.4279 78.9467 69.4395C79.5929 69.4395 79.5935 68.2647 78.9412 68.3047V68.303ZM73.5136 32.1047C72.2689 32.3995 72.4327 33.2051 73.6891 33.2057C75.6789 33.2057 77.828 32.9836 79.8894 32.9586C81.208 32.9431 81.7715 31.9037 79.624 31.7372C77.58 31.6412 75.5315 31.7642 73.5136 32.1042V32.1047ZM107.292 85.1408C106.357 82.3731 104.935 79.7945 103.094 77.5264C102.83 77.1761 103.272 76.6381 103.637 76.9412C105.949 79.0545 107.558 81.8269 108.245 84.8838C110.989 84.1471 113.875 84.1246 116.631 84.8185C119.386 85.5123 121.917 86.8994 123.985 88.8478C124.529 74.7543 112.722 65.1773 100.968 64.3085C99.235 68.3341 91.6145 69.912 90.1921 65.7403C84.261 66.919 75.7144 71.1811 72.6481 76.2733C76.53 76.2484 79.2282 76.2422 81.2996 76.6231C83.2761 76.9867 84.6069 78.3897 84.709 80.0692C84.8546 83.2918 85.2426 86.499 85.8699 89.6634C87.3756 85.7648 90.9305 84.7855 94.105 84.7128C96.856 84.6489 103.523 86.0386 107.292 85.1403V85.1408ZM105.035 56.8784C110.189 55.7993 115.48 55.537 120.715 56.1011C125.83 56.6374 129.067 57.3158 130.276 62.9299C132.078 71.3083 130.202 84.7849 127.315 92.8507C124.83 99.7906 120.278 99.1355 114.205 99.5968C113.739 99.6323 113.614 100.437 114.126 100.453C119.905 100.642 124.786 100.413 127.435 95.7105C131.52 88.4592 133.001 72.2543 131.803 63.9537C131.018 58.5184 128.71 55.9035 123.166 55.1817C117.483 54.4411 110.263 54.2801 104.784 56.0511C104.68 56.0886 104.594 56.1648 104.544 56.264C104.494 56.3631 104.484 56.4777 104.516 56.5839C104.548 56.6901 104.62 56.7799 104.717 56.8346C104.813 56.8893 104.927 56.9048 105.035 56.8778V56.8784ZM131.124 58.3413C134.84 59.6848 138.862 61.1278 141.561 64.1602C147.644 70.989 144.393 82.2039 142.876 90.1814C141.192 99.0416 139.586 107.916 137.909 116.775C137.385 119.545 138.434 120.407 138.927 117.93C140.685 109.089 142.337 100.206 144.026 91.35C145.629 82.9439 148.921 71.7674 143.339 64.2013C140.494 60.3455 135.826 58.8509 131.41 57.6079C130.937 57.478 130.638 58.1653 131.124 58.3418V58.3413ZM109.638 136.807C109.43 137.669 110.723 137.913 110.937 137.002C112.856 128.853 115.462 119.163 116.39 111.083C117.126 104.679 116.601 100.553 109.359 99.8677C103.547 99.3126 98.7364 101.651 97.6782 107.763C96.2952 115.751 97.123 128.658 97.4084 137.184C97.4072 137.291 97.4486 137.394 97.5235 137.471C97.5983 137.547 97.7005 137.591 97.8076 137.592C97.9146 137.593 98.0178 137.552 98.0943 137.477C98.1708 137.402 98.2145 137.3 98.2156 137.193C98.4622 128.665 98.0735 119.89 98.5837 111.442C98.9329 105.655 100.32 101.371 107.015 101.032C114.374 100.661 115.843 103.466 115.198 110.321C114.379 119.017 110.994 131.203 109.64 136.806L109.638 136.807ZM145.317 124.065C146.107 122.546 148.749 119.845 150.285 119.836C151.562 119.83 150.742 122.34 151.147 123.756C154.446 124.046 155.054 124.007 157.266 126.164C157.549 126.442 157.889 126.295 157.647 125.892C157.144 125.024 156.434 124.294 155.58 123.766C156.704 122.074 158.483 121.088 159.015 121.161C160.021 121.3 158.763 124.698 159.41 127.392C159.847 129.213 160.631 131.326 159.874 133.461C159.286 135.121 158.34 136.632 155.48 137.536C152.854 138.369 147.883 137.734 145.644 136.492C148.914 134.508 147.726 129.631 142.711 131.234C135.912 133.407 132.489 133.899 125.334 132.697C124.829 132.612 124.711 133.171 125.236 133.271C130.974 134.488 136.932 134.163 142.503 132.327C145.217 131.47 147.129 133.171 145.829 134.977C144.511 136.809 140.984 137.484 138.844 137.808C132.382 138.791 125.539 138.069 122.56 137.71C117.02 137.044 119.854 122.924 134.281 120.999C138.414 120.447 142.659 121.602 144.979 123.136C143.87 125 143.184 127.084 142.971 129.243C142.941 129.662 143.4 129.564 143.494 129.153C143.879 127.385 144.492 125.674 145.318 124.064L145.317 124.065ZM130.841 122.715C130 123.16 129.411 124.262 129.12 125.133C128.797 126.073 128.752 127.085 128.989 128.05C129.1 128.499 129.555 128.543 129.554 128.07C129.539 127.175 129.727 126.289 130.105 125.478C130.244 125.18 130.997 124.001 131.297 123.51C131.612 122.999 131.347 122.451 130.842 122.715L130.841 122.715ZM135.128 121.716C133.937 122.36 133.24 123.784 132.82 125.016C132.399 126.326 132.361 127.729 132.709 129.061C132.807 129.489 133.267 129.458 133.295 129.033C133.396 127.478 133.657 125.279 134.785 123.838C135.135 123.388 135.454 122.915 135.74 122.422C136.065 121.867 135.55 121.486 135.13 121.713L135.128 121.716ZM138.768 122.578C138.063 123.232 137.487 124.013 137.071 124.881C136.525 126.006 136.344 127.273 136.554 128.505C136.639 128.944 137.109 129.019 137.159 128.538C137.297 127.338 137.715 126.186 138.38 125.177C138.755 124.604 139.187 124.071 139.67 123.585C140.909 122.324 139.923 121.558 138.77 122.577L138.768 122.578ZM155.979 130.642C156.197 130.514 156.454 130.47 156.702 130.52C156.95 130.569 157.171 130.708 157.323 130.909C157.668 131.384 158.035 131.117 157.839 130.53C157.751 130.328 157.616 130.151 157.444 130.014C157.272 129.876 157.069 129.783 156.853 129.743C156.636 129.702 156.414 129.715 156.204 129.78C155.993 129.846 155.803 129.962 155.648 130.118C155.597 130.169 155.566 130.236 155.559 130.307C155.551 130.378 155.568 130.45 155.607 130.511C155.645 130.571 155.703 130.617 155.771 130.64C155.839 130.663 155.913 130.663 155.98 130.639L155.979 130.642ZM152.544 131.706C152.6 132.118 153.331 132.955 153.793 132.933C154.337 132.907 155.1 132.337 155.047 131.793C154.994 131.249 152.465 131.1 152.545 131.703L152.544 131.706ZM149.832 130.438C150.025 130.234 150.282 130.102 150.561 130.065C150.839 130.027 151.122 130.087 151.362 130.234C151.815 130.571 152.22 130.151 151.834 129.761C151.662 129.583 151.451 129.448 151.217 129.366C150.983 129.285 150.733 129.26 150.488 129.293C150.243 129.326 150.009 129.416 149.805 129.557C149.601 129.697 149.433 129.883 149.315 130.101C149.075 130.49 149.57 130.689 149.833 130.435L149.832 130.438ZM53.146 88.7151C53.332 87.1645 53.4236 86.4022 51.7713 86.3217C47.0211 86.0913 43.6445 87.2905 40.7292 89.5596C37.5424 92.0396 35.1412 96.0114 34.9202 100.101C34.9025 100.204 34.926 100.309 34.9857 100.393C35.0454 100.478 35.1362 100.536 35.2384 100.553C35.3405 100.571 35.4455 100.548 35.5302 100.488C35.615 100.428 35.6725 100.337 35.6903 100.235C36.4392 96.3934 38.2036 92.8807 41.3482 90.4395C44.6877 87.8468 48.2564 87.0262 52.3709 87.3277C52.0854 91.4435 50.3947 95.3362 47.5819 98.3543C44.2457 101.912 41.4748 102.704 37.0422 103.707C36.9523 103.733 36.8744 103.789 36.8229 103.867C36.7713 103.945 36.7495 104.039 36.7615 104.131C36.7734 104.224 36.8182 104.309 36.8878 104.371C36.9574 104.434 37.0471 104.469 37.1404 104.47C40.9951 104.422 45.6548 101.799 48.272 99.0538C50.9362 96.201 52.6406 92.5857 53.146 88.7151ZM86.5228 137.213C85.2242 134.364 81.9969 130.711 78.4826 131.421C76.2896 131.865 73.8689 134.21 72.7958 136.114C72.2323 137.114 72.486 138.264 73.7524 138.423C76.687 138.688 79.6355 138.764 82.5799 138.652C85.4441 138.618 89.7529 138.452 92.4728 137.733C92.9813 137.599 92.7293 136.906 92.2835 136.9C90.3714 136.861 88.4438 137.075 86.5228 137.213ZM60.8209 138.413C64.1298 138.6 68.6419 138.587 71.7764 137.814C72.2628 137.694 72.0457 137.003 71.6027 137.003C71.1474 137.003 70.6927 137.019 70.2386 137.035C69.5263 135.292 68.658 133.519 66.938 132.579C64.172 131.068 61.2512 133.25 59.3508 135.172C56.8941 137.657 58.2865 138.27 60.8209 138.413ZM25.2666 99.2898C25.3774 99.2847 25.4818 99.2367 25.5579 99.1561C25.6339 99.0754 25.6757 98.9683 25.6743 98.8575C25.673 98.7466 25.6286 98.6406 25.5505 98.5619C25.4725 98.4831 25.3669 98.4378 25.2561 98.4354C20.7851 98.4137 16.4691 97.6997 12.4917 95.5611C6.65501 92.4221 3.16676 87.7113 1.00153 81.5981C4.5886 81.154 10.3642 80.8764 15.4115 82.3143C23.0514 84.4879 26.1882 89.6939 27.6295 97.0057C27.7178 97.4543 28.485 97.4016 28.4445 96.9269C27.1748 82.2361 13.9874 79.1981 1.39016 80.5488C-0.00170013 80.6982 -0.288733 80.7765 0.264235 82.2372C1.59669 85.7587 3.4538 89.2919 6.01544 91.9646C10.6896 96.8414 18.4461 100.163 25.2666 99.2898ZM160.63 139.367C149.792 139.09 149.28 139.145 138.441 139.156C127.601 139.167 116.754 139.233 105.911 139.248C84.3361 139.276 62.7607 139.338 41.185 139.434C29.0863 139.474 16.7389 139.288 4.67132 139.726C4.24494 139.742 4.23661 140.466 4.66522 140.479C15.4964 140.812 26.3592 140.604 37.1932 140.581C48.0379 140.558 58.8809 140.534 69.7222 140.507C91.2974 140.445 112.873 140.34 134.448 140.328C146.614 140.321 148.462 140.636 160.623 140.261C161.13 140.246 161.138 139.381 160.63 139.367ZM40.0779 137.424C41.059 132.192 42.3947 124.818 42.7428 119.609C43.9859 119.514 44.1308 119.38 44.3829 118.076C44.6208 117.007 44.7901 115.924 44.8898 114.833C44.9858 113.278 45.2107 112.601 43.4346 112.562C36.1189 112.402 27.2137 112.333 19.9834 112.823C19.8836 112.828 19.7897 112.872 19.722 112.946C19.6543 113.019 19.618 113.116 19.621 113.216C19.624 113.316 19.6659 113.411 19.7379 113.481C19.8099 113.55 19.9062 113.589 20.0062 113.588C27.886 114.088 36.2866 113.105 43.9026 113.777C43.8915 115.372 43.7053 116.96 43.3474 118.514C35.5237 119.056 28.0942 118.979 20.2755 118.883C19.7578 117.258 19.368 115.594 19.1096 113.908C19.0341 113.464 18.2812 113.477 18.2929 113.952C18.3562 115.669 18.6755 117.367 19.24 118.99C19.5237 119.84 20.1467 119.974 21.0538 119.968C28.082 119.921 34.7709 120.12 41.8301 119.67C41.1011 126.538 39.9813 131.055 39.2374 136.296C38.9792 138.145 39.8736 138.517 40.0779 137.427V137.424ZM58.6629 101.964C59.0754 101.974 59.2425 101.308 58.8006 101.218C56.1434 100.677 53.1449 100.49 50.9025 102.309C48.1021 104.581 49.158 109.244 49.6561 112.42C50.5932 118.402 53.6956 131.324 56.0602 137.519C56.2561 138.033 57.0939 137.699 56.9485 137.194C55.0703 130.627 52.301 121.196 50.8292 112.306C50.4672 110.126 49.6727 106.412 50.6565 104.41C52.095 101.485 55.978 101.907 58.6629 101.967V101.964ZM21.0344 121.495C21.267 124.859 22.9348 134.326 24.1696 137.248C24.2181 137.34 24.2975 137.413 24.394 137.454C24.4906 137.494 24.5982 137.499 24.6983 137.469C24.7984 137.438 24.8848 137.374 24.9424 137.287C25.0001 137.199 25.0254 137.094 25.014 136.99C23.7371 131.81 22.8449 127.941 21.8161 121.361C21.7389 120.866 21.0005 121.011 21.0344 121.495ZM31.05 89.2031C31.1053 89.2841 31.1893 89.3412 31.2849 89.3629C31.3806 89.3846 31.4809 89.3694 31.5658 89.3202C31.6506 89.271 31.7138 89.1915 31.7425 89.0978C31.7712 89.004 31.7634 88.9028 31.7207 88.8145C29.6128 85.0542 28.9273 80.6614 29.7892 76.4377C30.4496 73.4573 31.8984 70.709 33.9841 68.4799C36.0698 66.2509 38.7158 64.6229 41.6458 63.766C42.6951 67.5378 42.9665 71.4835 42.4436 75.3634C41.4204 82.0551 38.7655 85.6088 34.5566 90.4645C34.2446 90.8248 34.7492 91.3806 35.134 91.0835C37.8511 88.9883 40.3272 85.0464 41.6441 81.8924C43.9493 76.3733 44.5 69.4462 42.5441 63.7222C42.1771 62.6484 42.0655 62.5685 41.0084 62.8999C37.2572 64.0889 33.9892 66.4554 31.689 69.6483C29.6621 72.4798 28.5197 75.8485 28.4059 79.3288C28.2922 82.8092 29.2123 86.2453 31.05 89.2031ZM31.2127 111.486C31.2221 111.979 32.0627 111.986 32.0804 111.49C32.096 111.055 32.113 110.62 32.1315 110.185C36.0234 101.921 39.8847 97.4121 46.9551 91.7204C47.2882 91.4516 46.8623 90.8204 46.4732 91.0158C41.13 93.6979 34.7076 102.199 32.2453 107.738C32.8116 95.5822 33.8087 86.843 36.8756 74.67C36.9866 74.2258 36.2383 74.017 36.0922 74.4612C33.2136 83.1976 31.734 94.9843 31.2926 104.189C27.9826 96.6976 21.2259 90.7032 13.7675 87.5487C13.2973 87.3499 13.0458 88.08 13.4983 88.2876C21.584 91.9757 27.5146 98.603 31.2088 106.575C31.1749 108.21 31.181 109.844 31.2127 111.486Z" fill="#325BD3"/>
<path fill-rule="evenodd" clip-rule="evenodd" d="M91.7511 90.3047C91.0294 91.2441 90.4281 91.3501 89.9645 92.6893C89.6156 93.7336 89.6612 94.8697 90.0928 95.8827C90.1336 95.9733 90.1376 96.0763 90.1039 96.1698C90.0703 96.2633 90.0016 96.3401 89.9124 96.3839C89.8232 96.4278 89.7204 96.4352 89.6258 96.4046C89.5312 96.3741 89.4522 96.308 89.4054 96.2203C89.0713 95.646 88.8603 95.0086 88.7857 94.3484C88.7112 93.6883 88.7747 93.0198 88.9724 92.3856C89.2811 91.3929 90.2538 89.8961 91.3325 89.6707C91.412 89.6567 91.4938 89.6663 91.568 89.6983C91.6421 89.7302 91.7053 89.7831 91.7497 89.8504C91.7942 89.9178 91.818 89.9967 91.8183 90.0774C91.8185 90.1581 91.7952 90.2371 91.7511 90.3047ZM94.2389 92.3556C94.2834 92.3009 94.3125 92.2354 94.3232 92.1658C94.3339 92.0962 94.3258 92.0249 94.2997 91.9595C94.2737 91.894 94.2307 91.8367 94.1751 91.7934C94.1195 91.7501 94.0534 91.7224 93.9835 91.7132C92.852 91.6722 91.9066 93.2222 91.7361 94.2027C91.6295 94.8051 91.7012 95.4255 91.9424 95.9876C92.1835 96.5498 92.5836 97.0293 93.0936 97.3673C93.1745 97.4315 93.2777 97.461 93.3804 97.4492C93.4313 97.4434 93.4805 97.4275 93.5253 97.4027C93.57 97.3778 93.6094 97.3444 93.6413 97.3043C93.6731 97.2642 93.6967 97.2182 93.7107 97.169C93.7248 97.1197 93.729 97.0682 93.7232 97.0174C93.7173 96.9665 93.7015 96.9173 93.6766 96.8726C93.6518 96.8278 93.6183 96.7884 93.5782 96.7566C93.2534 96.4517 93.0062 96.0736 92.8573 95.6538C92.7084 95.2339 92.662 94.7846 92.7221 94.3432C92.9548 93.0113 93.8747 92.7131 94.2389 92.3556ZM122.656 88.6269C122.57 88.1167 121.778 88.175 121.781 88.663C121.802 92.013 120.67 95.498 114.854 96.6505C108.364 97.9369 101.962 96.3874 96.4219 92.9169C96.3427 92.8624 96.2452 92.8411 96.1505 92.8575C96.0557 92.8738 95.9711 92.9266 95.9147 93.0044C95.8582 93.0823 95.8345 93.1791 95.8484 93.2743C95.8624 93.3694 95.913 93.4553 95.9894 93.5137C101.256 97.5733 108.552 98.9751 115.044 97.7615C119.893 96.8548 123.578 94.1172 122.656 88.6269ZM98.0825 98.5343C97.4007 98.5987 87.8165 98.8791 87.163 98.5526C86.5096 98.2262 83.9113 89.8917 83.2817 81.8275C83.1007 79.5063 82.7376 78.4359 79.9084 78.0189C77.616 77.6808 59.5585 77.8524 57.9534 78.0189C56.5732 78.1644 55.525 78.7057 55.6394 81.4672C55.9109 88.0307 59.3758 100.363 61.244 101.364C63.2755 102.452 95.5936 102.172 98.0009 101.689C99.9868 101.29 99.6242 98.3894 98.0825 98.5343ZM72.3439 89.6624C71.9903 88.1378 70.8738 87.2195 69.5419 87.2695C68.0457 87.325 67.7731 89.0922 68.0723 90.3436C68.3754 91.6122 69.3426 92.737 70.7372 92.6837C72.1541 92.6293 72.6981 91.1869 72.3439 89.6624ZM74.5341 125.205C74.4153 124.761 73.7313 124.936 73.7624 125.372C73.8379 126.431 74.558 130.091 74.8861 131.801C74.9528 132.145 75.5446 131.964 75.6023 131.648C75.7395 130.905 74.8045 126.207 74.5347 125.205H74.5341ZM79.3454 125.114C79.1233 124.765 78.5126 125.008 78.6653 125.422C79.3493 127.291 80.0111 128.697 80.4314 130.796C80.5169 131.225 81.2086 131.117 81.1925 130.667C80.9805 128.705 80.3508 126.812 79.346 125.114H79.3454ZM89.3227 130.604C88.7215 128.871 88.4028 127.052 88.3789 125.218C88.3703 125.128 88.3301 125.044 88.2654 124.981C88.2006 124.918 88.1156 124.88 88.0254 124.873C87.9352 124.867 87.8456 124.893 87.7727 124.947C87.6998 125 87.6482 125.078 87.6272 125.166C87.4066 126.875 87.5689 128.612 88.1024 130.251C88.6287 131.939 89.8091 133.37 89.5303 135.17C89.513 135.268 89.5312 135.37 89.5818 135.457C89.6325 135.543 89.7122 135.609 89.8069 135.643C89.9015 135.676 90.0049 135.675 90.0986 135.639C90.1924 135.603 90.2704 135.535 90.3187 135.447C91.2015 133.889 89.8607 132.04 89.3227 130.604ZM66.5355 125.345C66.4898 125.266 66.4171 125.206 66.3307 125.176C66.2443 125.146 66.1499 125.148 66.0648 125.181C65.9797 125.215 65.9096 125.278 65.8672 125.359C65.8247 125.44 65.8129 125.534 65.8338 125.623C66.1519 127.119 67.4955 129.989 66.5949 131.335C66.5553 131.403 66.5364 131.481 66.5405 131.56C66.5446 131.638 66.5715 131.714 66.6179 131.778C66.6644 131.841 66.7283 131.89 66.802 131.917C66.8756 131.945 66.9557 131.951 67.0324 131.933C68.879 131.335 67.2756 126.472 66.5355 125.345ZM74.6058 117.566C73.5753 113.517 72.385 106.687 75.7528 103.464C70.4901 103.386 66.1042 103.286 65.0171 103.285C63.0217 103.285 60.5839 103.759 59.9738 106.606C59.2259 110.097 61.8614 118.015 64.4358 123.783C66.2496 123.928 72.4505 124.028 74.6968 123.747C74.5317 121.69 74.5015 119.626 74.6063 117.566H74.6058ZM77.6954 103.489C72.0702 107.145 76.1225 119.17 77.8092 123.965C81.4556 124.17 85.111 124.157 88.7559 123.926C88.3417 122.15 88.269 117.324 89.0668 116.309C89.8646 115.293 92.2619 115.39 95.8401 115.438C95.8662 111.303 95.6691 105.079 98.1719 103.121C95.9433 103.626 86.1187 103.6 77.6959 103.489H77.6954ZM110.036 85.0571C104.699 87.1307 101.905 86.4195 96.5008 86.1675C92.7849 85.9942 87.6649 86.973 86.65 91.2463C86.6339 91.3399 86.6525 91.4362 86.7024 91.5169C86.7524 91.5977 86.8302 91.6574 86.9211 91.6847C87.0121 91.712 87.1099 91.7051 87.1961 91.6653C87.2823 91.6254 87.3509 91.5554 87.389 91.4684C89.0801 87.0596 94.2445 86.9664 98.2152 87.3245C102.186 87.6826 106.858 88.0074 110.402 85.7616C110.487 85.7085 110.548 85.6255 110.574 85.5291C110.6 85.4328 110.589 85.3301 110.543 85.2416C110.497 85.153 110.419 85.0851 110.325 85.0512C110.231 85.0173 110.128 85.02 110.036 85.0587L110.036 85.0571ZM108.634 65.1491C104.484 61.7469 103.304 54.258 101.657 50.7064C98.3862 43.6416 91.3664 41.4381 84.1062 43.0692C78.4477 44.3406 78.5254 50.3977 86.8588 49.6999C91.3047 49.3273 93.4228 48.2097 93.4383 48.2009C93.938 50.1501 96.1138 53.132 96.3703 52.5807C96.9982 51.2294 98.324 51.8001 98.54 53.0432C98.8531 54.8465 97.8687 55.7548 96.8461 55.7148C96.4808 55.7009 98.2979 62.0289 98.7509 63.2098C98.8692 63.5191 99.2645 63.4669 99.5493 63.4758C101.842 63.5446 105.777 63.9055 108.634 65.1519V65.1491ZM91.9854 63.3903C93.3343 62.7998 94.5293 61.907 95.4781 60.7809C95.7601 60.4605 95.2532 60.0136 94.9384 60.2812C93.3767 61.6059 91.7422 63.1726 89.5187 62.9345C87.1503 62.6807 86.4652 60.2696 85.971 58.3092C85.8539 57.8417 85.1255 57.9611 85.2249 58.4435C85.699 60.7448 86.579 63.2942 89.2189 63.7317C89.8862 63.8395 90.5687 63.8078 91.2231 63.6384C91.343 64.4185 91.2054 65.1724 91.267 65.8353C91.2832 65.9239 91.3307 66.0037 91.4007 66.0603C91.4707 66.1168 91.5587 66.1464 91.6487 66.1437C91.7387 66.1409 91.8248 66.106 91.8912 66.0453C91.9577 65.9845 92.0001 65.9019 92.0109 65.8126C92.102 65.0073 92.0934 64.1934 91.9854 63.3903ZM93.2351 57.5119C93.2096 57.4233 93.1534 57.3467 93.0766 57.2957C92.9998 57.2447 92.9074 57.2227 92.8158 57.2335C92.7243 57.2444 92.6396 57.2875 92.5768 57.3551C92.5141 57.4226 92.4775 57.5103 92.4734 57.6024C92.6133 58.9904 91.262 59.3163 90.211 59.6011C90.1172 59.6248 90.0367 59.6848 89.9871 59.7679C89.9376 59.851 89.923 59.9504 89.9467 60.0441C89.9704 60.1379 90.0304 60.2185 90.1135 60.268C90.1966 60.3176 90.296 60.3321 90.3898 60.3084C91.7117 60.1829 93.6282 59.525 93.2351 57.5142V57.5119ZM89.0318 57.2788C88.7501 57.3585 88.4532 57.3684 88.1668 57.3076C88.2867 56.8901 88.4105 56.4748 88.5082 56.0512C88.5332 55.9599 88.5217 55.8624 88.4761 55.7794C88.4305 55.6964 88.3544 55.6344 88.2639 55.6065C88.1734 55.5786 88.0756 55.587 87.9912 55.6299C87.9067 55.6728 87.8423 55.7468 87.8115 55.8364C87.6682 56.225 87.5222 56.6653 87.414 57.0694C87.3638 57.1762 87.3405 57.2936 87.3462 57.4115C87.3519 57.5293 87.3864 57.6439 87.4466 57.7453C87.5069 57.8467 87.5911 57.9318 87.6919 57.9932C87.7926 58.0545 87.9069 58.0902 88.0247 58.0971C88.4543 58.1795 88.8976 58.1549 89.3155 58.0255C89.366 58.0081 89.4125 57.9808 89.4523 57.9451C89.492 57.9095 89.5242 57.8662 89.5469 57.8179C89.5696 57.7695 89.5824 57.7171 89.5845 57.6638C89.5867 57.6104 89.578 57.5572 89.5592 57.5072C89.5404 57.4572 89.5117 57.4115 89.4749 57.3729C89.4381 57.3342 89.3939 57.3032 89.3449 57.2819C89.2959 57.2606 89.2432 57.2494 89.1898 57.2488C89.1364 57.2483 89.0834 57.2585 89.034 57.2788H89.0318ZM85.8544 55.5654C85.8339 55.2468 85.7012 54.8892 85.3331 54.8637C84.8523 54.8309 84.7296 55.2729 84.7924 55.6582C84.8446 55.9774 85.085 56.466 85.4886 56.4182C85.8772 56.3732 85.8733 55.8558 85.8544 55.5654ZM91.1187 53.8216C91.095 53.7365 91.0524 53.6579 90.9941 53.5917C90.9358 53.5254 90.8632 53.4731 90.7819 53.4388C90.7005 53.4045 90.6125 53.389 90.5243 53.3934C90.4361 53.3979 90.3501 53.4222 90.2726 53.4646C90.1512 53.5885 90.0679 53.7447 90.0326 53.9145C89.9973 54.0844 90.0115 54.2608 90.0736 54.4228C90.1356 54.5848 90.2428 54.7256 90.3826 54.8285C90.5223 54.9313 90.6886 54.9919 90.8617 55.003C91.3419 54.8959 91.3031 54.2968 91.1187 53.8216ZM94.7913 51.934C94.1129 51.7519 93.3986 51.7504 92.7194 51.9295C92.2269 50.9246 91.1943 49.8381 89.9745 50.0369C88.6143 50.2589 88.2729 51.7824 88.3572 52.9472C88.1603 52.9184 87.9596 52.9305 87.7676 52.9827C87.5756 53.035 87.3964 53.1262 87.2413 53.2509C86.8599 52.3914 86.2603 51.5914 85.2793 51.4321C83.1845 51.0912 82.7976 53.8749 83.1695 55.3883C83.4605 56.5631 84.3627 57.8056 85.7234 57.6368C87.7682 57.3837 87.3707 54.2724 87.4306 54.1947C87.531 54.0263 87.685 53.8965 87.8679 53.8261C88.0508 53.7556 88.252 53.7486 88.4394 53.806C88.6987 55.2523 89.8468 56.9556 91.5312 56.5565C93.1507 56.1723 93.3745 53.9943 92.9958 52.6657C93.5703 52.604 94.1495 52.6001 94.7247 52.654C94.8046 52.6391 94.8774 52.5985 94.932 52.5384C94.9867 52.4783 95.0203 52.402 95.0276 52.3211C95.035 52.2401 95.0157 52.159 94.9728 52.0901C94.9298 52.0211 94.8655 51.968 94.7897 51.9389L94.7913 51.934ZM91.529 55.6654C92.701 55.1157 92.3185 52.9205 91.886 52.1172C91.5429 51.4815 90.6974 50.4988 89.874 50.8913C89.1584 51.2327 88.9607 52.2687 89.1684 53.2819C89.5059 54.9264 90.2171 56.28 91.529 55.6654ZM86.5973 54.0664C86.4452 53.1109 85.9572 52.2476 85.005 52.2232C83.7925 52.1921 83.6981 54.2585 83.8802 55.1135C84.0429 55.8758 84.6475 56.9073 85.5658 56.839C86.6811 56.7558 86.7067 54.7504 86.5978 54.067L86.5973 54.0664Z" fill="#1B1818"/>
</svg>
