<svg width="116" height="111" viewBox="0 0 116 111" fill="none" xmlns="http://www.w3.org/2000/svg">
<path d="M82.2542 47.1169C82.8907 47.0721 83.3671 46.473 83.3182 45.7787C83.2694 45.0844 82.7138 44.5579 82.0774 44.6026C81.4409 44.6474 80.9645 45.2465 81.0134 45.9408C81.0622 46.6351 81.6178 47.1617 82.2542 47.1169Z" fill="#121111"/>
<path fill-rule="evenodd" clip-rule="evenodd" d="M82.5866 41.175C82.7153 41.2262 82.8397 41.2872 82.959 41.3575C83.0078 41.3895 82.964 41.3498 83.1666 41.5706L83.1907 41.7883L83.0347 41.937L82.7746 41.9781C82.6791 41.9674 82.5828 41.9639 82.4867 41.9676C82.2656 41.9761 82.0457 42.0045 81.8297 42.0524H81.8269C81.596 42.0795 81.3707 42.1421 81.159 42.2381C80.8738 42.3677 80.6141 42.5471 80.392 42.7679C80.3174 42.8552 80.2313 42.932 80.136 42.996C79.9128 43.1949 79.6333 43.3195 79.3362 43.3524L79.2248 42.9189C79.2568 42.7394 79.3109 42.5645 79.3859 42.3983C79.4543 42.2571 79.5515 42.1317 79.6711 42.0301C79.9627 41.743 80.2999 41.5062 80.6689 41.3292C80.9995 41.1741 81.3521 41.0711 81.7143 41.024C82.0123 41.0143 82.3092 41.0657 82.5866 41.175Z" fill="#121111"/>
<path fill-rule="evenodd" clip-rule="evenodd" d="M81.9077 53.3821L82.0738 53.5323L82.1195 53.7869C82.0727 54.1482 81.973 54.5007 81.8238 54.8331C81.7973 54.8824 81.8881 54.7049 81.6997 55.0799C81.2192 55.8245 80.5593 56.4364 79.7806 56.8594C79.5217 57.0121 79.2437 57.1299 78.9538 57.2098C78.7181 57.2512 78.4775 57.2564 78.2402 57.2253C78.0682 57.2011 78.1768 57.2595 77.7616 56.9287C78.1604 56.4232 77.8629 56.7075 78.6381 56.2544C79.0573 56.0991 79.4518 55.8839 79.8093 55.6156C80.2108 55.3016 80.5677 54.9344 80.8702 54.5242C80.9377 54.4457 81.1439 54.187 81.2649 54.0036C81.3538 53.8767 81.434 53.7439 81.5049 53.6062L81.6833 53.4209L81.9036 53.3862L81.9077 53.3821Z" fill="#121111"/>
<path fill-rule="evenodd" clip-rule="evenodd" d="M23.3267 10.4878L23.5234 10.6051C23.6643 11.0235 23.5617 10.4609 23.5845 12.5853C23.6064 14.7927 23.5977 14.6841 23.4695 14.8817C23.042 15.3357 22.7961 14.7904 21.7736 15.113C21.4268 15.2215 21.1204 15.4313 20.8939 15.7153C20.6419 16.0467 20.5307 16.4641 20.5845 16.877L20.5886 16.8884V16.8993C20.5918 16.9094 20.6014 16.9482 20.6105 16.9742C20.7048 17.2074 20.8768 17.4008 21.0974 17.5217C21.7754 17.9173 23.011 17.7001 23.4015 17.8046C23.83 17.9962 23.6885 18.2326 23.8706 18.9672C24.0153 19.7421 24.4227 20.4436 25.024 20.9533C25.7997 21.5684 25.791 20.7028 25.6688 23.904C25.64 24.7974 25.671 24.5999 25.5478 24.8983L25.3311 24.9986H25.3302C24.9374 24.833 25.0199 25.1104 24.8456 21.932C23.9331 21.5077 23.1547 20.6034 22.818 18.9663C22.7997 18.875 22.7933 18.8435 22.7851 18.8011C22.0411 18.867 21.2927 18.7385 20.6133 18.4283C20.2428 18.2229 19.9388 17.9157 19.7372 17.5431C19.5878 17.2464 19.5198 16.9152 19.5401 16.5836C19.5649 16.2131 19.6631 15.8513 19.829 15.5191C19.9948 15.1869 20.2251 14.891 20.5064 14.6486C20.7877 14.4062 21.1143 14.2222 21.4674 14.1072C21.8204 13.9922 22.1928 13.9485 22.5629 13.9787C22.6025 13.2168 22.6826 12.4576 22.8029 11.7042C22.9882 10.6009 22.9526 10.7981 23.1031 10.5549L23.3226 10.4882L23.3267 10.4878Z" fill="#121111"/>
<path fill-rule="evenodd" clip-rule="evenodd" d="M32.7025 10.832L32.911 10.9265L33.0146 11.1487C33.0246 11.4548 33.2363 13.2635 33.261 14.2783C33.814 14.2718 34.361 14.3949 34.8579 14.6378C35.1959 14.8337 35.4748 15.117 35.6652 15.458C35.8557 15.7991 35.9507 16.1851 35.9402 16.5756C35.9399 16.7162 35.9282 16.8566 35.9051 16.9954C35.6495 18.4582 34.4099 18.9669 32.9192 18.9916C32.828 18.9916 32.8686 18.9614 32.8193 19.1567C32.7176 19.6708 32.5153 20.1597 32.2239 20.5952C31.9325 21.0308 31.5579 21.4044 31.1215 21.6945C31.0499 21.7401 31.0987 21.5759 31.0042 22.942C30.9093 24.3195 30.9892 23.9727 30.8436 24.3108L30.6269 24.4098H30.6228L30.4038 24.3186C30.2559 23.9992 30.3125 24.2319 30.2591 23.3426C30.188 21.1068 30.2135 21.7041 30.2012 21.538C30.1886 21.458 30.1974 21.3762 30.2265 21.3006C30.2557 21.2251 30.3042 21.1586 30.3673 21.1078C30.7437 20.878 31.0623 20.5649 31.2985 20.1925C31.3026 20.1847 31.3327 20.1345 31.3414 20.1227C31.5321 19.7933 31.679 19.4405 31.7785 19.0732C31.9524 18.4878 31.8214 18.3108 32.1171 18.0571C32.3854 17.8933 32.5277 18.0019 33.2651 17.9476C33.736 17.9484 34.1928 17.7873 34.5591 17.4913C34.7429 17.289 34.8615 17.036 34.8992 16.7652C34.9369 16.4944 34.892 16.2186 34.7703 15.9738C34.4897 15.413 33.8578 15.3318 33.2226 15.3085C32.7586 15.2935 32.4725 15.3792 32.2768 14.9709C32.2416 14.8406 32.2289 14.7053 32.2394 14.5707C32.2183 13.4268 32.2667 12.2826 32.3845 11.1446L32.4908 10.9237L32.7007 10.8325L32.7025 10.832Z" fill="#121111"/>
<path fill-rule="evenodd" clip-rule="evenodd" d="M28.8901 18.1098C28.8587 18.5829 28.8901 18.5474 28.7642 18.7312C28.6427 18.9327 28.4675 19.0964 28.2582 19.2039C28.0094 19.3076 27.7398 19.3519 27.4709 19.3332C27.2021 19.3145 26.9412 19.2334 26.7092 19.0963C26.5344 18.9986 26.5266 18.9968 26.4012 18.7769C26.3555 18.6788 26.3314 18.5944 26.3295 18.5944L26.2839 18.1499C27.2288 18.0537 27.0482 18.1554 27.384 18.2731C27.6993 18.3758 27.7974 18.2467 28.0515 18.2033C28.61 18.0692 28.1907 18.0833 28.8901 18.1098Z" fill="#121111"/>
<path fill-rule="evenodd" clip-rule="evenodd" d="M27.9044 13.4834C28.1485 14.1249 28.0618 13.795 28.0253 15.3395C28.0468 15.8283 27.9957 16.3176 27.8738 16.7914C27.8554 16.9369 27.8025 17.076 27.7196 17.197L27.5371 17.3038H27.533L27.3372 17.2125L27.2004 16.9844C26.917 16.0449 26.9695 15.8122 27.0297 14.4366C27.0023 14.1757 27.0486 13.9123 27.1634 13.6764C27.2975 13.3967 27.209 13.5085 27.6028 13.1503C27.6064 13.1567 27.8985 13.4757 27.9044 13.4834Z" fill="#121111"/>
<path d="M26.0411 13.8179C26.0613 13.3544 25.7958 12.9664 25.4481 12.9512C25.1005 12.9361 24.8022 13.2995 24.782 13.763C24.7618 14.2265 25.0273 14.6145 25.375 14.6296C25.7226 14.6448 26.0209 14.2813 26.0411 13.8179Z" fill="#121111"/>
<path d="M30.4462 14.0102C30.4664 13.5468 30.201 13.1587 29.8533 13.1436C29.5056 13.1284 29.2074 13.4919 29.1872 13.9554C29.167 14.4188 29.4324 14.8068 29.7801 14.822C30.1278 14.8372 30.426 14.4737 30.4462 14.0102Z" fill="#121111"/>
<path fill-rule="evenodd" clip-rule="evenodd" d="M25.1652 21.2928C25.3308 21.3035 25.4957 21.3241 25.6589 21.3544C25.9792 21.5003 26.3221 21.5904 26.6727 21.6208C26.978 21.65 27.129 21.6309 27.3092 21.6537C28.1894 21.7627 27.9599 21.7198 28.2752 21.8239L28.4084 21.9872C28.4084 21.9922 28.35 22.1898 28.3486 22.1948L28.1428 22.3686C27.7847 22.5701 27.3798 22.6738 26.9688 22.6693C26.4799 22.6603 25.9953 22.5745 25.533 22.4152C25.2677 22.3519 25.0373 22.1884 24.8901 21.9589C24.7596 21.755 24.8084 21.9069 24.7194 21.3658C25.3208 21.2663 25.115 21.2896 25.1652 21.2928Z" fill="#121111"/>
<path fill-rule="evenodd" clip-rule="evenodd" d="M23.0632 14.7426C22.5821 14.0708 22.2941 13.2802 22.2304 12.4564C22.1667 11.6326 22.3297 10.8071 22.7018 10.0694C21.1696 9.71991 19.825 8.2571 19.3979 6.76326C22.4549 8.57239 28.1908 3.59354 31.9308 5.66456C33.4151 6.48585 34.0324 8.33421 33.7326 9.95352C35.8981 10.9683 35.2256 12.9394 34.1155 15.0569C33.6808 14.9094 33.2233 14.8404 32.7644 14.8534C32.6645 13.2898 32.8502 11.7225 32.7275 10.1575C31.8974 10.3929 31.0456 10.5439 30.1851 10.6083C28.2387 10.8364 26.0746 10.9126 24.1678 10.3856C23.4192 11.7774 23.0617 13.3459 23.1334 14.9246" fill="#121111"/>
<path fill-rule="evenodd" clip-rule="evenodd" d="M19.7017 6.3437C22.2267 7.64773 26.3236 4.41047 30.1745 4.66462C32.8501 4.83709 34.3056 6.77579 34.3207 9.18674C34.3234 9.98431 34.1176 9.40073 34.8477 10.0673C36.1709 11.4006 35.6913 12.9902 34.8837 14.6876C34.6072 15.2269 34.5223 15.6261 34.009 15.5609C33.6074 15.4145 33.1808 15.3492 32.7538 15.3688C32.1944 15.3108 32.2455 14.8427 32.2264 14.3549C32.1926 13.5204 32.2807 11.6319 32.2528 10.8074C31.8534 10.8916 31.45 10.9554 31.0442 10.9986C26.4395 11.5461 24.6728 10.9028 24.5277 10.8964C24.4319 10.8731 24.3739 10.8581 24.3735 10.8581C24.1925 11.2252 24.0343 11.6031 23.8998 11.9896C23.6154 12.7903 23.4614 13.6314 23.4436 14.4809C23.423 14.9559 23.5134 14.7368 23.3733 15.1352L23.1579 15.246H23.1538L22.9257 15.168L22.8135 14.9499V14.9262L22.7989 14.9166C22.1058 13.9602 21.7591 12.7962 21.816 11.6164C21.8463 11.1881 21.9362 10.7661 22.083 10.3626C21.1601 10.0156 20.3576 9.40842 19.7729 8.61457C19.4215 8.1578 19.1478 7.64633 18.9625 7.10066C18.8968 6.95818 18.8736 6.79972 18.8959 6.64439C18.9227 6.52949 18.9881 6.42727 19.0812 6.35478C19.1743 6.28229 19.2894 6.24391 19.4074 6.24606C19.5127 6.2502 19.6147 6.28405 19.7017 6.3437ZM23.126 9.91815C23.1603 10.0132 23.1603 10.1173 23.126 10.2124C22.8491 10.6982 22.6777 11.2369 22.6231 11.7934C22.5685 12.3499 22.6318 12.9116 22.8089 13.4419C22.8386 13.5332 22.8139 13.5213 22.8486 13.2964C22.9605 12.4708 23.1787 11.6632 23.4979 10.8937C23.8113 10.1691 23.8246 10.0824 24.0668 9.99799C24.1157 9.99799 24.0427 9.98613 24.2037 9.9875C24.9908 10.1871 25.7972 10.3008 26.6087 10.3265C28.3398 10.3478 30.069 10.2015 31.7719 9.88986C32.0676 9.82874 32.36 9.7526 32.648 9.66172C32.7584 9.64432 32.8714 9.66428 32.9692 9.71841C33.067 9.77255 33.1439 9.85778 33.1877 9.96058C33.357 10.4721 33.2274 12.9003 33.2544 14.3604C33.4553 14.3741 33.655 14.402 33.8521 14.4439C33.9036 14.349 34.0077 14.1277 34.0574 14.0283C34.2704 13.6139 34.4334 13.1757 34.5429 12.7229C34.8093 11.5324 34.4749 11.0018 33.8001 10.5711C33.477 10.3849 33.4747 10.4397 33.3173 10.2626C33.0495 9.83875 33.4328 9.87617 33.2183 8.39191C33.1464 7.95721 32.9882 7.54129 32.7531 7.16862C32.518 6.79595 32.2108 6.47405 31.8495 6.22188C28.7546 4.26492 23.7488 8.17929 20.3391 7.63906C20.823 8.48257 21.5691 9.14503 22.4639 9.52575C22.839 9.67085 22.9891 9.61336 23.126 9.91815Z" fill="#121111"/>
<path fill-rule="evenodd" clip-rule="evenodd" d="M42.7108 31.5726C42.7108 31.5726 38.2471 35.9757 28.6832 37.2601C24.7902 37.7825 20.8166 36.5912 17.3261 34.8683C15.6447 34.0374 13.6198 33.0359 12.4166 31.5649C12.8017 30.3936 13.9332 29.3209 14.8617 28.5599C17.1171 26.7133 19.9565 25.2076 22.8953 24.8768C23.3638 25.7356 24.1247 26.3978 25.0398 26.7434C27.7537 27.9503 30.647 27.0222 32.374 24.6774C36.3864 25.1378 40.8588 28.292 42.7108 31.5726Z" fill="#325BD3"/>
<path fill-rule="evenodd" clip-rule="evenodd" d="M40.4896 33.654C37.9037 35.2898 35.0621 36.481 32.0828 37.1782C27.074 38.3665 22.9972 38.4817 15.8052 34.7461C14.4696 34.1199 13.259 33.256 12.2325 32.1967C12.1627 32.1396 12.1051 32.069 12.0631 31.9892C12.0212 31.9094 11.9958 31.8219 11.9884 31.732C12.0683 31.3456 12.2198 30.9775 12.4351 30.6467C12.6235 30.3378 12.836 30.0444 13.0708 29.7692C14.1769 28.5633 15.4471 27.5191 16.8441 26.6671C18.6238 25.5238 20.624 24.7676 22.7149 24.4473C22.8162 24.4144 22.9247 24.4104 23.0282 24.4358C23.1316 24.4612 23.226 24.5149 23.3006 24.5909C23.5461 25.1056 23.9325 25.5401 24.4149 25.8441C26.549 27.2545 29.5404 27.2406 31.7613 24.707C32.1996 24.1738 32.1071 24.1354 32.8405 24.2467C36.5456 24.8261 40.8391 27.5613 43.0513 31.2625C43.0979 31.3262 43.1203 31.4045 43.1145 31.4832C43.1086 31.5619 43.0749 31.636 43.0194 31.6922L43.0153 31.6881C42.238 32.4224 41.3922 33.0807 40.4896 33.654ZM32.018 25.8372C31.3537 26.5302 30.5416 27.0643 29.6421 27.3997C28.7426 27.735 27.7791 27.863 26.8233 27.7741C24.8772 27.5726 23.2072 26.4826 22.6365 25.4993C20.4986 25.8817 18.4719 26.7323 16.7014 27.9902C15.6237 28.7066 14.6427 29.5586 13.7824 30.5254C13.5044 30.8542 13.2728 31.2196 13.0943 31.6115C13.5666 32.1052 14.097 32.54 14.6739 32.9062C16.3929 33.9439 18.1995 34.8289 20.0731 35.551C23.7514 36.9232 26.5094 37.0916 28.9651 36.7292C33.203 36.0902 37.8695 34.6261 41.4617 32.1133C41.7811 31.8922 42.0888 31.6546 42.3836 31.4016C40.3786 28.3296 36.3323 25.6374 32.6148 25.1526C32.4299 25.3927 32.2306 25.6213 32.018 25.8372Z" fill="#325BD3"/>
<path fill-rule="evenodd" clip-rule="evenodd" d="M35.3858 1.12866C39.915 1.44941 48.3106 2.47271 52.6391 4.57293C55.0962 5.70552 57.1668 7.53442 58.5942 9.83284C59.111 10.713 59.5003 11.6621 59.7505 12.6517C60.6502 16.3854 59.456 19.9148 57.1581 23.0277C55.7689 24.7981 54.2454 26.459 52.6013 27.9956C50.2777 30.1768 47.7994 32.1872 45.1859 34.0111C42.113 36.1607 42.1682 35.8477 42.8432 35.8112C44.1948 35.7306 45.5493 35.9119 46.8322 36.3452C48.6695 36.9533 49.2939 38.6895 48.5992 40.1265C46.7864 43.8748 37.9245 43.1125 36.36 40.0084C36.2617 39.8203 36.1901 39.6195 36.1472 39.4116C29.6689 40.047 21.4901 41.6874 10.6478 35.9178C7.84753 34.4106 5.36023 32.7911 3.51617 30.2197C2.81685 29.2695 2.21639 28.2504 1.72411 27.1783C-0.0185051 23.3859 -0.310273 19.0863 0.90404 15.0933C4.8154 2.40195 22.1782 0.166266 35.3858 1.12866ZM40.6768 36.3467C40.7479 36.0235 40.6662 36.2268 42.1765 35.2325C47.3769 31.8669 55.9149 24.9742 58.1994 19.5475C58.8212 18.1494 59.141 16.6357 59.1378 15.1055C59.1058 13.7675 58.805 12.4496 58.2535 11.2301C57.7019 10.0106 56.9108 8.91449 55.9271 8.00689C53.867 6.09028 51.8754 5.16277 49.1781 4.36053C46.082 3.45731 41.6704 2.80791 38.7093 2.47112C28.8209 1.36783 14.7194 1.7023 7.00501 8.00698C4.68263 9.84587 2.94117 12.3167 1.99022 15.1222C1.03928 17.9277 0.919366 20.9482 1.64493 23.8202C2.89077 28.6268 5.43264 31.5777 9.14501 33.8667C17.0813 38.7036 23.937 39.641 32.4344 38.7976C36.6792 38.3643 36.7135 38.2253 37.0105 38.5813C37.0834 38.6815 37.1152 38.8058 37.0993 38.9287L37.0968 39.0022L37.0969 39.0127C37.0177 41.2807 44.6572 43.1853 47.4999 40.32C48.5204 39.1019 48.1048 37.7595 46.9674 37.1986C46.081 36.843 45.1502 36.6103 44.2008 36.507C43.1467 36.4304 42.0873 36.4815 41.0455 36.6592L41.0456 36.6647C40.9999 36.6711 40.9534 36.6677 40.9092 36.6547C40.8649 36.6418 40.824 36.6194 40.789 36.5893C40.7541 36.5592 40.726 36.522 40.7067 36.4801C40.6873 36.4383 40.6772 36.3928 40.6768 36.3467Z" fill="#121111"/>
<path fill-rule="evenodd" clip-rule="evenodd" d="M74.1479 61.2636C74.3758 61.4295 74.6196 61.5724 74.8757 61.6902L75.1636 61.8376C75.6423 62.1201 76.1677 62.3147 76.7149 62.4121C77.2368 62.509 77.7691 62.5365 78.2982 62.4937C78.9239 62.4424 79.5433 62.3313 80.1479 62.162C80.3639 62.0989 80.5728 62.0136 80.7712 61.9074L81.0189 61.8618L81.2197 61.9736H81.222L81.2676 62.2017L81.1485 62.4239C80.9409 62.6055 80.7163 62.7667 80.4778 62.9053C79.8908 63.2337 79.2419 63.4366 78.5724 63.5012C77.6076 63.6049 76.6318 63.5059 75.7075 63.2105C75.3323 63.0858 74.9721 62.9199 74.6334 62.7159L74.4682 62.5973C74.1586 62.3388 73.8943 62.0303 73.6862 61.6847L73.625 61.4406L73.7053 61.2403L73.9097 61.1801L74.1479 61.2636Z" fill="#121111"/>
<path fill-rule="evenodd" clip-rule="evenodd" d="M75.4011 62.1531C75.5558 62.4479 75.4955 62.2225 75.6206 63.0013C75.7442 63.8763 75.7725 64.7621 75.705 65.6431C75.7158 65.7659 75.6899 65.8892 75.6306 65.9972C75.4025 66.3248 75.1953 66.239 74.6268 66.2646C72.9896 66.3494 71.3592 66.5347 69.7447 66.8194C68.9727 66.9595 69.2884 66.9631 68.8914 66.9107L68.7327 66.7396C68.7327 66.7332 68.7568 66.5114 68.7578 66.5032L68.9403 66.3326C70.2558 65.7486 71.6659 65.4069 73.1029 65.3238C74.8148 65.1869 74.6775 65.2713 74.6802 65.2033C74.6802 65.112 74.6861 64.7228 74.687 64.4733C74.6728 63.9815 74.7055 63.4896 74.7847 63.0041C74.7879 62.9817 74.8805 62.3963 74.8814 62.3776L74.9964 62.1554L75.1939 62.0614L75.4011 62.1531Z" fill="#121111"/>
<path fill-rule="evenodd" clip-rule="evenodd" d="M90.8467 43.6136C91.0407 43.7156 91.2288 43.8283 91.4102 43.9512C93.7286 45.6449 93.583 48.4715 91.2432 50.1036C90.5536 50.5836 89.7796 50.9292 88.9619 51.1224C88.981 52.9734 88.6982 54.815 88.1246 56.5749C87.6725 57.9969 86.9741 59.3285 86.0614 60.5089C86.0659 60.5664 86.0956 62.9244 86.2279 64.9831C87.9274 65.4569 89.5944 66.0406 91.2181 66.7306C91.7515 66.982 91.616 66.8899 91.8296 67.1253L91.8232 67.3667L91.6439 67.5314C91.5946 67.5314 91.3468 67.5268 91.3961 67.5268C89.5823 66.8367 87.7222 66.2752 85.8296 65.8464C85.7389 65.8431 85.6501 65.8199 85.5695 65.7784C85.3213 65.6191 85.3236 65.449 85.2957 65.1483C85.189 64.1468 85.0822 62.7236 85.0366 60.7813C85.0443 59.976 85.0315 60.1968 85.4372 59.6406L85.6096 59.4002C86.0547 58.7543 86.4333 58.0652 86.7398 57.3433C87.6124 55.2467 88.0173 52.985 87.9261 50.7159C87.9222 50.6029 87.9556 50.4918 88.0212 50.3996C88.0868 50.3075 88.1808 50.2396 88.2889 50.2062C88.6641 50.15 89.0329 50.0569 89.3899 49.9284C90.8696 49.3174 92.1202 48.3378 92.0362 46.7454C92.0362 46.7308 92.0299 46.6747 92.0289 46.6715C91.9811 46.2102 91.8174 45.7686 91.5531 45.3875C91.2644 44.9628 90.8859 44.6067 90.4443 44.3445C89.8839 43.9924 89.2385 43.7987 88.5768 43.7842L88.3518 43.6929L88.2519 43.4808L88.3372 43.2618C88.5918 43.1386 88.5197 43.1527 88.7351 43.1468C89.4665 43.1277 90.1915 43.288 90.8467 43.6136Z" fill="#121111"/>
<path fill-rule="evenodd" clip-rule="evenodd" d="M70.2445 35.5105C71.57 36.2049 72.8412 36.9957 74.3163 37.3461C77.606 38.1263 81.4237 36.8145 83.8803 34.5719C84.238 38.2367 84.9657 42.3696 88.9248 43.3643C89.1863 41.0884 88.9152 38.3818 87.9023 36.2971C86.7443 33.9208 84.2398 32.1655 81.6943 31.5779C79.5237 31.059 77.2502 31.1698 75.1404 31.8973C74.2734 32.2253 73.5051 32.8062 72.6048 33.0553C72.2307 33.1589 71.6955 32.9878 71.7543 32.505C71.8298 31.9748 72.097 31.4905 72.5054 31.144C73.7745 30.1938 75.2398 29.5391 76.7943 29.2276C79.083 28.8046 82.6684 29.2618 84.7308 30.4139C86.7986 31.6781 88.4674 33.5006 89.5449 35.6716C90.4889 35.7172 91.0474 35.8792 91.8454 35.2176C92.8009 34.425 92.3154 32.7537 88.9563 32.343C89.5848 32.1491 90.1844 31.8717 90.739 31.5181C91.319 31.2302 91.8067 30.7854 92.1466 30.2341C92.7479 29.0291 91.9052 27.8679 90.6285 27.7319C89.2871 27.5891 87.8019 28.5843 86.8958 29.4991C87.5569 28.4633 88.3928 27.5161 88.7642 26.3221C89.2424 24.7926 88.584 23.7587 87.0623 24.5253C85.85 25.1353 85.0757 26.5014 84.3411 27.5855C84.7901 26.784 85.1308 25.9265 85.354 25.0354C85.6342 23.6693 85.3905 20.8258 83.2342 21.4851C81.4068 22.0445 80.4012 24.1456 79.8185 25.9566C79.9686 24.5773 80.5399 21.3053 79.8865 19.963C79.8043 19.7667 79.6757 19.5933 79.5117 19.4578C79.3477 19.3222 79.1532 19.2285 78.945 19.1848C78.7368 19.141 78.521 19.1485 78.3163 19.2065C78.1116 19.2646 77.9241 19.3715 77.7699 19.5181C77.5461 19.7177 77.3503 19.9465 77.1876 20.1984C76.0693 21.8866 76.0588 24.0078 75.9101 25.9543C75.5907 24.5855 75.165 23.0342 74.1028 22.0304C72.4775 20.4982 71.127 22.5966 71.0211 24.1552C70.9185 25.6878 71.5121 27.0731 71.9966 28.4875C71.1233 27.21 70.4864 25.3233 69.1422 24.4322C67.7346 23.4986 66.6122 24.8948 66.6236 26.3198C66.6372 27.9829 67.8906 29.6597 68.7904 31.0052C67.7241 30.0106 66.3452 28.6048 64.7515 28.6586C63.6446 28.696 62.4865 31.1225 64.6442 33.476C66.1235 35.0925 68.1338 35.1185 70.1277 35.296" fill="#121111"/>
<path fill-rule="evenodd" clip-rule="evenodd" d="M89.1213 24.3106C89.7519 25.2551 89.3312 26.5609 88.7928 27.5574C88.8069 27.5519 88.8548 27.5314 88.8717 27.5241C92.4567 26.1247 94.175 29.7918 91.6769 31.516C91.4615 31.6794 90.8834 32.043 90.643 32.1795C90.9516 32.2802 91.2499 32.4099 91.5341 32.5668C92.9029 33.3142 93.3678 34.8541 91.8754 35.8374C91.1531 36.301 90.6056 36.2563 89.7697 36.2024C89.4503 36.1819 89.4503 36.1947 89.2938 36.1217C88.9771 35.9127 89.2331 35.967 88.3726 34.6397C87.4687 33.2814 86.3176 32.1051 84.9793 31.172C82.5396 29.5965 78.4299 29.262 76.2503 29.883C75.1509 30.1839 74.1078 30.6616 73.1618 31.2975C72.9027 31.4508 72.681 31.66 72.513 31.9098C72.3887 32.1038 72.3055 32.3212 72.2684 32.5486C72.3173 32.566 72.3697 32.5718 72.4213 32.5655C73.0506 32.3513 73.6569 32.0748 74.2313 31.7401C78.4445 29.6307 85.5282 30.6847 88.305 35.9506C88.7795 36.9067 89.1111 37.9273 89.2892 38.9798C89.5356 40.3526 89.5914 41.7529 89.4548 43.141C89.4179 43.4499 89.4338 43.485 89.3335 43.657C89.2689 43.7458 89.1775 43.8116 89.0728 43.8444C88.968 43.8773 88.8554 43.8756 88.7517 43.8395C88.3859 43.7445 88.0292 43.6172 87.6859 43.459C85.0263 42.1778 84.1831 39.6491 83.6907 36.7299C83.6501 36.4561 83.5511 35.7644 83.5237 35.4382C81.4944 37.0039 79.0189 37.8821 76.4565 37.9454C73.2553 37.9655 71.4006 36.3868 70.0947 35.7886C69.8369 35.4738 70.2225 35.685 68.3682 35.4692C66.3077 35.2356 64.827 34.5991 63.7087 32.8306C63.5702 32.6036 63.4498 32.3661 63.3487 32.1201C63.1403 31.6215 63.0433 31.0833 63.0645 30.5433C63.1101 29.5048 63.7074 28.3075 64.7796 28.2806C65.5826 28.2914 66.3636 28.5444 67.0203 29.0065C66.4546 27.9275 66.0134 26.8018 66.2712 25.6032C66.6462 24.2198 67.4702 23.6919 68.2569 23.6946C69.2237 23.7046 69.9793 24.4821 70.5775 25.2395C70.556 25.1647 70.5359 24.6788 70.5318 24.6295C70.4994 22.0183 72.4454 20.0125 74.2824 21.5369C74.8512 22.0468 75.3054 22.6715 75.6152 23.3697C75.7295 22.0615 76.1719 20.8033 76.9014 19.7113C77.5251 18.8253 78.466 18.3754 79.446 18.818C80.8422 19.5252 80.7382 21.343 80.6698 22.9075C80.8112 22.7011 80.9645 22.5031 81.1288 22.3144C82.7873 20.5249 84.9879 20.2516 85.7052 22.3664C85.9409 23.1152 86.0167 23.9052 85.9279 24.6852C86.3219 24.3253 86.7854 24.0499 87.2898 23.8757C88.1964 23.5933 88.8101 23.8493 89.1213 24.3106ZM78.8456 28.5598C80.8701 28.5909 83.3481 29.0262 85.076 30.0199C86.5669 30.9465 87.8625 32.1555 88.89 33.5789C89.2628 34.0834 89.5937 34.6175 89.8796 35.1758C90.1967 35.2132 90.5171 35.2132 90.8342 35.1758C91.1691 35.0955 91.4679 34.9063 91.6837 34.6379L91.6906 34.6301L91.6992 34.6146L91.702 34.6068L91.7152 34.584L91.718 34.5767L91.7225 34.5694V34.5621L91.7271 34.5544C91.7367 34.5243 91.7426 34.5087 91.749 34.4887V34.4814L91.754 34.4672V34.4595L91.7563 34.4526V34.4376L91.759 34.4303L91.7622 34.355V34.3472V34.3312V34.3235V34.3157V34.3075V34.2993C91.7567 34.2715 91.7531 34.2537 91.7467 34.224L91.743 34.2154V34.2067V34.198L91.7394 34.1889V34.1802L91.7243 34.1442C91.712 34.0766 91.5537 33.6747 90.7014 33.2992C90.1515 33.079 89.5747 32.9331 88.9862 32.8652C88.8839 32.8662 88.7835 32.8378 88.6968 32.7835C88.6102 32.7291 88.5409 32.6511 88.4971 32.5586C88.4477 32.4517 88.4366 32.331 88.4656 32.2168C88.4947 32.1026 88.5622 32.002 88.6568 31.9317C88.817 31.8309 89.051 31.7948 89.5639 31.5703C90.0859 31.3422 91.31 30.65 91.6011 30.1636C91.7189 30.0082 91.7959 29.8258 91.8252 29.6331C91.8544 29.4403 91.8349 29.2432 91.7685 29.0599C91.7021 28.8766 91.5909 28.7128 91.445 28.5834C91.2991 28.4541 91.1231 28.3633 90.9332 28.3194C90.2189 28.1587 89.47 28.2864 88.8494 28.6748C88.2671 28.9914 87.7346 29.3919 87.2688 29.8634C87.1849 29.948 87.074 30.0008 86.9554 30.0126C86.8362 30.0238 86.7167 29.9938 86.6168 29.9278C86.5174 29.8612 86.4444 29.7621 86.4102 29.6475C86.3761 29.5329 86.383 29.41 86.4297 29.2999C86.824 28.548 88.7111 26.4624 88.3721 25.1022L88.3602 25.0926C88.3588 25.0845 88.357 25.0764 88.3548 25.0684L88.3511 25.0607V25.0529L88.347 25.0452V25.0374L88.3429 25.0297V25.0224C88.2781 24.8969 88.2694 24.8855 88.2672 24.8818L88.2631 24.8777V24.8736L88.2589 24.8704V24.8668L88.2548 24.8636V24.8604L88.2507 24.8572L88.2485 24.8545L88.2443 24.8517V24.849L88.2402 24.8467V24.844H88.2361H88.232V24.8417H88.2279V24.8394L88.2197 24.8353L88.2033 24.828C88.142 24.805 88.0766 24.7948 88.0112 24.7979C87.4669 24.8763 86.9633 25.131 86.5776 25.5229C84.8688 27.2303 84.9902 28.3103 84.1831 28.0808C84.0746 28.0398 83.9831 27.9635 83.9233 27.8642C83.8635 27.7648 83.839 27.6482 83.8536 27.5332C83.9285 27.1938 84.7954 25.856 84.9272 24.6094C85.0085 23.8338 84.9473 22.569 84.34 22.0707C83.8381 21.6738 82.9356 22.1296 82.4474 22.5183C81.528 23.1964 80.8733 24.5866 80.4918 25.6666C80.2938 26.2183 80.323 26.2995 80.0415 26.4491C79.9303 26.4946 79.8069 26.5004 79.692 26.4656C78.8912 26.1411 79.7134 25.2738 79.6984 21.588C79.6956 20.9547 79.5898 20.0284 79.0139 19.7561C78.8808 19.6944 78.732 19.6747 78.5873 19.6995C78.2306 19.8025 77.9269 20.0382 77.7387 20.3583C76.6582 21.958 76.598 23.6668 76.4556 25.7319C76.4337 26.0608 76.4433 26.1827 76.243 26.3679C76.1536 26.4373 76.0435 26.4747 75.9304 26.4741C75.8172 26.4736 75.7075 26.435 75.6188 26.3647C75.2994 26.0604 75.4961 25.7793 74.8432 24.0596C74.8162 24.0017 74.7273 23.7694 74.646 23.6198C74.3577 23.0075 73.6701 22.0173 72.9884 22.0018C72.8036 22.0246 72.6265 22.09 72.4713 22.193C72.3161 22.2959 72.187 22.4335 72.0941 22.595C70.9055 24.3357 71.7702 26.2908 72.4308 28.2865C72.4774 28.3796 72.4918 28.4855 72.4717 28.5877C72.4516 28.6898 72.3983 28.7824 72.32 28.851C72.2408 28.92 72.1405 28.9599 72.0355 28.9642C71.9306 28.9685 71.8273 28.9369 71.7428 28.8747C71.14 28.3454 70.0281 25.0949 68.5598 24.6345C68.4253 24.5852 68.2805 24.5707 68.1388 24.5922C67.9972 24.6137 67.8633 24.6707 67.7495 24.7577C65.605 26.7056 69.1306 30.4155 69.2123 30.99C69.218 31.0593 69.2056 31.129 69.1763 31.1921C69.147 31.2553 69.1018 31.3097 69.0451 31.3501C68.9885 31.3906 68.9223 31.4156 68.853 31.4228C68.7838 31.4299 68.7139 31.419 68.6502 31.391C68.2313 31.167 66.6088 29.064 64.8485 29.0531C64.7227 29.0439 64.5972 29.0759 64.4912 29.1443C63.3355 30.03 63.7329 32.3223 65.2523 33.5798C66.4934 34.73 68.3435 34.8277 69.9889 34.9728C70.2252 34.9942 70.1344 34.9677 70.395 35.1046L70.4451 35.2588C72.1676 36.1796 73.6067 36.9972 75.3565 37.1661C77.1324 37.3166 78.9171 37.004 80.5361 36.2585C81.6596 35.7611 82.6955 35.0859 83.6041 34.2587C83.6785 34.1909 83.7739 34.1508 83.8744 34.1449C83.9748 34.139 84.0743 34.1677 84.1561 34.2263C84.4755 34.496 84.2319 34.5411 84.6517 36.8526C84.8264 37.913 85.1367 38.9465 85.5747 39.9279C86.2792 41.3049 87.022 42.149 88.4976 42.7148C88.6079 41.0938 88.4356 39.4659 87.9884 37.9039C87.7619 37.1163 87.4167 36.368 86.9645 35.6846C85.1891 33.1422 82.0322 31.5279 78.0284 31.8199C75.2533 32.0325 74.5206 32.9191 73.1353 33.4424C72.9382 33.5407 72.7226 33.5965 72.5025 33.6061C72.2824 33.6157 72.0627 33.5789 71.8578 33.4981C71.7255 33.4386 71.6063 33.3536 71.5069 33.2481C71.3645 33.0906 71.2773 32.891 71.2587 32.6795C71.2581 32.2759 71.3646 31.8793 71.5671 31.5302C71.8815 30.9826 72.3488 30.5386 72.9117 30.2526C73.8053 29.6981 74.7685 29.2648 75.7762 28.9641C76.7718 28.6692 77.8076 28.5328 78.8456 28.5598Z" fill="#121111"/>
<path fill-rule="evenodd" clip-rule="evenodd" d="M65.4443 65.7509C65.5858 66.0456 65.5356 65.8471 65.6031 66.5042C65.7521 67.9136 65.8208 69.3303 65.8089 70.7475C65.9198 76.3012 65.9631 75.8728 66.0037 79.789C65.9581 83.551 66.0037 83.154 65.6387 83.3383H65.6364L65.4156 83.2425C65.281 82.9382 65.3179 83.1111 65.2641 82.4669C64.9324 78.4868 64.9703 77.9498 64.8927 75.5598C64.7307 68.7157 64.7216 68.843 64.7973 67.5696C64.8347 66.9353 64.915 66.0219 64.9214 65.9726L65.0259 65.7499L65.234 65.6559H65.2381L65.4443 65.7509Z" fill="#325BD3"/>
<path fill-rule="evenodd" clip-rule="evenodd" d="M94.9992 64.4493L95.205 64.5506L95.3022 64.7737C95.5221 66.9241 95.445 75.6271 95.4309 76.1039C95.4182 78.2196 95.2481 80.3314 94.9221 82.4219C94.8021 83.2491 94.8222 83.1063 94.6799 83.3509L94.4517 83.4207H94.4476C94.0329 83.1729 94.2067 83.5293 94.3075 80.0762C94.5813 70.1751 94.2122 69.2329 94.6224 65.1835C94.6849 64.6565 94.6411 64.8184 94.783 64.5365L94.9947 64.4489L94.9992 64.4493Z" fill="#325BD3"/>
<path fill-rule="evenodd" clip-rule="evenodd" d="M80.3017 79.9766C80.5882 80.5241 80.4696 80.1901 80.5868 81.5845C80.6553 82.0226 80.6186 82.4707 80.4796 82.8917L80.3528 83.145L80.1776 83.2549H80.1735C79.9403 83.1358 80.0183 83.2093 79.839 82.9228C79.7013 82.6127 79.6149 82.2823 79.583 81.9445C79.5776 81.8847 79.4681 80.5889 79.4941 80.4187C79.5167 80.3168 79.5519 80.2181 79.599 80.1249C79.6903 79.9346 79.6049 80.0482 79.9786 79.6622C79.9836 79.6663 80.2957 79.9698 80.3017 79.9766Z" fill="#121111"/>
<path fill-rule="evenodd" clip-rule="evenodd" d="M40.5225 77.9611C41.6381 79.1784 40.6767 78.1098 42.4064 80.3597C45.071 83.4327 44.9278 83.1074 44.8009 83.5418L44.5892 83.633L44.3378 83.5591C44.5372 83.5591 43.1971 83.1941 41.0376 80.2767C40.7311 79.8926 40.464 79.4789 40.24 79.0415C40.1321 78.7908 40.0429 78.5325 39.9731 78.2686C39.9873 77.9456 39.9275 78.0861 40.0949 77.8388H40.099L40.3076 77.8292L40.5225 77.9611Z" fill="#121111"/>
<path fill-rule="evenodd" clip-rule="evenodd" d="M42.7884 74.1563C43.0532 74.456 43.2971 74.7736 43.5184 75.1068C44.8558 77.5145 45.1117 77.7623 45.6337 78.6233C46.564 80.2991 46.4043 79.9045 46.4819 80.2855L46.3765 80.489L46.1516 80.5346L45.9211 80.4155C45.7218 80.2097 45.2304 79.7092 44.9561 79.3542C44.0885 78.1477 43.3028 76.8844 42.6045 75.5726C42.45 75.2081 42.3258 74.8315 42.2331 74.4465C42.2468 74.1322 42.2002 74.2435 42.3672 74.0213L42.5776 74.0176L42.7884 74.1563Z" fill="#121111"/>
<path fill-rule="evenodd" clip-rule="evenodd" d="M48.7124 75.8144L48.4751 75.7071C48.0871 75.3672 47.725 74.9987 47.3919 74.6048C46.745 73.7429 46.2022 72.8076 45.7749 71.8183C45.5128 71.3101 45.3871 70.7425 45.4099 70.1712C45.4099 70.0393 45.3944 70.1182 45.4856 69.8253L45.6472 69.6939H45.6513L45.8529 69.7427C46.0532 69.9608 46.0208 69.9166 46.0701 70.0165C46.1021 70.0776 46.4657 70.7338 46.4986 70.8465C47.2108 72.7345 47.6703 73.0858 48.717 74.8872C49.0231 75.3996 48.9451 75.2002 49.0309 75.5461L48.9355 75.7541V75.7564L48.7124 75.8144Z" fill="#121111"/>
<path fill-rule="evenodd" clip-rule="evenodd" d="M53.0765 69.8337H53.0807L53.2372 70.0043C53.2463 71.1153 50.1573 76.9132 50.521 85.9173C50.5502 87.3048 50.7363 89.3288 50.8007 90.1191C51.3756 95.6313 51.5868 95.2809 51.4659 95.8389C51.4618 95.8389 51.2697 95.9758 51.2665 95.9758C51.2633 95.9758 51.0343 95.9266 51.0311 95.9256L50.8883 95.7221C50.3039 93.3103 49.8826 90.8619 49.6271 88.3935C49.3947 85.5536 49.4354 82.6979 49.7485 79.8657C49.8808 78.6019 50.2504 76.7991 50.2586 76.7494C50.6492 74.7393 51.2966 72.7878 52.185 70.9429C52.7061 69.8533 52.6381 70.0089 52.8452 69.8282L53.0765 69.8337Z" fill="#121111"/>
<path fill-rule="evenodd" clip-rule="evenodd" d="M39.5511 84.8982L39.714 85.067C39.7272 85.8554 39.5771 84.8334 38.8575 88.7925C38.2375 92.1725 36.5762 97.1076 37.7657 102.176C38.1023 103.679 38.764 105.091 39.7044 106.312C40.6755 107.535 41.9575 108.475 43.4162 109.034C44.6951 109.527 46.0693 109.724 47.4355 109.61C48.5072 109.486 49.5557 109.21 50.5491 108.789C53.4606 107.607 55.2797 104.974 56.7868 102.264C58.3381 99.4177 57.8987 99.9219 58.2628 99.5997L58.5042 99.6084L58.6689 99.7909C58.6548 100.11 58.6908 99.9575 58.4951 100.401C57.5086 102.604 56.0996 105.503 54.3809 107.251C53.3145 108.394 52.0116 109.291 50.5631 109.878C49.1146 110.466 47.5553 110.731 45.9941 110.653C44.0254 110.521 42.14 109.809 40.5761 108.606C39.0121 107.403 37.8398 105.763 37.2072 103.894C36.4319 101.587 36.152 99.1421 36.3859 96.7193C36.808 92.4098 37.319 91.5392 37.8204 89.4157C37.9441 88.943 38.4775 86.3724 39.135 85.0647L39.3106 84.8977H39.5461L39.5511 84.8982Z" fill="#121111"/>
<path fill-rule="evenodd" clip-rule="evenodd" d="M62.9581 67.8454L63.0708 68.0567L62.9942 68.2848C62.7528 68.4167 62.8066 68.4007 62.6643 68.4217C60.7155 68.6996 58.5738 70.1195 57.0133 71.3245C54.3213 73.3987 52.6856 75.7047 50.7168 78.399C50.7131 78.4022 50.5165 78.5391 50.5128 78.5419L50.2847 78.5213L50.2806 78.519L50.1437 78.3365C50.1638 78.0413 50.1514 78.1084 50.1957 78.0089C50.9118 76.3713 51.9068 74.8703 53.1364 73.573C54.3825 72.157 55.7902 70.892 57.3309 69.8038C58.2036 69.1691 59.1587 68.6562 60.1698 68.2794C60.2186 68.2629 60.9797 68.0024 61.0523 68.0024C61.5987 67.8647 62.1582 67.7854 62.7213 67.7661L62.9581 67.8454Z" fill="#121111"/>
<path fill-rule="evenodd" clip-rule="evenodd" d="M96.7995 68.5868C99.8401 69.4136 103.102 70.7117 105.563 72.7485C107.619 74.4066 109.045 76.1513 110.51 79.437C113.405 85.604 114.461 91.8996 114.962 98.6917C115.047 100.175 115.351 101.794 115.609 104.017C115.737 105.072 115.767 106.135 115.697 107.195L115.587 107.416L115.359 107.498H115.354L115.138 107.39L115.054 107.162C115.148 104.999 114.548 102.485 114.283 100.739C113.808 97.8535 113.765 94.202 112.595 88.9379C112.069 86.4007 111.305 83.9187 110.313 81.5249C109.46 79.5369 108.279 76.9457 106.81 75.341C106.394 74.8775 105.95 74.4397 105.481 74.0301C103.166 71.9463 99.7447 70.2846 96.6106 69.1936L96.4281 69.0344C96.4281 69.0276 96.4044 68.8022 96.4048 68.7958L96.5577 68.6174L96.7995 68.5868Z" fill="#121111"/>
<path fill-rule="evenodd" clip-rule="evenodd" d="M101.715 109.685C101.512 109.451 101.565 109.574 101.206 108.756C100.978 108.23 101.05 108.442 100.271 105.76C100.151 105.401 100.113 105.019 100.16 104.643L100.379 104.253L100.769 104.472C100.921 104.694 101.055 104.929 101.169 105.173C101.196 105.244 101.926 107.72 101.996 108.045C102.033 108.205 102.108 108.753 102.113 108.832C102.165 109.425 102.174 109.232 102.103 109.582L101.937 109.732C101.931 109.732 101.721 109.686 101.715 109.685Z" fill="#121111"/>
<path fill-rule="evenodd" clip-rule="evenodd" d="M60.7765 109.294C59.7927 100.945 58.0461 92.2607 62.0709 84.4206C66.1244 83.4852 90.6829 83.3803 98.664 84.0556C101.464 92.5947 99.5611 101.289 97.908 109.844" fill="#325BD3"/>
<path fill-rule="evenodd" clip-rule="evenodd" d="M98.2146 83.5049C98.7977 83.5423 98.8 83.5455 98.9474 83.6272C99.1609 83.7924 99.1527 83.9037 99.2836 84.3039C101.842 92.6751 100.033 100.912 98.3049 109.505C98.2055 109.988 98.2593 109.853 98.085 110.113L97.8473 110.164H97.8432L97.641 110.027C97.5699 109.685 97.5607 109.944 97.7391 108.98C99.2234 100.828 98.9889 101.33 99.0377 101.33C99.8754 95.2033 99.9877 90.2988 98.2789 84.542C98.2734 84.542 98.0229 84.522 96.3585 84.4207C88.9139 84.0958 81.4032 84.0835 74.3469 84.2117C72.7933 84.2404 63.8983 84.4485 62.4195 84.8751C61.2632 87.2469 60.5308 89.8027 60.2554 92.4269C59.4546 99.7227 61.3158 108.511 61.0233 109.492L60.8162 109.611H60.8139L60.5857 109.544L60.4644 109.335C59.2826 100.845 57.5059 92.0819 61.5184 84.3764C61.7638 83.8745 61.7853 83.9261 62.9967 83.7449C70.3628 82.9063 91.85 82.9665 98.2146 83.5049Z" fill="#325BD3"/>
<path fill-rule="evenodd" clip-rule="evenodd" d="M43.6097 43.504C44.5108 43.5231 45.4544 44.5904 45.4055 45.7069C45.3467 47.0606 43.5376 47.8513 42.3745 46.1321C42.2018 45.8882 42.0993 45.6015 42.0782 45.3034C42.0571 45.0052 42.1183 44.707 42.255 44.4412C42.308 44.3435 42.3727 44.2527 42.4475 44.1706C42.8331 43.8115 42.7154 44.0022 42.8075 43.8174C42.914 43.715 43.0397 43.6345 43.1773 43.5807C43.315 43.527 43.4619 43.5009 43.6097 43.504ZM43.2903 44.2828L43.2597 44.3499C43.1773 44.4431 43.1183 44.5547 43.0877 44.6752V44.6857L43.0831 44.6958C43.0744 44.731 43.0686 44.7668 43.0658 44.803L43.0635 44.8126V44.8605V44.8701V44.8983V44.9079V44.9175V44.9266V44.9362V44.9453V44.9563V44.9659V44.9755V44.9846V44.9942L43.069 45.022V45.0316C43.0701 45.04 43.0718 45.0484 43.074 45.0567V45.0599L43.0772 45.079V45.0886C43.0831 45.1215 43.0854 45.1342 43.0945 45.1726V45.1753C43.0945 45.1876 43.1027 45.2209 43.1046 45.2351L43.1082 45.2451L43.1114 45.2652L43.1155 45.2752V45.2857L43.1196 45.2958V45.3058L43.1237 45.3163V45.3263C43.3222 45.867 43.7023 46.0951 43.9569 46.0805C44.0601 46.071 44.1582 46.0315 44.2393 45.9669L44.2612 45.9478V45.9437C44.2715 45.9335 44.2811 45.9227 44.29 45.9113V45.9067L44.2945 45.9026L44.2991 45.8939L44.3036 45.8894L44.3173 45.8606L44.3219 45.8556V45.8501L44.3265 45.8447V45.8396V45.8337C44.3306 45.8232 44.3319 45.8205 44.3379 45.8045V45.7981L44.3424 45.7853V45.7776V45.7707L44.3452 45.7639V45.7566L44.3479 45.7493V45.742L44.3506 45.7347V45.7192L44.3534 45.7119V45.6786V45.6704V45.653V45.6443V45.6078V45.5983V45.5887V45.5791V45.5691V45.5595V45.5494L44.3502 45.5294V45.5193C44.2913 45.0019 43.7949 44.1218 43.2921 44.2828H43.2903Z" fill="#121111"/>
<path fill-rule="evenodd" clip-rule="evenodd" d="M45.4438 51.1767C45.6914 51.1882 45.937 51.226 46.1766 51.2894C46.5387 51.3607 46.8782 51.5188 47.1658 51.7502C47.4534 51.9815 47.6806 52.2792 47.8279 52.6176C48.3225 53.7159 47.5504 54.7703 46.0411 54.4984C45.4256 54.4018 44.8448 54.1507 44.3529 53.7684C43.2455 52.77 43.7976 51.1681 45.4438 51.1767ZM45.6948 52.0245C45.512 52.0585 45.3347 52.1171 45.1678 52.1988C45.1354 52.2132 45.1039 52.2295 45.0733 52.2476C44.8908 52.3503 44.8977 52.3658 44.8534 52.4146C44.8487 52.4203 44.8442 52.4262 44.8402 52.4324L44.8379 52.4347V52.4379L44.8333 52.4429V52.4456V52.4484V52.4511L44.8288 52.4566V52.462V52.4648V52.4675L44.8265 52.4703V52.473V52.4757V52.4817V52.4844V52.4903V52.4935V52.5027V52.5059V52.5236V52.5273V52.5556V52.5606V52.5793V52.5848V52.5953V52.6008V52.6122L44.8301 52.624V52.6304L44.8338 52.6432V52.6496C44.8388 52.6669 44.8443 52.6893 44.8484 52.7066L44.852 52.7135L44.858 52.7326L44.8616 52.7395L44.8653 52.7522L44.8694 52.7586V52.765L44.873 52.7714V52.7773L44.8849 52.7965V52.8029L44.9086 52.8412L44.9146 52.8476L44.9223 52.8604L44.9282 52.8668L44.9323 52.8732L44.9383 52.8795L44.9424 52.8859L44.9542 52.8992L44.9584 52.9055C45.3781 53.3513 46.5097 53.6447 46.8674 53.4335L46.8847 53.4234V53.4207L46.8934 53.4161L46.8975 53.4116L46.9021 53.4093C46.9199 53.3919 46.9135 53.3988 46.924 53.3887L46.9281 53.3851L46.9322 53.381V53.3632V53.3605V53.355V53.3522V53.349L46.9345 53.3459V53.3427V53.3395V53.3363L46.939 53.3294V53.3176V53.3135V53.3052V53.3011V53.2961V53.2916V53.287V53.282V53.2601V53.2541C46.9481 53.1193 46.9237 52.9843 46.8679 52.8613C46.7319 52.5007 46.4797 52.1957 46.151 51.9944H46.1469C45.9956 51.9816 45.8431 51.9917 45.6948 52.0245Z" fill="#121111"/>
<path fill-rule="evenodd" clip-rule="evenodd" d="M57.3617 62.3642C56.512 62.0794 55.7503 61.5798 55.1506 60.9138C53.6623 63.2439 52.256 65.1635 50.4232 67.7373C50.0125 68.314 49.11 69.7198 49.57 70.4658C50.3351 71.7124 51.7788 69.7942 52.3003 69.0747C54.2983 66.306 55.194 65.1115 57.3704 62.3318" fill="#121111"/>
<path fill-rule="evenodd" clip-rule="evenodd" d="M55.2342 60.4574C55.4422 60.5181 55.4578 60.5624 55.5969 60.7262C56.0769 61.2774 56.6727 61.7158 57.3417 62.0101L57.5758 62.0694L57.6903 62.2825C57.6474 62.4367 57.6538 62.3943 57.6593 62.4678L57.6319 62.4951L57.6232 62.5271C52.8926 69.0518 52.6859 69.5537 51.85 70.4425C51.4563 70.9365 50.8981 71.2724 50.2772 71.3888C50.0599 71.399 49.8439 71.3509 49.6513 71.2496C49.4588 71.1483 49.2969 70.9974 49.1822 70.8125C49.0373 70.5764 48.9501 70.3095 48.9278 70.0333C48.9054 69.7572 48.9485 69.4797 49.0535 69.2233C49.3971 68.1037 50.2731 67.0738 52.2064 64.3467C54.9741 60.3648 54.7966 60.4182 55.2342 60.4574ZM50.0733 69.43C49.986 69.6398 49.9517 69.8678 49.9734 70.0939V70.1026C49.9788 70.1208 49.9839 70.1336 49.9925 70.1601L49.9948 70.1642L49.9994 70.1724V70.1765V70.1788V70.1829C50.0184 70.2137 50.0396 70.2431 50.0628 70.271C50.0756 70.2874 50.0988 70.312 50.0993 70.3125H50.1039L50.108 70.3166L50.1107 70.3202H50.1148H50.1194L50.1258 70.3257H50.1303L50.1349 70.3298L50.1394 70.3339H50.1436L50.1522 70.3376H50.1563H50.1609H50.165H50.1732L50.2239 70.3339L50.2298 70.3312H50.238L50.2444 70.3284H50.2508H50.2544H50.2608L50.2672 70.3257H50.2731L50.2918 70.3184H50.2978C50.3169 70.312 50.3078 70.3138 50.327 70.3079L50.3329 70.3033C50.3759 70.2869 50.4174 70.2669 50.457 70.2436C51.156 69.8293 51.907 68.6886 52.3966 68.0142C53.6997 66.2078 55.4345 64.1113 56.7796 62.4933C56.5405 62.4057 56.3078 62.3014 56.0833 62.1812C55.7836 62.0251 55.5008 61.8385 55.2392 61.6246C53.1915 65.0252 50.4483 68.2483 50.071 69.43H50.0733Z" fill="#121111"/>
<path fill-rule="evenodd" clip-rule="evenodd" d="M64.5318 35.312C68.2551 35.4129 71.7916 36.9644 74.3872 39.6356C76.9829 42.3069 78.4322 45.8865 78.4262 49.6111C78.4266 50.8746 78.2702 52.1332 77.9604 53.358V53.3644C77.0793 56.7794 75.0003 59.7641 72.1023 61.7742C69.2044 63.7843 65.6806 64.686 62.1733 64.315C60.9509 64.1957 59.7495 63.9157 58.6003 63.4823C55.8324 62.4542 53.4377 60.6173 51.7276 58.2104C50.0174 55.8035 49.0708 52.9377 49.0108 49.9857C48.9712 47.766 49.4477 45.5674 50.4028 43.5632C51.0495 42.2062 51.9016 40.9572 52.9292 39.8601C54.4003 38.283 56.2062 37.0558 58.2141 36.2687C60.222 35.4816 62.3809 35.1547 64.5318 35.312ZM62.2596 36.4659C60.0226 36.7551 57.8959 37.6082 56.0791 38.945C54.2623 40.2818 52.8151 42.0584 51.8734 44.108C50.9261 46.181 50.5339 48.4647 50.7355 50.7349C51.0057 54.0408 52.5283 57.1188 54.9919 59.3397C57.4556 61.5606 60.6744 62.7569 63.9906 62.684C67.3067 62.6111 70.4699 61.2746 72.8336 58.9476C75.1973 56.6206 76.5831 53.4787 76.7079 50.1641C76.734 49.394 76.6952 48.6231 76.592 47.8595C76.3864 46.3836 75.9251 44.9549 75.2287 43.6376C73.9436 41.1281 71.9032 39.0853 69.3952 37.7973C67.2153 36.6174 64.7201 36.1517 62.2614 36.4659H62.2596ZM64.5318 35.3133C64.3333 35.3092 64.3324 35.3088 64.5318 35.3133V35.3133Z" fill="#121111"/>
<path d="M68.1904 48.1958C68.251 46.8051 67.4546 45.6409 66.4116 45.5954C65.3686 45.5499 64.4739 46.6404 64.4133 48.0311C64.3527 49.4218 65.1491 50.5861 66.1921 50.6315C67.2351 50.677 68.1298 49.5865 68.1904 48.1958Z" fill="#121111"/>
<path fill-rule="evenodd" clip-rule="evenodd" d="M66.3662 45.0551C66.682 45.0421 66.9976 45.085 67.2984 45.182C68.3542 45.5862 69.1084 46.6694 69.0441 48.1505C69.0334 48.5589 68.9641 48.9636 68.8383 49.3523C68.6987 49.8334 68.443 50.2728 68.0937 50.6318C67.7444 50.9909 67.3123 51.2586 66.8353 51.4115C66.4439 51.5108 66.0336 51.508 65.6436 51.4034C65.2536 51.2989 64.8969 51.096 64.6077 50.8142C64.2528 50.4746 63.9798 50.0586 63.8097 49.5978C63.0048 47.5145 64.3098 44.9666 66.3662 45.0551ZM66.3908 46.126C65.3715 46.3085 65.0809 47.7494 65.3327 48.7519C65.3671 48.9767 65.4596 49.1887 65.6012 49.3667C65.7428 49.5447 65.9285 49.6826 66.1399 49.7666H66.1504L66.1586 49.7694H66.1691H66.1796H66.1878L66.1983 49.7721H66.2572H66.2676H66.2781H66.2864H66.2973H66.3055H66.316C66.5104 49.7162 66.6884 49.614 66.8347 49.4743C66.9809 49.3346 67.0912 49.1616 67.156 48.97C67.6474 47.8813 67.0538 46.314 66.3913 46.1178L66.3908 46.126Z" fill="#121111"/>
<path fill-rule="evenodd" clip-rule="evenodd" d="M73.6581 45.1309L73.7233 45.3714C73.6999 46.3182 73.6202 47.2628 73.4847 48.2002C73.2985 49.6763 73.3054 50.4323 72.8705 54.083C72.7665 54.4844 72.7125 54.8971 72.7099 55.3117L72.7131 55.3332V55.3437C72.7192 55.3866 72.7301 55.4286 72.7455 55.4691L72.7496 55.4732V55.4796L72.7537 55.4842V55.4906L72.7574 55.497L72.7615 55.5015C72.8181 55.5964 72.9842 55.6708 73.2602 55.7297C73.4199 55.7598 73.3236 55.7187 73.5987 55.8707L73.6795 56.0906V56.0929L73.5695 56.3023C73.3118 56.4004 73.3615 56.3963 73.1918 56.389C72.9641 56.4043 72.7363 56.3608 72.5303 56.2627C72.3243 56.1645 72.147 56.0151 72.0155 55.8287C71.9049 55.6248 71.8424 55.3984 71.833 55.1666C71.7764 53.926 72.1738 51.2591 72.2637 50.1129C72.3257 49.5426 72.2701 49.5421 72.5452 47.4114C72.6566 46.6727 72.8439 45.9475 73.1041 45.2472L73.2575 45.0542L73.4742 45.0027C73.481 45.0027 73.6521 45.1268 73.6581 45.1309Z" fill="#121111"/>
<path fill-rule="evenodd" clip-rule="evenodd" d="M62.0615 38.649C62.5691 38.6449 63.0688 38.7747 63.5102 39.0254C63.7062 39.1387 63.8747 39.2939 64.004 39.4797C64.1332 39.6656 64.22 39.8776 64.258 40.1008C64.5487 41.9715 61.436 43.8737 60.0717 45.0391C59.291 45.7299 58.5993 46.3787 57.5622 46.521C56.1231 46.6022 55.6618 45.1878 55.8904 43.7784C55.954 43.3931 56.084 43.0218 56.2746 42.681C57.1347 41.0326 58.5521 39.7431 60.2743 39.0423C60.9336 38.7763 60.8346 38.8141 61.0696 38.8246L61.1782 38.7471C61.4674 38.6779 61.7641 38.6449 62.0615 38.649ZM61.3046 39.379L61.1649 39.348C60.0304 39.967 59.0142 40.7817 58.1631 41.7543C57.7035 42.2623 57.3259 42.8388 57.0439 43.4631C56.924 43.7545 56.8632 44.0668 56.865 44.3819C56.8668 44.697 56.9312 45.0086 57.0544 45.2987V45.3051L57.0603 45.3115L57.0681 45.3247L57.0722 45.3288L57.0799 45.342L57.084 45.3461L57.0881 45.3525L57.0959 45.3616L57.1 45.368L57.1041 45.3721L57.1101 45.3767V45.3813L57.1164 45.3854L57.1324 45.4032H57.1365L57.1443 45.4118H57.1484L57.1525 45.4164H57.1566L57.1607 45.4205H57.1648L57.1689 45.4251L57.1812 45.4319L57.1849 45.436L57.2259 45.4588H57.2323C57.2382 45.4626 57.2445 45.4657 57.251 45.468H57.2551C57.2588 45.469 57.2623 45.4706 57.2656 45.4725H57.2716H57.2757H57.2821C57.2854 45.4745 57.2889 45.476 57.2926 45.4771H57.3049L57.3113 45.4798H57.3236H57.33L57.4162 45.4835H57.4244H57.4349H57.4436H57.4541H57.4623C57.6765 45.4504 57.8832 45.3797 58.0728 45.2745C58.3925 45.0925 58.691 44.8757 58.963 44.628C61.1599 42.7481 62.276 42.18 63.1151 40.9659C63.1853 40.8598 63.2463 40.7479 63.2976 40.6315C63.3365 40.5443 63.363 40.4522 63.3765 40.3577L63.3792 40.3477V40.3267V40.318L63.382 40.2596V40.2509V40.2236V40.2153V40.2067L63.3783 40.1898V40.1816L63.3747 40.1642V40.156C63.3683 40.1259 63.3637 40.1063 63.361 40.0903L63.3569 40.0839L63.3532 40.067L63.3496 40.0602V40.052L63.3455 40.0456V40.0369C63.3426 40.0321 63.34 40.027 63.3377 40.0219V40.0132C63.2766 39.8834 63.1809 39.7729 63.0612 39.6938C63.0119 39.6582 62.9607 39.6251 62.9079 39.5948L62.8951 39.5898L62.8851 39.5834C62.3908 39.3578 61.84 39.2865 61.3046 39.379Z" fill="#121111"/>
<path fill-rule="evenodd" clip-rule="evenodd" d="M55.8465 49.2556C56.0901 49.4034 56.049 49.3647 56.0746 49.4381C56.1846 49.4285 56.1152 49.4217 56.2379 49.4559C56.3846 49.5032 56.5251 49.5678 56.6563 49.6485C56.9305 49.8276 57.1619 50.0648 57.3343 50.3433C57.5066 50.6218 57.6157 50.9347 57.6538 51.26C57.7364 51.806 57.6721 52.3641 57.4676 52.877C57.3564 53.2113 57.1678 53.5145 56.917 53.7619C56.6662 54.0093 56.3604 54.1938 56.0246 54.3003C55.6888 54.4068 55.3326 54.4324 54.9851 54.3749C54.6376 54.3174 54.3086 54.1784 54.025 53.9694C53.1075 53.3466 52.8761 52.0284 53.2466 50.9881C53.3497 50.6033 53.5448 50.2494 53.815 49.9569C54.0853 49.6643 54.4226 49.4418 54.7979 49.3085C55.1372 49.2015 55.4982 49.1833 55.8465 49.2556ZM55.7643 49.8848C55.5591 49.8994 55.3597 49.9597 55.1808 50.0614C54.9108 50.2307 54.6831 50.4595 54.5151 50.7303C54.4147 50.8712 54.3331 51.0246 54.2723 51.1866C54.231 51.3036 54.1957 51.4227 54.1665 51.5434C54.01 52.178 54.1925 52.9683 54.7888 53.2229C55.0773 53.368 55.4094 53.4005 55.7205 53.3142C55.9061 53.2385 56.0734 53.1243 56.2116 52.9792C56.3498 52.8341 56.4557 52.6613 56.5222 52.4723C56.5806 52.3427 56.6279 52.2084 56.6636 52.0708C56.7188 51.8549 56.7461 51.6329 56.7449 51.4101C56.7461 51.1587 56.694 50.9099 56.592 50.6801C56.4662 50.3903 56.2349 50.1591 55.945 50.0336L55.7899 49.8821C55.7815 49.8843 55.773 49.8857 55.7643 49.8862V49.8848Z" fill="#121111"/>
<path fill-rule="evenodd" clip-rule="evenodd" d="M78.1576 100.453C78.3977 100.588 78.6246 100.746 78.8351 100.924C79.7933 102.014 80.4909 102.434 81.3191 103.265C81.6722 103.621 81.5157 103.397 81.7247 103.747L81.7046 103.967L81.5166 104.085L81.2525 104.063C80.8129 103.903 80.3943 103.691 80.0059 103.431C79.4508 102.993 78.9272 102.516 78.4391 102.004C78.0868 101.701 77.8252 101.306 77.6835 100.864L77.6794 100.857L77.7177 100.413L78.1576 100.453Z" fill="#121111"/>
<path d="M39.3108 84.9817C38.3223 83.2326 36.847 79.2326 38.8546 77.225C38.7786 76.0083 39.0828 73.5292 40.9079 73.3467C41.136 71.5977 42.2767 68.2821 45.0143 69.0121" stroke="#121111" stroke-width="2"/>
</svg>
