<svg width="157" height="31" viewBox="0 0 157 31" fill="none" xmlns="http://www.w3.org/2000/svg">
<path d="M19.2135 15.3C19.2135 14.16 19.0335 13.19 18.6735 12.39C18.3335 11.57 17.8335 10.95 17.1735 10.53C16.5135 10.11 15.7135 9.9 14.7735 9.9C13.8535 9.9 13.0335 10.12 12.3135 10.56C11.5935 10.98 10.9935 11.62 10.5135 12.48C10.1935 11.66 9.68348 11.03 8.98348 10.59C8.30348 10.13 7.48348 9.9 6.52348 9.9C5.66348 9.9 4.91348 10.09 4.27348 10.47C3.65348 10.85 3.13348 11.43 2.71348 12.21V10.2H0.313477V24H2.71348V15.6C2.71348 14.88 2.84348 14.26 3.10348 13.74C3.36348 13.22 3.73348 12.83 4.21348 12.57C4.69348 12.29 5.26348 12.15 5.92348 12.15C6.82348 12.15 7.48348 12.43 7.90348 12.99C8.34348 13.55 8.56348 14.42 8.56348 15.6V24H10.9635V15.6C10.9635 14.88 11.0935 14.26 11.3535 13.74C11.6135 13.22 11.9835 12.83 12.4635 12.57C12.9435 12.29 13.5135 12.15 14.1735 12.15C15.0735 12.15 15.7335 12.43 16.1535 12.99C16.5935 13.55 16.8135 14.42 16.8135 15.6V24H19.2135V15.3ZM29.0617 24.3C30.5417 24.3 31.8217 24.01 32.9017 23.43C34.0017 22.83 34.9117 21.95 35.6317 20.79L33.6817 19.56C33.1817 20.4 32.5717 21.03 31.8517 21.45C31.1317 21.85 30.3017 22.05 29.3617 22.05C28.4217 22.05 27.6217 21.85 26.9617 21.45C26.3017 21.05 25.8017 20.47 25.4617 19.71C25.1217 18.95 24.9517 18.03 24.9517 16.95C24.9717 15.89 25.1517 15 25.4917 14.28C25.8517 13.54 26.3517 12.98 26.9917 12.6C27.6517 12.2 28.4417 12 29.3617 12C30.1417 12 30.8217 12.17 31.4017 12.51C31.9817 12.85 32.4317 13.32 32.7517 13.92C33.0917 14.52 33.2617 15.23 33.2617 16.05C33.2617 16.19 33.2317 16.37 33.1717 16.59C33.1117 16.79 33.0517 16.94 32.9917 17.04L33.9517 15.66H24.0517V17.7H35.8417C35.8417 17.66 35.8417 17.57 35.8417 17.43C35.8617 17.27 35.8717 17.12 35.8717 16.98C35.8717 15.52 35.6117 14.26 35.0917 13.2C34.5717 12.14 33.8217 11.33 32.8417 10.77C31.8817 10.19 30.7217 9.9 29.3617 9.9C28.0017 9.9 26.8017 10.2 25.7617 10.8C24.7417 11.4 23.9417 12.24 23.3617 13.32C22.8017 14.4 22.5217 15.66 22.5217 17.1C22.5217 18.52 22.7917 19.77 23.3317 20.85C23.8917 21.93 24.6617 22.78 25.6417 23.4C26.6417 24 27.7817 24.3 29.0617 24.3ZM48.0111 15.6V24H50.4111V15.3C50.4111 13.64 49.9811 12.33 49.1211 11.37C48.2811 10.39 47.1311 9.9 45.6711 9.9C44.7711 9.9 43.9711 10.1 43.2711 10.5C42.5911 10.9 42.0211 11.52 41.5611 12.36V10.2H39.1611V24H41.5611V15.6C41.5611 14.92 41.7011 14.32 41.9811 13.8C42.2811 13.28 42.6911 12.88 43.2111 12.6C43.7511 12.3 44.3711 12.15 45.0711 12.15C46.0311 12.15 46.7611 12.44 47.2611 13.02C47.7611 13.6 48.0111 14.46 48.0111 15.6ZM52.8229 10.2V12.45H59.7229V10.2H52.8229ZM55.0729 5.4V24H57.4729V5.4H55.0729ZM63.2099 19.74C63.2099 19.24 63.3299 18.81 63.5699 18.45C63.8099 18.09 64.1699 17.81 64.6499 17.61C65.1499 17.41 65.7899 17.31 66.5699 17.31C67.4099 17.31 68.1999 17.42 68.9399 17.64C69.6799 17.84 70.3999 18.18 71.0999 18.66V17.25C70.9599 17.07 70.6899 16.84 70.2899 16.56C69.8899 16.26 69.3499 16 68.6699 15.78C68.0099 15.54 67.1799 15.42 66.1799 15.42C64.4799 15.42 63.1499 15.83 62.1899 16.65C61.2499 17.45 60.7799 18.52 60.7799 19.86C60.7799 20.8 60.9999 21.6 61.4399 22.26C61.8799 22.92 62.4599 23.43 63.1799 23.79C63.9199 24.13 64.7099 24.3 65.5499 24.3C66.3099 24.3 67.0699 24.16 67.8299 23.88C68.6099 23.6 69.2599 23.17 69.7799 22.59C70.3199 22.01 70.5899 21.28 70.5899 20.4L70.1099 18.6C70.1099 19.32 69.9299 19.96 69.5699 20.52C69.2299 21.06 68.7599 21.48 68.1599 21.78C67.5799 22.08 66.9199 22.23 66.1799 22.23C65.5999 22.23 65.0799 22.14 64.6199 21.96C64.1799 21.76 63.8299 21.47 63.5699 21.09C63.3299 20.71 63.2099 20.26 63.2099 19.74ZM62.8499 13.38C63.0699 13.22 63.3699 13.03 63.7499 12.81C64.1299 12.59 64.5899 12.4 65.1299 12.24C65.6899 12.08 66.3099 12 66.9899 12C67.4099 12 67.8099 12.04 68.1899 12.12C68.5699 12.2 68.8999 12.33 69.1799 12.51C69.4799 12.69 69.7099 12.94 69.8699 13.26C70.0299 13.56 70.1099 13.95 70.1099 14.43V24H72.5099V14.1C72.5099 13.2 72.2799 12.44 71.8199 11.82C71.3799 11.2 70.7499 10.73 69.9299 10.41C69.1299 10.07 68.1899 9.9 67.1099 9.9C65.8299 9.9 64.7299 10.09 63.8099 10.47C62.9099 10.85 62.1999 11.23 61.6799 11.61L62.8499 13.38ZM76.5732 0.599999V24H78.9732V0.599999H76.5732ZM81.3873 18H87.3873V15.75H81.3873V18ZM88.8561 24.9C88.8561 26.08 89.1461 27.12 89.7261 28.02C90.3061 28.94 91.1061 29.65 92.1261 30.15C93.1661 30.65 94.3561 30.9 95.6961 30.9C96.8561 30.9 97.9561 30.63 98.9961 30.09C100.036 29.55 100.886 28.74 101.546 27.66C102.206 26.6 102.536 25.28 102.536 23.7V10.2H100.136V23.7C100.136 24.86 99.9061 25.8 99.4461 26.52C99.0061 27.26 98.4461 27.8 97.7661 28.14C97.0861 28.48 96.3961 28.65 95.6961 28.65C94.7961 28.65 94.0161 28.47 93.3561 28.11C92.6961 27.77 92.1861 27.31 91.8261 26.73C91.4661 26.17 91.2861 25.56 91.2861 24.9H88.8561ZM88.5861 17.1C88.5861 18.58 88.8961 19.86 89.5161 20.94C90.1361 22.02 90.9661 22.85 92.0061 23.43C93.0461 24.01 94.1861 24.3 95.4261 24.3C96.5861 24.3 97.5961 24.01 98.4561 23.43C99.3161 22.85 99.9861 22.02 100.466 20.94C100.966 19.86 101.216 18.58 101.216 17.1C101.216 15.6 100.966 14.32 100.466 13.26C99.9861 12.18 99.3161 11.35 98.4561 10.77C97.5961 10.19 96.5861 9.9 95.4261 9.9C94.1861 9.9 93.0461 10.19 92.0061 10.77C90.9661 11.35 90.1361 12.18 89.5161 13.26C88.8961 14.32 88.5861 15.6 88.5861 17.1ZM91.0161 17.1C91.0161 16.04 91.2261 15.14 91.6461 14.4C92.0861 13.66 92.6661 13.1 93.3861 12.72C94.1061 12.34 94.8861 12.15 95.7261 12.15C96.2461 12.15 96.7661 12.26 97.2861 12.48C97.8061 12.7 98.2761 13.02 98.6961 13.44C99.1361 13.86 99.4861 14.38 99.7461 15C100.006 15.6 100.136 16.3 100.136 17.1C100.136 18.16 99.9161 19.06 99.4761 19.8C99.0361 20.54 98.4761 21.1 97.7961 21.48C97.1161 21.86 96.4261 22.05 95.7261 22.05C94.8861 22.05 94.1061 21.86 93.3861 21.48C92.6661 21.1 92.0861 20.54 91.6461 19.8C91.2261 19.06 91.0161 18.16 91.0161 17.1ZM107.976 19.74C107.976 19.24 108.096 18.81 108.336 18.45C108.576 18.09 108.936 17.81 109.416 17.61C109.916 17.41 110.556 17.31 111.336 17.31C112.176 17.31 112.966 17.42 113.706 17.64C114.446 17.84 115.166 18.18 115.866 18.66V17.25C115.726 17.07 115.456 16.84 115.056 16.56C114.656 16.26 114.116 16 113.436 15.78C112.776 15.54 111.946 15.42 110.946 15.42C109.246 15.42 107.916 15.83 106.956 16.65C106.016 17.45 105.546 18.52 105.546 19.86C105.546 20.8 105.766 21.6 106.206 22.26C106.646 22.92 107.226 23.43 107.946 23.79C108.686 24.13 109.476 24.3 110.316 24.3C111.076 24.3 111.836 24.16 112.596 23.88C113.376 23.6 114.026 23.17 114.546 22.59C115.086 22.01 115.356 21.28 115.356 20.4L114.876 18.6C114.876 19.32 114.696 19.96 114.336 20.52C113.996 21.06 113.526 21.48 112.926 21.78C112.346 22.08 111.686 22.23 110.946 22.23C110.366 22.23 109.846 22.14 109.386 21.96C108.946 21.76 108.596 21.47 108.336 21.09C108.096 20.71 107.976 20.26 107.976 19.74ZM107.616 13.38C107.836 13.22 108.136 13.03 108.516 12.81C108.896 12.59 109.356 12.4 109.896 12.24C110.456 12.08 111.076 12 111.756 12C112.176 12 112.576 12.04 112.956 12.12C113.336 12.2 113.666 12.33 113.946 12.51C114.246 12.69 114.476 12.94 114.636 13.26C114.796 13.56 114.876 13.95 114.876 14.43V24H117.276V14.1C117.276 13.2 117.046 12.44 116.586 11.82C116.146 11.2 115.516 10.73 114.696 10.41C113.896 10.07 112.956 9.9 111.876 9.9C110.596 9.9 109.496 10.09 108.576 10.47C107.676 10.85 106.966 11.23 106.446 11.61L107.616 13.38ZM140.239 15.3C140.239 14.16 140.059 13.19 139.699 12.39C139.359 11.57 138.859 10.95 138.199 10.53C137.539 10.11 136.739 9.9 135.799 9.9C134.879 9.9 134.059 10.12 133.339 10.56C132.619 10.98 132.019 11.62 131.539 12.48C131.219 11.66 130.709 11.03 130.009 10.59C129.329 10.13 128.509 9.9 127.549 9.9C126.689 9.9 125.939 10.09 125.299 10.47C124.679 10.85 124.159 11.43 123.739 12.21V10.2H121.339V24H123.739V15.6C123.739 14.88 123.869 14.26 124.129 13.74C124.389 13.22 124.759 12.83 125.239 12.57C125.719 12.29 126.289 12.15 126.949 12.15C127.849 12.15 128.509 12.43 128.929 12.99C129.369 13.55 129.589 14.42 129.589 15.6V24H131.989V15.6C131.989 14.88 132.119 14.26 132.379 13.74C132.639 13.22 133.009 12.83 133.489 12.57C133.969 12.29 134.539 12.15 135.199 12.15C136.099 12.15 136.759 12.43 137.179 12.99C137.619 13.55 137.839 14.42 137.839 15.6V24H140.239V15.3ZM150.087 24.3C151.567 24.3 152.847 24.01 153.927 23.43C155.027 22.83 155.937 21.95 156.657 20.79L154.707 19.56C154.207 20.4 153.597 21.03 152.877 21.45C152.157 21.85 151.327 22.05 150.387 22.05C149.447 22.05 148.647 21.85 147.987 21.45C147.327 21.05 146.827 20.47 146.487 19.71C146.147 18.95 145.977 18.03 145.977 16.95C145.997 15.89 146.177 15 146.517 14.28C146.877 13.54 147.377 12.98 148.017 12.6C148.677 12.2 149.467 12 150.387 12C151.167 12 151.847 12.17 152.427 12.51C153.007 12.85 153.457 13.32 153.777 13.92C154.117 14.52 154.287 15.23 154.287 16.05C154.287 16.19 154.257 16.37 154.197 16.59C154.137 16.79 154.077 16.94 154.017 17.04L154.977 15.66H145.077V17.7H156.867C156.867 17.66 156.867 17.57 156.867 17.43C156.887 17.27 156.897 17.12 156.897 16.98C156.897 15.52 156.637 14.26 156.117 13.2C155.597 12.14 154.847 11.33 153.867 10.77C152.907 10.19 151.747 9.9 150.387 9.9C149.027 9.9 147.827 10.2 146.787 10.8C145.767 11.4 144.967 12.24 144.387 13.32C143.827 14.4 143.547 15.66 143.547 17.1C143.547 18.52 143.817 19.77 144.357 20.85C144.917 21.93 145.687 22.78 146.667 23.4C147.667 24 148.807 24.3 150.087 24.3Z" fill="white"/>
</svg>
