<svg width="133" height="111" viewBox="0 0 133 111" fill="none" xmlns="http://www.w3.org/2000/svg">
<path fill-rule="evenodd" clip-rule="evenodd" d="M131.771 47.8731C128.884 63.1118 111.811 64.0201 104.747 62.6369C104.075 65.59 98.0011 93.5665 97.328 95.9213C94.8051 97.7711 64.0253 109.94 61.5582 110.666C57.2973 109.265 11.3049 86.932 5.39923 82.8575C4.36633 77.8346 2.46857 58.1254 2.26171 51.3042C2.21605 49.7672 2.07906 50.0467 3.78458 49.0955C5.11174 48.4229 6.4766 47.8273 7.87235 47.3119C8.30935 47.1402 8.64361 47.7507 8.20981 47.974C7.18238 48.5037 6.18236 49.0754 5.19603 49.6846C3.75262 50.5786 3.57407 50.9805 5.13165 51.6216C19.0589 57.3564 62.2952 74.6888 63.3313 74.5212C64.4528 74.334 101.24 62.789 103.643 61.7296C104.857 60.3739 116.126 30.5928 118.243 16.0289C124.464 19.1678 135.154 30.0206 131.771 47.8731ZM50.1401 57.6222C50.1249 57.5476 50.0884 57.4791 50.0351 57.4248C49.9818 57.3705 49.914 57.3328 49.8397 57.3162C49.7654 57.2996 49.688 57.3049 49.6166 57.3314C49.5453 57.3579 49.4832 57.4045 49.4378 57.4656C49.1437 57.9222 48.6359 60.2054 48.4601 60.8857C48.1724 62.0031 48.3505 62.9104 48.5058 64.0863C48.5727 64.7618 48.7014 65.4297 48.8903 66.0818C48.9251 66.1668 48.987 66.2379 49.0664 66.2842C49.1458 66.3305 49.2382 66.3493 49.3293 66.3378C49.4205 66.3262 49.5053 66.2849 49.5706 66.2203C49.636 66.1557 49.6782 66.0714 49.6907 65.9804C49.623 65.3188 49.5181 64.6616 49.3766 64.0118C49.1884 63.0611 49.1884 62.0826 49.3766 61.1319C49.5547 60.4241 50.183 58.1957 50.1401 57.6222ZM49.4597 55.8381C48.5875 55.0445 46.8788 54.0203 45.8212 53.2139C45.745 53.1478 45.646 53.1141 45.5453 53.1198C45.4445 53.1255 45.35 53.1702 45.2816 53.2444C45.2133 53.3186 45.1765 53.4165 45.1792 53.5174C45.1818 53.6182 45.2236 53.7141 45.2957 53.7847C46.0751 54.5417 48.0318 56.1386 48.9944 56.4993C49.082 56.5442 49.1828 56.556 49.2784 56.5324C49.374 56.5088 49.4578 56.4515 49.5144 56.371C49.5711 56.2905 49.5967 56.1922 49.5867 56.0943C49.5766 55.9964 49.5315 55.9054 49.4597 55.8381ZM43.9705 52.2937C42.7988 53.7513 41.5988 55.1947 40.4951 56.7044C40.4331 56.7879 40.4059 56.8923 40.4194 56.9955C40.4329 57.0987 40.4859 57.1926 40.5672 57.2575C40.6486 57.3223 40.752 57.353 40.8556 57.3431C40.9592 57.3332 41.0549 57.2835 41.1225 57.2044C42.4517 55.7395 43.686 54.1847 44.95 52.6636C45.1372 52.439 50.7634 51.0604 51.2287 50.938C52.859 51.8564 54.434 52.8695 55.9457 53.9723C54.4228 54.8016 52.4867 55.3518 50.8871 56.061C50.8018 56.11 50.7368 56.1877 50.7036 56.2803C50.6705 56.373 50.6715 56.4743 50.7063 56.5663C50.7412 56.6583 50.8077 56.7348 50.8938 56.7822C50.98 56.8296 51.0803 56.8447 51.1766 56.8249C51.42 56.7505 56.6055 54.9911 56.6836 54.9121C57.4191 56.1074 58.0603 57.3583 58.6015 58.6533C55.9148 59.8327 53.1684 60.8709 50.3734 61.7638C49.8734 61.931 50.1771 62.6365 50.6638 62.5118C53.2835 61.8467 55.8546 61.003 58.359 59.9866C57.4663 61.9675 56.2699 63.7032 55.3612 65.6343C55.3273 65.7203 55.3251 65.8157 55.355 65.9032C55.385 65.9908 55.4451 66.0648 55.5246 66.1121C55.6042 66.1593 55.698 66.1767 55.7892 66.1611C55.8804 66.1455 55.9631 66.098 56.0224 66.027C57.1393 64.6228 58.0393 62.7771 58.9334 61.1935C59.5691 60.0679 60.1572 59.2551 59.6394 58.0227C59.2129 56.994 58.6915 56.0074 58.0818 55.0756C57.6458 54.3403 57.0627 53.7029 56.369 53.2034C54.9853 52.1578 53.5238 51.2194 51.9972 50.3964C51.7635 50.2639 51.5047 50.1815 51.2374 50.1546C50.9701 50.1277 50.7001 50.1569 50.4446 50.2403C48.5563 50.632 46.6912 51.1289 44.8582 51.7284C44.3358 51.9097 44.3203 51.8586 43.9705 52.2937ZM46.6856 60.9035C44.9463 59.8711 42.96 58.8679 41.1604 57.8601C40.7375 57.6236 40.3357 58.0555 40.5828 58.6012C40.9572 59.4291 42.7746 63.5621 43.5646 64.2119C43.897 64.4858 44.4582 64.1205 44.2385 63.7726C43.3502 62.3064 42.5432 60.7925 41.8211 59.2378C43.2368 60.1571 44.7245 60.9605 46.2697 61.6401C46.7016 61.8045 47.1185 61.1602 46.6856 60.9035ZM74.6037 57.7108C74.5398 58.5327 75.4809 58.8304 75.5389 57.8309C75.6941 55.1655 74.4119 51.9965 74.5895 49.5576C74.7605 47.0342 75.4441 44.5721 76.5987 42.3218C76.9033 43.7648 78.0097 44.863 79.0915 45.7863C82.3414 48.55 86.5404 49.9384 90.7972 49.6567C91.2781 49.6266 91.2539 48.7854 90.7625 48.8033C86.3528 48.9612 81.5997 47.2772 78.633 43.9173C76.633 41.6524 77.2955 39.6313 80.4477 39.4852C85.0437 39.272 89.4041 41.5213 92.2311 45.089C92.5744 45.5228 93.1936 44.9977 92.8886 44.5538C90.1178 40.525 85.1286 38.2318 80.2746 38.477C77.3764 38.6236 76.3549 40.1345 75.279 42.7072C74.5155 44.5846 73.9802 46.547 73.6849 48.5521C73.3201 51.3782 74.8306 54.7705 74.6037 57.7108ZM91.9858 49.5713C90.6301 52.6887 88.5369 54.5518 85.2546 56.1683C83.5455 57.0103 81.7541 57.4578 80.0974 58.4797C78.7077 59.3433 77.6892 60.6932 77.2403 62.2666C77.2107 62.3647 77.22 62.4704 77.2662 62.5619C77.3124 62.6534 77.3921 62.7235 77.4886 62.7579C77.5852 62.7922 77.6913 62.7881 77.7849 62.7464C77.8785 62.7046 77.9524 62.6285 77.9914 62.5337C78.6143 60.8702 80.2499 59.4122 81.8294 58.5925C83.576 57.687 84.598 57.5802 86.3611 56.7564C89.3132 55.3773 91.6062 52.8945 92.7466 49.8421C92.7773 49.7425 92.7684 49.6349 92.7217 49.5418C92.675 49.4487 92.5941 49.3771 92.496 49.3422C92.3978 49.3073 92.2899 49.3116 92.1949 49.3543C92.0998 49.397 92.0249 49.4747 91.9858 49.5713ZM16.5653 37.9528C17.7412 39.361 18.808 40.8571 19.7562 42.4278C20.7201 43.9651 21.5411 45.5877 22.2088 47.2749C22.4243 47.8827 22.9956 47.4745 22.9051 47.0142C22.5965 45.4383 21.1494 42.7762 20.6142 41.904C19.6316 40.278 18.4637 38.7716 17.1338 37.4148C16.8201 37.0993 16.284 37.6075 16.5653 37.9528ZM21.1704 38.4245C24.7888 39.7994 25.628 37.7276 25.3454 34.5234C25.2666 32.9905 24.9188 31.4833 24.318 30.0708C24.1116 29.6389 23.4919 29.9626 23.5846 30.3859C23.928 31.6578 24.1995 32.948 24.3979 34.2504C24.6641 36.7902 24.712 38.8473 21.2722 37.497C20.1498 37.0492 19.1192 36.3992 18.2315 35.5792C18.1556 35.5105 18.0561 35.4738 17.9537 35.4767C17.8514 35.4796 17.7541 35.5218 17.6821 35.5945C17.6101 35.6673 17.569 35.765 17.5672 35.8674C17.5654 35.9697 17.6032 36.0688 17.6726 36.144C18.6583 37.1502 19.8521 37.9285 21.1704 38.4245ZM25.5363 29.4836C25.8371 31.0921 26.438 32.6295 27.3075 34.0157C29.3359 37.2966 31.5574 38.5363 34.3748 35.0961C35.3572 33.9053 35.9717 32.4543 36.1434 30.9202C36.1995 30.3959 35.4584 30.3562 35.3502 30.8434C35.0856 32.0961 34.5514 33.2761 33.7849 34.3015C31.209 37.6911 29.4469 35.8586 27.8614 33.1399C27.183 31.9534 26.6744 30.6776 26.3504 29.3498C26.2239 28.8434 25.4413 28.9525 25.5363 29.4836ZM37.4242 31.0635C36.2767 34.765 35.7347 39.9546 36.4575 43.7689C36.4713 43.8704 36.5244 43.9624 36.6054 44.0252C36.6864 44.088 36.7888 44.1164 36.8905 44.1045C36.9923 44.0925 37.0853 44.041 37.1495 43.9612C37.2137 43.8814 37.244 43.7795 37.2338 43.6776C37.0512 38.982 37.1123 35.9075 38.1795 31.2782C38.2781 30.8489 37.5571 30.6361 37.4242 31.0635ZM38.7092 26.2401C38.1795 25.6141 37.1649 25.2492 36.4365 25.7662C36.3676 25.82 36.3181 25.8948 36.2952 25.9792C36.2723 26.0636 36.2773 26.1531 36.3095 26.2344C36.3418 26.3157 36.3994 26.3844 36.4739 26.4302C36.5484 26.476 36.6357 26.4965 36.7228 26.4885C36.9718 26.3959 37.2451 26.3925 37.4963 26.4787C37.7475 26.565 37.961 26.7356 38.1005 26.9616C38.8311 28.0932 37.9681 29.9096 36.4329 28.7544C36.2232 28.6206 36.0701 28.4143 36.0027 28.1749C35.9354 27.9355 35.9584 27.6796 36.0676 27.4562C36.1021 27.3709 36.1052 27.2762 36.0762 27.1889C36.0472 27.1016 35.9881 27.0275 35.9094 26.9799C35.8307 26.9323 35.7376 26.9143 35.6469 26.9291C35.5561 26.9439 35.4736 26.9906 35.4141 27.0607C35.1924 27.3801 35.0886 27.7666 35.1206 28.1541C35.1526 28.5415 35.3184 28.9058 35.5895 29.1845C37.7882 31.5887 40.5622 28.4292 38.7092 26.2401ZM25.4618 28.1895C25.6873 27.8972 25.833 27.5514 25.8846 27.1859C25.9362 26.8204 25.892 26.4478 25.7564 26.1045C25.6309 25.7566 25.4139 25.449 25.1281 25.2142C24.8424 24.9793 24.4986 24.826 24.133 24.7702C23.3736 24.6602 22.3398 25.0712 22.0983 25.8474C22.0668 25.9375 22.0674 26.0357 22.1 26.1254C22.1326 26.215 22.1953 26.2907 22.2773 26.3395C22.3593 26.3883 22.4556 26.4072 22.55 26.3931C22.6444 26.379 22.731 26.3327 22.7951 26.2621C22.97 26.0298 23.214 25.8591 23.4921 25.7743C23.7702 25.6895 24.0679 25.6952 24.3426 25.7904C25.3518 26.1808 25.1614 27.3922 24.4796 27.9251C23.6481 28.5758 22.6745 28.1676 22.644 27.5447C22.6156 26.9703 21.975 26.794 21.8882 27.2753C21.6311 28.705 23.9865 29.9854 25.4618 28.1895ZM13.4469 34.5084C13.8638 34.044 14.3483 33.6184 15.0155 33.8234C15.2145 33.8795 15.3954 33.9869 15.5401 34.1347C15.6847 34.2826 15.788 34.4658 15.8397 34.6661C15.8914 34.8664 15.8897 35.0767 15.8347 35.2761C15.7798 35.4755 15.6735 35.657 15.5264 35.8025C15.3518 35.9607 15.1236 36.0467 14.8879 36.0431C14.6523 36.0396 14.4268 35.9467 14.257 35.7833C13.5204 35.0212 13.0784 35.8143 13.6917 36.4066C13.9067 36.6149 14.1706 36.7658 14.4592 36.8456C14.7477 36.9254 15.0517 36.9315 15.3432 36.8634C15.6347 36.7952 15.9045 36.6549 16.1277 36.4555C16.351 36.256 16.5206 36.0037 16.621 35.7216C16.7223 35.4481 16.7671 35.1568 16.7525 34.8654C16.738 34.574 16.6644 34.2886 16.5364 34.0265C16.4083 33.7643 16.2283 33.5309 16.0074 33.3404C15.7865 33.1498 15.5292 33.0061 15.2511 32.9179C14.2675 32.5942 12.8798 33.1462 12.6939 34.2381C12.6875 34.3284 12.7109 34.4184 12.7604 34.4943C12.8098 34.5702 12.8828 34.6278 12.968 34.6584C13.0533 34.6891 13.1462 34.691 13.2327 34.6639C13.3191 34.6368 13.3944 34.5822 13.4469 34.5084ZM36.9813 54.0993C38.0605 54.1281 39.1128 54.4422 40.0311 55.0098C40.4809 55.2614 40.7709 54.5655 40.4334 54.2632C39.4645 53.3956 37.8731 53.0801 36.6119 53.0897C34.4168 53.1056 30.4843 54.7007 31.1816 57.4103C31.5012 58.6464 32.7593 59.2063 33.8593 59.5798C33.9636 59.6141 34.0771 59.6068 34.1761 59.5594C34.2751 59.512 34.352 59.4282 34.3907 59.3254C34.4293 59.2227 34.4268 59.109 34.3836 59.0081C34.3404 58.9071 34.2599 58.8268 34.1588 58.7839C33.3725 58.4976 32.2442 58.0701 32.0789 57.1258C31.7177 55.0605 35.3571 54.0175 36.9813 54.0993ZM45.2651 49.8878C45.4764 49.7926 45.664 49.6519 45.8144 49.4756C45.9648 49.2993 46.0743 49.0919 46.135 48.8683C46.1957 48.6446 46.2061 48.4103 46.1654 48.1822C46.1247 47.9541 46.034 47.7378 45.8998 47.5489C44.8007 45.8319 40.9408 45.3438 39.1996 46.1635C38.6855 46.3955 38.2405 46.7572 37.9082 47.213C37.576 47.6688 37.3678 48.2031 37.3041 48.7635C37.2507 49.3511 37.412 49.9382 37.7581 50.416C38.1043 50.8937 38.6118 51.2299 39.1868 51.3622C39.294 51.3844 39.4055 51.364 39.4978 51.3052C39.5901 51.2464 39.6558 51.154 39.681 51.0475C39.7061 50.941 39.6888 50.8289 39.6326 50.735C39.5763 50.6412 39.4857 50.5729 39.38 50.5448C39.1667 50.4793 38.9691 50.3708 38.7995 50.2259C38.6298 50.0811 38.4916 49.903 38.3935 49.7026C38.2954 49.5022 38.2394 49.2839 38.229 49.061C38.2185 48.8382 38.2539 48.6155 38.3329 48.4069C38.5356 47.9222 38.8737 47.5062 39.3066 47.2085C39.7395 46.9108 40.2489 46.7441 40.7741 46.7283C42.6791 46.5813 44.66 47.116 45.1308 48.1996C45.2101 48.3585 45.2347 48.5391 45.2007 48.7134C45.1668 48.8878 45.0762 49.046 44.9431 49.1635C44.5847 49.4028 44.8253 50.0544 45.2646 49.8878H45.2651ZM41.954 44.341C42.0467 44.3298 42.1324 44.2859 42.1958 44.2173C42.2591 44.1487 42.296 44.0598 42.2999 43.9665C42.3037 43.8732 42.2743 43.7815 42.2168 43.7079C42.1592 43.6344 42.0775 43.5836 41.986 43.5648C40.6933 43.3707 40.7554 41.8606 41.5188 41.1117C43.028 39.6318 46.5847 40.1985 48.2368 41.2095C48.9674 41.656 49.8766 42.8826 48.8788 43.4661C48.4925 43.6944 48.5852 44.331 49.0588 44.2575C50.1862 44.083 50.615 42.7661 50.162 41.8067C49.0985 39.5542 44.939 38.93 42.7645 39.4459C39.0361 40.3341 39.5065 44.3904 41.954 44.341ZM53.2712 46.1452C53.0311 45.758 52.9379 45.2975 53.0085 44.8474C53.079 44.3973 53.3087 43.9874 53.6557 43.6922C54.0432 43.385 54.4942 43.1681 54.976 43.057C55.4578 42.9459 55.9583 42.9436 56.4411 43.0501C58.3088 43.3634 60.8207 44.5803 60.9412 46.7352C60.9417 46.8373 60.9816 46.9353 61.0525 47.0087C61.1235 47.0822 61.22 47.1254 61.3221 47.1294C61.4241 47.1334 61.5237 47.0979 61.6002 47.0302C61.6767 46.9625 61.7241 46.868 61.7326 46.7662C61.9235 45.4077 61.0216 44.2155 59.9545 43.4871C58.7888 42.6826 57.4349 42.1934 56.0242 42.067C55.4058 42.0067 54.7818 42.0943 54.2039 42.3226C53.6259 42.551 53.1106 42.9135 52.7004 43.3803C52.3186 43.8463 52.1086 44.4294 52.1054 45.0318C52.1023 45.6343 52.3062 46.2195 52.6831 46.6895C53.0223 47.0941 53.5666 46.553 53.2712 46.1466V46.1452ZM59.865 52.6038C59.9318 53.3688 60.2625 54.0867 60.8004 54.6347C61.3382 55.1828 62.0499 55.5268 62.8134 55.608C62.9264 55.6164 63.0382 55.5809 63.1255 55.5088C63.2129 55.4368 63.269 55.3338 63.2823 55.2213C63.2955 55.1089 63.2648 54.9957 63.1966 54.9053C63.1284 54.8149 63.028 54.7544 62.9162 54.7363C62.5773 54.6863 62.2529 54.5651 61.9644 54.3804C61.676 54.1958 61.4299 53.9521 61.2427 53.6653C61.0554 53.3785 60.9311 53.0553 60.878 52.7169C60.825 52.3785 60.8443 52.0327 60.9349 51.7024C61.6531 49.2133 66.8903 48.8558 68.8058 50.1184C69.4172 50.4877 69.869 51.0718 70.0728 51.7564C70.2767 52.441 70.2179 53.1771 69.9081 53.8207C69.6967 54.2148 70.3287 54.5395 70.5839 54.1929C70.9882 53.6195 71.1956 52.9305 71.1749 52.2292C71.1542 51.528 70.9067 50.8523 70.4693 50.3037C68.0063 46.9808 59.5846 48.0544 59.865 52.6061V52.6038ZM64.1116 71.502C63.6623 71.7129 63.8746 72.4152 64.3674 72.2481C65.951 71.7161 67.7268 70.8627 68.2364 69.1261C69.3953 65.1776 63.8664 63.9246 60.8001 64.7315C59.2444 65.1425 57.4019 66.0649 56.6558 67.574C55.7206 69.4659 57.3813 70.8449 58.9572 71.5271C59.4595 71.7449 59.8362 70.9901 59.3334 70.7586C57.6576 69.9869 56.4315 68.7823 58.1608 67.1654C60.381 65.089 66.4158 64.3776 67.3154 67.7964C67.8464 69.817 65.5532 70.8257 64.1116 71.5034V71.502ZM70.7744 66.4083C70.3086 66.522 70.4639 67.2868 70.9392 67.2329C72.3584 67.1113 73.6713 66.4314 74.5895 65.3425C77.786 61.2784 72.8123 57.8332 68.22 58.4254C66.6893 58.6227 65.1605 59.3615 64.782 60.9825C64.6591 61.5113 65.4669 61.6707 65.6039 61.151C66.0149 59.5921 67.9624 59.3309 69.3086 59.2925C71.957 59.2167 75.6489 60.941 74.2763 64.0077C73.6434 65.4233 72.1945 66.063 70.7744 66.4096V66.4083ZM88.1186 63.4945C86.7848 63.8134 85.397 63.8333 84.0546 63.5529C82.9491 63.3246 81.5175 62.8995 80.9605 61.8104C80.7285 61.3565 80.0015 61.6141 80.2057 62.1063C80.6623 63.2136 81.7029 63.8315 82.7998 64.1986C84.1152 64.637 85.5058 64.8041 86.8876 64.6899C89.2894 64.4904 92.4082 63.078 90.5981 60.2309C89.8936 59.1231 88.2437 58.5934 86.9697 58.7665C86.8707 58.7803 86.7798 58.8288 86.7131 58.9032C86.6464 58.9777 86.6081 59.0733 86.6052 59.1732C86.6022 59.2732 86.6347 59.3709 86.697 59.4492C86.7592 59.5274 86.8471 59.5811 86.9451 59.6008C88.041 59.7921 89.3314 59.9949 89.8013 61.1643C90.3616 62.5671 89.3214 63.2031 88.1186 63.4958V63.4945ZM29.077 45.9082C30.2362 45.4472 31.4875 45.265 32.73 45.3762C34.2264 45.5534 34.4958 46.1178 35.3461 47.1425C35.403 47.1989 35.4753 47.2374 35.5538 47.2533C35.6324 47.2692 35.7139 47.2618 35.7883 47.2319C35.8627 47.2021 35.9268 47.1511 35.9726 47.0853C36.0184 47.0195 36.0439 46.9418 36.0461 46.8617C35.973 45.7657 34.8223 44.9785 33.884 44.6328C32.0908 43.9725 28.3039 44.5461 27.0984 46.1562C26.7728 46.5996 26.5711 47.1216 26.5139 47.6687C26.4567 48.2158 26.546 48.7683 26.7728 49.2695C27.0388 49.8134 27.463 50.2642 27.9898 50.5628C28.5165 50.8613 29.1212 50.9937 29.7245 50.9426C30.2478 50.8969 30.282 50.0932 29.7391 50.1106C29.2273 50.1327 28.724 49.9745 28.317 49.6635C27.91 49.3524 27.6251 48.9083 27.5121 48.4087C27.2929 47.2434 28.0313 46.3155 29.077 45.9082ZM23.8965 56.6929C23.7957 56.6784 23.6933 56.7037 23.6109 56.7636C23.5286 56.8235 23.4729 56.9132 23.4558 57.0136C23.4386 57.1139 23.4614 57.217 23.5191 57.3008C23.5769 57.3847 23.6651 57.4426 23.765 57.4624C27.3779 58.2985 30.0501 56.0066 27.8582 53.0518C26.2253 50.8503 21.896 49.627 19.6338 51.5663C18.4521 52.5787 17.9379 54.4459 18.9859 55.7459C19.0503 55.8334 19.1464 55.8921 19.2537 55.9094C19.3609 55.9268 19.4707 55.9013 19.5593 55.8385C19.648 55.7758 19.7085 55.6807 19.7278 55.5738C19.7471 55.4669 19.7237 55.3567 19.6626 55.2669C18.9448 54.0011 19.6626 52.5047 20.8992 51.9179C22.7567 51.038 25.8696 52.0389 27.1148 53.6636C29.1048 56.2591 26.0723 57.0121 23.8965 56.6929ZM15.8945 51.7357C16.3881 51.6307 16.3173 50.7905 15.8136 50.9375C14.4314 51.3421 11.6583 51.5051 11.5172 49.5375C11.3802 47.5813 14.668 46.3548 16.2141 46.3315C17.2945 46.3155 19.1402 46.7484 18.821 48.2137C18.8081 48.3076 18.829 48.4029 18.88 48.4827C18.9309 48.5626 19.0086 48.6217 19.0991 48.6495C19.1896 48.6774 19.2871 48.6721 19.3741 48.6347C19.4611 48.5973 19.532 48.5301 19.574 48.4453C20.0635 47.1854 19.0872 46.0639 17.9301 45.6899C14.0944 44.4506 8.43675 48.2991 11.3756 51.2969C12.3789 52.3216 14.4264 52.0494 15.8945 51.7357ZM5.39467 38.7176C5.50675 38.6956 5.60551 38.63 5.66923 38.5352C5.73294 38.4404 5.75638 38.3242 5.7344 38.2121C5.71242 38.1 5.64682 38.0013 5.55202 37.9376C5.45722 37.8739 5.34099 37.8504 5.22891 37.8724C3.6654 38.0057 1.81558 38.0651 0.300934 38.3409C0.21075 38.363 0.131238 38.4162 0.076361 38.4911C0.021484 38.566 -0.00524942 38.6578 0.000854864 38.7505C0.00695915 38.8431 0.0455109 38.9307 0.109741 38.9977C0.17397 39.0648 0.259771 39.1071 0.352077 39.1172C1.927 39.1277 3.79554 38.8615 5.39467 38.7176ZM4.49556 27.3443C6.03669 28.1448 7.62029 28.879 9.20481 29.5891C9.68062 29.8023 9.98108 29.079 9.51988 28.8484C7.96733 28.0685 6.40017 27.3032 4.80698 26.6137C4.33208 26.4086 4.04715 27.1114 4.49556 27.3443ZM19.5991 21.4341C19.66 21.4999 19.7423 21.542 19.8314 21.5529C19.9204 21.5637 20.0104 21.5425 20.0853 21.4932C20.1602 21.4438 20.2152 21.3695 20.2404 21.2834C20.2656 21.1973 20.2594 21.1051 20.2229 21.0231C19.6957 19.9386 19.1009 18.8883 18.442 17.8783C18.3951 17.7889 18.3152 17.7213 18.2194 17.6896C18.1235 17.658 18.0191 17.6648 17.9282 17.7086C17.8372 17.7524 17.7668 17.8298 17.7319 17.9245C17.6969 18.0192 17.7 18.1238 17.7406 18.2162C18.2914 19.3271 18.9122 20.4018 19.5991 21.4341ZM32.846 21.3884C32.8004 19.8793 32.7885 18.3637 32.6816 16.8573C32.6765 16.8061 32.6614 16.7563 32.6371 16.711C32.6128 16.6656 32.5798 16.6255 32.54 16.5929C32.5002 16.5603 32.4543 16.5358 32.4051 16.5209C32.3558 16.5061 32.3041 16.501 32.2529 16.5061C32.2017 16.5112 32.152 16.5263 32.1066 16.5506C32.0612 16.575 32.0211 16.608 31.9885 16.6478C31.9559 16.6876 31.9314 16.7334 31.9165 16.7827C31.9017 16.832 31.8966 16.8837 31.9017 16.9349C31.8903 18.4459 31.9761 19.9601 32.0259 21.4702C32.0433 21.9989 32.862 21.9154 32.846 21.3871V21.3884ZM40.6677 21.9661C41.1887 20.508 41.8052 18.955 42.2298 17.4787C42.2575 17.3808 42.2451 17.2759 42.1955 17.1871C42.1458 17.0983 42.0629 17.0329 41.965 17.0052C41.8671 16.9775 41.7622 16.9899 41.6734 17.0396C41.5846 17.0892 41.5191 17.1721 41.4914 17.2701C40.9033 18.6906 40.4161 20.2879 39.9138 21.7533C39.7499 22.2314 40.4974 22.4373 40.6677 21.9661ZM25.0107 102.465C24.4732 102.34 24.2139 102.957 24.755 103.18C25.7427 103.589 27.7313 104.358 27.0199 105.817C26.2705 107.354 22.9061 107.58 21.3604 107.416C19.7334 107.24 17.1137 106.213 18.7452 104.168C19.774 102.879 21.7188 102.942 23.202 102.963C23.7129 102.97 23.7956 102.2 23.275 102.161C21.522 102.034 19.5306 102.007 18.2137 103.378C15.9347 105.747 18.2758 108.081 20.9352 108.426C22.9869 108.693 26.7463 108.289 27.8194 106.315C28.8815 104.359 26.7002 102.859 25.0107 102.465ZM18.8918 95.9149C17.1744 94.8907 14.9191 95.1469 13.1433 95.904C12.5638 96.151 12.9245 96.9405 13.5013 96.7866C14.8926 96.4145 16.2867 95.9569 17.7205 96.4263C20.4434 97.3154 20.5517 100.275 16.7648 100.906C15.4476 101.144 14.0958 101.11 12.7921 100.806C11.0455 100.263 11.1583 98.7931 12.1419 97.6099C12.4716 97.214 11.9008 96.8337 11.5615 97.2081C10.5432 98.3373 10.0509 100.153 11.3761 101.263C12.5487 102.244 14.8538 102.209 16.2949 102.06C20.7325 101.603 22.3576 97.9825 18.8909 95.9149H18.8918ZM5.10151 102.933C5.00821 102.966 4.92947 103.03 4.8794 103.115C4.82934 103.2 4.81123 103.3 4.82833 103.398C4.84543 103.495 4.89662 103.583 4.97272 103.646C5.04881 103.708 5.14482 103.742 5.24352 103.741C6.53716 103.769 8.3057 103.28 9.16325 104.608C9.93542 105.803 9.04544 107.235 8.06734 107.972C6.36318 109.258 1.74115 109.896 1.14159 107.473C0.745694 105.875 2.48135 104.785 3.63252 104.116C4.10696 103.842 3.65809 103.134 3.1832 103.396C1.74663 104.192 0.203215 105.279 0.189059 107.102C0.162118 110.641 6.03395 110.562 8.4541 108.85C9.76921 107.92 10.8245 106.293 10.235 104.636C9.51212 102.611 6.86913 102.354 5.09831 102.933H5.10151Z" fill="#325BD3"/>
<path fill-rule="evenodd" clip-rule="evenodd" d="M28.501 67.5115C28.696 65.3795 31.223 65.1288 31.8687 67.3745C32.1454 68.3371 31.7737 69.6723 30.8298 70.1399C30.8803 70.7981 30.8307 71.4601 30.6828 72.1034C30.612 72.2117 30.5125 72.2983 30.3955 72.3536C30.2784 72.4088 30.1484 72.4305 30.0197 72.4164C29.8911 72.4022 29.7688 72.3526 29.6667 72.2732C29.5645 72.1938 29.4863 72.0876 29.4408 71.9664C29.3504 71.3398 29.3579 70.703 29.4631 70.0787C28.7047 69.654 28.3846 68.7814 28.501 67.5115ZM63.3005 77.6661C62.5557 87.8842 62.1174 98.1456 61.6635 108.38C61.6411 108.893 62.4434 109.011 62.4799 108.468C63.1685 98.2634 63.7681 87.9741 64.1115 77.7533C64.1288 77.235 63.3389 77.1378 63.3005 77.6661ZM7.19044 57.3871C12.549 60.2132 17.1788 61.8141 23.0196 64.2251C23.5123 64.4283 23.8548 63.6648 23.3584 63.4594C17.2925 60.9479 12.5951 59.3264 6.96532 56.3934C6.90264 56.3577 6.83185 56.3386 6.75971 56.338C6.68756 56.3374 6.61646 56.3553 6.55318 56.3899C6.4899 56.4246 6.43656 56.4749 6.39823 56.536C6.35991 56.5971 6.33788 56.667 6.33425 56.7391C6.21505 60.6781 6.3343 64.6207 6.69134 68.5453C6.92426 72.0685 7.35309 75.576 7.97584 79.0515C8.05758 79.5374 8.78134 79.3552 8.71467 78.8775C8.12105 74.6331 7.83383 72.5906 7.52104 68.3156C7.2256 64.2918 7.27902 61.3132 7.19044 57.3871ZM58.7949 77.7606C51.0089 75.0934 43.3356 72.1381 35.7003 69.07C35.6098 69.0299 35.5106 69.0137 35.4121 69.023C35.3136 69.0323 35.2191 69.0668 35.1378 69.1232C35.0565 69.1796 34.9911 69.2559 34.9478 69.3449C34.9045 69.4338 34.8848 69.5324 34.8907 69.6312C34.8286 71.8404 34.5454 75.4761 34.403 76.7638C31.3337 75.6664 28.3371 74.3756 25.4311 72.8993C25.326 70.0951 25.3146 67.964 25.363 65.1553C25.3731 64.5471 24.6324 64.4055 24.5785 65.0745C24.3256 68.2252 24.4511 70.2887 24.4466 72.3495C24.4466 72.9495 24.4329 73.4454 24.9626 73.7423C28.0224 75.3979 31.2334 76.7574 34.5518 77.8022C34.8057 77.8816 35.1724 77.8478 35.2231 77.5227C35.5149 75.6825 35.4866 72.4929 35.6998 69.9043C43.1142 73.0427 50.6774 75.8469 58.288 78.4666C58.0999 82.8959 57.7428 87.3348 57.4885 91.6505C57.2373 95.9076 56.9743 99.01 56.7414 103.17C47.2225 99.0744 37.5035 94.6003 28.0718 89.9427C21.852 86.8714 15.7916 83.6352 9.6526 80.4187C9.22199 80.1904 8.80554 80.8214 9.24163 81.0662C15.3381 84.4978 20.5159 87.1088 26.779 90.2235C36.7231 95.1688 46.7613 99.7781 56.9624 104.157C57.0178 104.187 57.0798 104.203 57.1428 104.203C57.2058 104.203 57.2678 104.187 57.3231 104.157C57.3785 104.127 57.4255 104.084 57.4598 104.031C57.4941 103.978 57.5146 103.918 57.5195 103.855C57.8068 99.3657 58.0584 96.1341 58.3232 91.6441C58.567 87.5093 58.8762 83.2516 59.0616 79.1132C59.0785 78.6935 59.2461 77.9154 58.7949 77.7606ZM98.6822 67.4339C89.2756 71.2696 78.6031 74.8112 68.8993 77.7862C68.57 77.8871 68.6139 78.3497 68.5865 78.6273C67.7426 87.1554 66.9924 94.641 66.2156 103.211C66.1887 103.506 66.4047 103.759 66.712 103.652C71.3902 102.063 75.9816 100.154 80.5986 98.3958C85.2156 96.6373 89.2838 95.1537 93.8647 93.2898C93.9601 93.2513 94.0369 93.1773 94.0789 93.0833C94.1208 92.9894 94.1247 92.8828 94.0897 92.7861C94.0546 92.6893 93.9834 92.61 93.8911 92.5647C93.7987 92.5194 93.6923 92.5117 93.5944 92.5432C88.934 94.1971 84.9435 95.8725 80.321 97.6305C75.9209 99.3036 71.4482 100.859 67.0988 102.665C67.902 94.214 68.6687 86.9357 69.4034 78.4419C78.9013 75.872 89.1906 72.1071 98.3411 68.4513C97.0785 76.5875 96.2588 82.9635 94.2223 91.0422C94.1017 91.5199 94.7958 91.6094 94.925 91.1285C97.1625 82.8041 97.936 76.3336 99.2594 67.8161C99.311 67.4759 98.9365 67.3302 98.6822 67.4339ZM120.826 23.8406C120.434 23.4456 119.905 24.1356 120.295 24.5255C126.185 30.4097 129.346 38.9158 126.652 47.0211C124.261 54.2126 117.409 59.3113 109.711 58.1072C113.695 47.9416 117.097 37.5572 119.9 27.0046C119.926 26.9044 119.912 26.7981 119.861 26.708C119.81 26.6179 119.726 26.5512 119.627 26.522C119.528 26.4928 119.421 26.5033 119.329 26.5513C119.237 26.5994 119.168 26.6812 119.136 26.7795C116.162 37.3656 112.92 47.8439 108.888 58.0757C108.784 58.3387 108.708 58.7191 109.082 58.7935C115.265 60.0264 121.739 56.9957 125.208 51.828C131.349 42.683 128.113 31.1787 120.826 23.8406ZM117.025 15.6541C115.473 25.6338 103.732 59.9931 102.345 60.4817C100.959 60.9703 91.8144 57.5912 89.5998 56.509C93.6364 52.8102 99.1123 44.2256 89.6276 39.0839C80.3434 34.0532 73.1432 36.645 72.3016 47.6343C69.7527 44.3854 65.8512 45.2324 64.0571 45.8681C63.838 41.0734 55.8204 38.9556 52.3788 41.1305C49.0385 36.561 42.3648 36.7573 39.5054 38.888C40.7762 33.6554 50.7468 1.18386 51.5874 0.679279C52.4281 0.1747 115.202 14.7801 117.025 15.6541ZM47.3732 33.27C46.9652 32.1099 46.4984 30.9712 45.9745 29.8585C45.9244 29.7789 45.8479 29.7195 45.7583 29.6906C45.6688 29.6618 45.572 29.6654 45.4848 29.7008C45.3977 29.7362 45.3258 29.8011 45.2817 29.8843C45.2376 29.9674 45.2243 30.0633 45.2439 30.1553C45.6531 31.315 46.1216 32.4529 46.6476 33.5646C46.8234 33.9682 47.533 33.6874 47.3732 33.27ZM52.7413 29.1147C52.8226 28.6859 52.1217 28.5297 51.992 28.9439C51.5778 30.2681 51.2518 31.8303 50.9445 33.1951C50.8495 33.618 51.5778 33.7856 51.6938 33.3655C52.0746 31.9855 52.4756 30.5188 52.7413 29.1147ZM57.1428 32.9705C56.547 33.8112 55.7827 34.5186 54.8985 35.0477C54.4761 35.3103 54.8131 35.9852 55.246 35.7377C56.284 35.1975 57.16 34.3913 57.7844 33.4015C57.8126 33.3594 57.8323 33.3121 57.8423 33.2624C57.8523 33.2127 57.8525 33.1614 57.8427 33.1117C57.8329 33.0619 57.8134 33.0145 57.7853 32.9723C57.7572 32.93 57.721 32.8937 57.6789 32.8655C57.6368 32.8372 57.5895 32.8175 57.5397 32.8075C57.49 32.7975 57.4388 32.7974 57.389 32.8072C57.3392 32.817 57.2919 32.8365 57.2496 32.8646C57.2074 32.8927 57.1711 32.9288 57.1428 32.9709V32.9705ZM67.428 17.3646C66.4734 14.2217 64.8408 11.3266 62.6454 8.8835C60.4499 6.44038 57.7451 4.50879 54.7217 3.225C54.624 3.18733 54.5154 3.18911 54.4189 3.22997C54.3224 3.27083 54.2455 3.34757 54.2045 3.44401C54.1635 3.54045 54.1616 3.64904 54.1992 3.74688C54.2367 3.84471 54.3108 3.92414 54.4058 3.9684C57.5831 5.45152 60.3671 7.66129 62.5326 10.4192C64.6982 13.177 66.1846 16.4056 66.8718 19.8441C68.1504 26.3087 66.5759 34.3194 60.736 38.1469C60.3461 38.4026 60.7287 39.0953 61.147 38.8702C68.4075 34.9769 69.6358 24.5949 67.428 17.3646ZM72.2226 37.9889C71.3696 37.002 70.4545 36.0705 69.4828 35.2002C69.1472 34.9135 68.6609 35.4139 68.9399 35.7518C69.7917 36.7405 70.7058 37.6738 71.6765 38.546C71.992 38.8355 72.5208 38.3295 72.2226 37.9889ZM78.2136 34.0564C77.8392 32.8636 77.3502 30.9166 76.8437 29.8033C76.8109 29.7171 76.7483 29.6456 76.6673 29.6018C76.5862 29.5579 76.4921 29.5446 76.402 29.5642C76.312 29.5838 76.232 29.6351 76.1765 29.7087C76.1211 29.7823 76.0939 29.8734 76.0999 29.9654C76.4702 31.4432 76.9188 32.9002 77.4438 34.3303C77.6045 34.8322 78.3703 34.5559 78.2146 34.0564H78.2136ZM87.7824 29.2681C87.8513 28.8265 87.1431 28.7138 87.0202 29.1311C86.5545 30.7883 86.1781 32.4693 85.8928 34.1669C85.8184 34.602 86.5321 34.7198 86.6495 34.3039C87.1168 32.6467 87.495 30.9657 87.7824 29.2681ZM97.1004 34.218C97.3611 33.8984 96.852 33.3833 96.5068 33.707C95.5374 34.6107 94.467 35.8317 93.5843 36.8391C93.5062 36.9086 93.4588 37.0064 93.4528 37.1109C93.4467 37.2154 93.4823 37.318 93.5519 37.3962C93.6215 37.4743 93.7193 37.5217 93.8237 37.5277C93.9282 37.5338 94.0308 37.4982 94.109 37.4286C95.078 36.4514 96.2387 35.2774 97.1004 34.218ZM100.841 53.0628C99.6394 52.8255 98.4585 52.4941 97.3091 52.0719C96.8045 51.8892 96.4808 52.5121 96.9835 52.7189C98.1805 53.1965 99.4175 53.5669 100.68 53.8258C100.731 53.8394 100.785 53.8424 100.837 53.8347C100.889 53.827 100.94 53.8087 100.985 53.781C101.03 53.7532 101.069 53.7165 101.099 53.6732C101.13 53.6299 101.151 53.5808 101.162 53.5289C101.173 53.4771 101.173 53.4236 101.163 53.3716C101.153 53.3197 101.132 53.2704 101.102 53.2268C101.072 53.1832 101.033 53.1461 100.988 53.1179C100.943 53.0897 100.893 53.071 100.841 53.0628ZM101.952 42.9639C100.673 43.0236 99.3992 43.1676 98.1392 43.3949C98.0273 43.4001 97.9219 43.4488 97.8454 43.5307C97.7689 43.6125 97.7274 43.7211 97.7299 43.8331C97.7323 43.9451 97.7785 44.0517 97.8585 44.1302C97.9384 44.2086 98.0459 44.2527 98.158 44.253C99.4741 44.1773 100.784 44.0142 102.078 43.7648C102.169 43.7332 102.246 43.6705 102.296 43.5878C102.345 43.5051 102.364 43.4076 102.349 43.3123C102.334 43.2171 102.286 43.1302 102.213 43.0668C102.141 43.0035 102.048 42.9677 101.952 42.9657V42.9639Z" fill="#121111"/>
</svg>
