<svg width="186" height="141" viewBox="0 0 186 141" fill="none" xmlns="http://www.w3.org/2000/svg">
<path d="M105.184 112.895C104.058 112.832 102.403 112.815 100.377 112.895C95.3298 113.086 90.362 114.037 85.3146 114.181C83.8836 114.23 82.4532 114.436 81.408 114.021C80.1695 113.448 78.9765 112.781 77.8393 112.027C73.0969 109.053 69.5601 106.803 67.567 105.822C65.5739 104.842 65.2518 104.938 67.0202 106.32C68.7885 107.702 72.2286 110.291 76.521 113.217C77.6299 113.941 78.6751 114.681 80.0094 115.387C80.5828 115.68 81.1943 115.891 81.8262 116.014L80.8293 135.707C80.8209 135.877 80.8805 136.044 80.9951 136.171C81.1097 136.297 81.2699 136.373 81.4404 136.382C81.6109 136.39 81.7778 136.33 81.9044 136.216C82.0309 136.101 82.1067 135.941 82.1152 135.771L83.1121 116.11C83.6264 116.11 84.1089 116.094 84.5908 116.078C91.4072 115.804 98.2879 114.613 105.039 113.619C107.209 113.281 107.454 113.024 105.184 112.895Z" fill="#1B1818"/>
<path d="M106.618 22.5661L111.137 21.9232C110.665 21.5379 110.109 21.2681 109.514 21.1351C108.209 20.701 106.618 22.5661 106.618 22.5661Z" fill="#1B1818"/>
<path d="M98.417 20.9423L102.243 22.1964C102.245 22.1805 100.492 19.2223 98.417 20.9423Z" fill="#1B1818"/>
<path d="M102.195 19.1578C101.921 16.1659 98.4973 17.3754 98.1116 18.0483C97.7258 18.7211 98.5132 19.1419 98.7386 18.9649C101.343 17.0667 102.275 20.1222 102.195 19.1578Z" fill="#1B1818"/>
<path d="M111.633 19.5274C111.489 18.7393 108.611 16.4247 107.341 19.1734C106.939 20.0576 108.885 17.4693 110.715 20.1862C110.878 20.4434 111.778 20.3129 111.633 19.5274Z" fill="#1B1818"/>
<path d="M103.689 27.4205C104.396 27.5331 104.38 26.3599 104.123 26.2148C103.849 26.0544 102.515 25.6521 102.435 25.5075C102.355 25.3802 104.011 22.3247 103.641 21.762C103.641 21.762 101.325 24.736 101.278 25.4273C101.23 26.1187 102.982 27.3078 103.689 27.4205Z" fill="#1B1818"/>
<path d="M106.473 30.459C106.534 30.3728 106.565 30.2687 106.561 30.163C106.557 30.0573 106.517 29.956 106.449 29.8751C106.381 29.7942 106.288 29.7381 106.185 29.7158C106.081 29.6935 105.973 29.7062 105.878 29.7518C103.659 31.7774 102.695 29.2693 102.808 30.0701C103.161 32.6132 106.151 31.0861 106.473 30.459Z" fill="#1B1818"/>
<path d="M95.1533 27.9348C96.0534 31.2787 98.0631 34.1401 101.696 35.5387C103.519 36.2327 105.492 36.4379 107.419 36.1338C108.631 35.9519 109.797 35.5429 110.857 34.9282C111.58 34.494 111.918 34.1401 111.886 34.0281C111.854 33.9008 111.484 33.9956 110.712 34.219C109.627 34.5352 108.512 34.7346 107.384 34.8136C105.955 34.8888 104.525 34.6692 103.184 34.1687C101.843 33.6681 100.618 32.8972 99.5877 31.9038C96.2438 28.6573 96.2278 23.9785 96.2138 19.6377C96.2138 18.1271 96.2298 16.9215 96.2298 16.0691C96.2298 14.3975 96.0044 14.1562 95.5384 15.8278C94.5104 19.511 94.0921 24.0606 95.1533 27.9348Z" fill="#1B1818"/>
<path d="M135.891 50.7946C135.004 49.9317 134.034 49.1566 132.998 48.4801C131.548 47.5599 130.02 46.769 128.432 46.1165C126.533 45.3318 124.577 44.6934 122.581 44.2067C120.637 43.73 118.667 43.3703 116.681 43.1297C116.536 39.8195 116.375 36.4259 116.183 33.1304C116.055 31.1048 115.928 29.2721 115.829 27.6648C116.523 27.5382 117.206 27.3553 117.87 27.118C120.089 26.0574 119.703 22.3437 117.034 22.28C116.327 22.28 116.118 22.5531 116.247 22.6015C116.707 22.6798 117.149 22.8435 117.549 23.084C117.769 23.223 117.953 23.4118 118.087 23.6352C118.221 23.8586 118.3 24.1103 118.319 24.37C118.337 24.6297 118.295 24.8902 118.194 25.1303C118.093 25.3705 117.938 25.5836 117.74 25.7525C116.952 26.3955 115.795 26.074 114.894 26.4279L114.332 26.6526L114.348 27.3115C114.412 31.9419 114.603 37.8251 114.878 43.8057C113.849 44.4327 111.441 45.6384 108.801 45.2202C106.84 44.9146 105.12 43.7561 103.69 41.7642C103.839 40.9576 103.924 40.1405 103.944 39.3204C104.025 37.7927 103.8 37.5679 103.269 39.0473C103.156 39.3656 102.722 41.4421 102.385 41.4262C102.239 41.4141 102.094 41.3929 101.951 41.3625C100.633 41.2016 99.2985 41.2504 97.9963 41.507C94.1463 42.1413 90.3779 43.198 86.7595 44.6581C85.1875 45.2719 83.6566 45.9861 82.1762 46.7963C81.2088 47.3154 80.2982 47.9341 79.4593 48.6424C78.3504 49.7354 78.4631 49.9926 79.749 49.3019C80.4244 48.9963 81.4041 48.5297 82.6587 48.0154C87.6152 45.9924 92.735 44.3952 97.9626 43.2411C99.1695 42.9522 100.403 42.7905 101.644 42.7586C102.019 42.7966 102.398 42.7805 102.769 42.7108C102.785 42.7108 104.956 44.8968 105.293 45.1056C106.296 45.7444 107.417 46.1772 108.589 46.3787C111.037 46.7646 113.541 46.226 115.614 44.8675L115.711 44.8841C116.916 44.9967 118.17 45.1731 119.392 45.3825C124.994 46.3461 130.376 48.3177 135.275 51.2014C135.773 51.5553 136.159 51.8609 136.448 52.0538C136.738 52.2467 136.914 52.3269 136.979 52.3084C137.097 52.2734 136.759 51.7915 135.891 50.7946Z" fill="#1B1818"/>
<path d="M97.2452 12.5508C97.7595 14.0938 98.0492 14.2059 97.9683 12.5667C97.841 9.68875 97.5667 6.55427 99.6871 4.25561C100.371 3.50159 101.26 2.96311 102.245 2.70594C103.231 2.44877 104.269 2.48403 105.235 2.80741C107.357 3.64322 108.659 5.71717 110.861 6.4887C111.677 6.78425 112.534 6.94716 113.401 6.97122C114.009 7.02105 114.621 6.94854 115.201 6.75797C115.78 6.5674 116.315 6.26263 116.775 5.86168C117.37 5.23465 117.338 4.73622 117.258 4.68847C117.145 4.60763 116.968 4.89727 116.422 5.23465C115.562 5.69791 114.57 5.85652 113.608 5.68471C109.573 5.12198 107.516 0.540572 103.288 0.669159C102.218 0.715778 101.173 1.01192 100.238 1.53395C99.3033 2.05597 98.5033 2.78941 97.9021 3.67569C96.1197 6.24871 96.2967 9.68875 97.2452 12.5508Z" fill="#1B1818"/>
<path d="M113.544 10.3964C112.483 9.9298 111.762 9.02969 110.94 8.25817C109.429 6.82715 107.452 6.39301 105.587 7.47009C104.624 8.06895 103.877 8.95933 103.455 10.0118C103.033 11.0642 102.958 12.2239 103.24 13.3221C103.384 13.8848 103.558 14.1738 103.673 14.1897C103.801 14.2063 103.864 13.9351 103.963 13.4023C104.218 11.795 104.654 10.0921 106.117 9.15828C106.453 8.93255 106.835 8.78378 107.235 8.7226C107.635 8.66142 108.044 8.68933 108.432 8.80434C110.087 9.35116 110.956 11.2322 112.628 11.8911C113.899 12.4512 115.323 12.5591 116.663 12.1966C117.088 12.0752 117.483 11.8667 117.824 11.5844C118.164 11.3022 118.442 10.9522 118.641 10.5568C118.881 10.0107 118.785 9.67263 118.688 9.62425C118.576 9.56059 118.434 9.76939 118.11 10.0749C117.655 10.5111 117.077 10.7971 116.455 10.8942C115.457 10.9923 114.452 10.8204 113.544 10.3964Z" fill="#1B1818"/>
<path d="M116.857 15.1869C116.307 14.6884 115.67 14.2961 114.977 14.0296C114.109 13.7281 113.161 13.7507 112.308 14.0932C111.952 14.2317 111.641 14.4653 111.408 14.7686C111.29 14.9187 111.208 15.094 111.169 15.2809C111.13 15.4677 111.135 15.661 111.183 15.8457C111.215 15.9902 111.328 16.1347 111.472 16.1003C111.663 16.0679 111.858 15.7464 112.019 15.6337C112.214 15.5038 112.432 15.4112 112.662 15.3606C114.366 15.0392 115.25 16.3734 116.391 17.3538C117.14 17.9933 118.017 18.4648 118.964 18.7364C119.559 18.9337 120.194 18.9796 120.811 18.8702C121.429 18.7607 122.009 18.4992 122.5 18.1094C123.109 17.6539 123.541 17.0015 123.722 16.2633C123.85 15.4759 122.693 16.4543 122.532 16.5529C121.989 16.9628 121.345 17.2181 120.668 17.292C119.157 17.3251 117.919 16.0711 116.857 15.1869Z" fill="#1B1818"/>
<path d="M157.994 35.8601C157.803 35.7799 157.64 35.8282 157.56 35.7328C157.479 35.6691 157.464 35.347 157.946 35.1382C158.235 35.0264 158.554 35.0208 158.846 35.1223C159.278 35.2516 159.645 35.5384 159.875 35.9256C160.139 36.3699 160.313 36.8614 160.389 37.3726C160.497 37.9387 160.535 38.5159 160.502 39.0913C160.476 39.4709 160.378 39.8421 160.213 40.1849C160.003 40.598 159.664 40.9312 159.248 41.1334C158.606 41.3729 157.924 41.4874 157.239 41.4708C157.196 41.4717 157.153 41.477 157.111 41.4867C157.242 41.4719 157.362 41.4088 157.449 41.3098C157.767 40.8922 157.61 40.812 157.658 40.9915C157.674 41.2811 157.69 41.5542 157.706 41.8439C157.722 42.4066 157.738 42.9528 157.722 43.4671C157.738 45.056 157.543 46.64 157.143 48.1777C156.838 49.0619 156.597 48.9334 156.436 48.0326C156.275 47.1319 156.181 45.4768 156.002 43.2742C155.954 42.7281 155.906 42.1653 155.857 41.6026L155.825 41.1844C155.78 40.927 155.797 40.6626 155.873 40.4128C155.928 40.2576 156.015 40.1157 156.129 39.9966C156.243 39.8774 156.38 39.7837 156.533 39.7215C156.685 39.6578 156.849 39.6251 157.015 39.6254C157.192 39.6095 157.352 39.5929 157.497 39.5929C158.108 39.5929 158.462 39.5293 158.526 39.4325C158.622 39.3841 158.735 39.127 158.781 38.7087C158.818 38.2758 158.824 37.8407 158.796 37.4069C158.796 37.0958 158.747 36.7866 158.652 36.4903C158.605 36.3379 158.52 36.2001 158.405 36.0898C158.29 35.9795 158.149 35.9004 157.994 35.8601Z" fill="#1B1818"/>
<path d="M145.18 40.3296C145.775 40.4263 145.759 39.4454 145.533 39.3168C145.055 39.1479 144.587 38.9493 144.133 38.7222C144.069 38.6096 145.451 36.0696 145.13 35.603C145.13 35.603 143.2 38.0787 143.169 38.6586C143.122 39.2366 144.585 40.2328 145.18 40.3296Z" fill="#1B1818"/>
<path d="M147.496 42.8535C147.548 42.782 147.575 42.695 147.571 42.6065C147.568 42.5181 147.534 42.4335 147.477 42.3664C147.419 42.2994 147.34 42.2538 147.253 42.2372C147.166 42.2206 147.076 42.2338 146.998 42.2748C145.152 43.9624 144.345 41.8725 144.442 42.5479C144.749 44.6537 147.224 43.3838 147.496 42.8535Z" fill="#1B1818"/>
<path d="M150.954 45.0718C148.414 46.8077 145.423 46.1164 143.187 44.2519C139.538 41.1963 138.462 36.0694 138.815 31.5205C138.878 30.7005 138.976 29.9927 139.056 29.3981C140.329 29.2218 143.703 28.4337 144.313 25.2668C143.668 25.1858 143.016 25.1698 142.368 25.219C141.031 25.2827 139.297 26.5367 138.558 27.9996C138.082 29.0314 137.732 30.1161 137.512 31.2308C136.355 36.536 137.915 43.143 142.657 46.2781C145.149 47.9179 149.248 48.1878 151.322 45.6995C151.82 45.0883 151.884 44.6383 151.82 44.5581C151.725 44.4448 151.5 44.686 150.954 45.0718Z" fill="#1B1818"/>
<path d="M148.189 35.201C148.237 35.5868 148.443 35.8923 148.687 35.8764C148.912 35.844 149.073 35.5066 149.025 35.1208C148.976 34.7351 148.77 34.4295 148.526 34.4454C148.302 34.4613 148.14 34.7994 148.189 35.201Z" fill="#1B1818"/>
<path d="M142.288 35.1209C142.336 35.5226 142.561 35.8282 142.802 35.8123C143.043 35.7798 143.204 35.4424 143.156 35.0242C143.108 34.6225 142.882 34.317 142.641 34.3329C142.402 34.3653 142.255 34.7186 142.288 35.1209Z" fill="#1B1818"/>
<path d="M144.876 32.8382C144.008 30.2016 141.195 32.0024 140.985 32.6931C140.776 33.3838 141.564 33.5939 141.741 33.3844C143.654 31.1182 145.149 33.6741 144.876 32.8382Z" fill="#1B1818"/>
<path d="M150.805 32.7742C150.532 32.1147 147.558 30.5716 146.93 33.2401C146.739 34.0925 147.976 31.4577 150.113 33.5132C150.309 33.7061 151.081 33.433 150.805 32.7742Z" fill="#1B1818"/>
<path d="M152.691 33.0955C151.469 29.5428 149.122 26.4885 145.022 25.3929C144.814 25.3452 144.604 25.2968 144.379 25.2656C146.647 28.362 149.464 31.016 152.691 33.0955Z" fill="#1B1818"/>
<path d="M125.121 64.0092C123.771 63.1893 124.028 63.0283 125.523 63.3981C127.017 63.768 129.767 64.6713 133.48 65.6968C138.653 67.1812 143.985 68.0395 149.362 68.2532C150.713 68.2851 151.822 68.301 152.609 68.3169C154.152 68.3646 154.039 68.6352 152.545 69.04C151.475 69.311 150.383 69.4884 149.281 69.5703C143.687 70.0688 137.95 69.0082 132.643 67.2398C130.039 66.4039 127.52 65.3222 125.121 64.0092Z" fill="#1B1818"/>
<path d="M164.247 124.902C163.248 124.115 162.144 123.471 160.968 122.989C159.285 122.283 157.542 121.735 155.759 121.349C151.509 120.513 147.181 120.135 142.85 120.224C141.692 120.24 139.476 120.658 138.462 119.999C137.642 119.468 137.818 117.266 137.642 116.269C137.578 115.916 137.514 115.642 137.465 115.417C140.189 114.962 142.88 114.324 145.519 113.507C146.983 106.321 147.544 97.737 145.229 90.7118C145.326 91.0301 142.899 90.3744 142.576 90.0529C142.272 89.7792 141.564 89.1044 141.741 88.606C141.932 88.0274 142.866 88.268 143.268 88.4615C149.252 91.4031 151.885 80.9378 147.352 77.9313C146.456 77.4186 145.457 77.1135 144.427 77.0383C143.398 76.9632 142.365 77.12 141.404 77.4972C138.301 78.7067 138.333 82.2078 139.217 84.9247C139.298 85.1793 139.33 85.5676 139.073 85.6479C138.962 85.667 138.849 85.6443 138.754 85.5842C138.342 85.3744 137.977 85.0815 137.683 84.7237C137.389 84.366 137.173 83.9513 137.047 83.5058C136.922 83.0602 136.89 82.5935 136.954 82.135C137.017 81.6765 137.175 81.2361 137.418 80.8417C132.112 77.4819 125.087 76.4207 119.992 80.7781C119.226 80.1986 118.323 79.8276 117.371 79.701C114.012 79.3152 110.925 82.6432 109.96 85.6173C108.771 89.282 112.709 91.6291 115.748 92.1441C116.403 92.2674 117.078 92.2457 117.725 92.0804C118.095 91.9836 118.706 91.4368 118.706 92.1924C118.706 94.4274 114.445 93.8323 114.462 93.7202C113.299 100.942 113.018 108.278 113.625 115.567C117.219 116.148 120.853 116.438 124.493 116.436C124.493 116.467 124.477 116.499 124.477 116.532C124.332 117.69 124.203 119.49 124.059 121.484C124.027 121.675 123.995 121.708 123.978 121.708C123.864 121.784 123.74 121.844 123.609 121.885C123.062 122.046 122.516 122.223 121.937 122.4C120.763 122.77 119.526 123.171 118.239 123.621C113.772 125.129 109.43 126.983 105.253 129.168C101.186 131.354 96.8458 134.006 93.7431 137.463C93.2363 137.961 92.7635 138.493 92.328 139.054C90.8976 140.9 90.946 141.224 92.6979 139.697C95.7379 137.039 99.0398 134.696 102.553 132.705C107.634 129.872 112.922 127.427 118.371 125.39C119.738 124.859 121.023 124.377 122.229 123.926C122.824 123.701 123.403 123.491 123.948 123.283C124.203 123.182 124.446 123.053 124.672 122.897C126.318 124.065 128.28 124.704 130.298 124.73C134.076 124.73 137.082 122.447 138.224 121.434C138.663 121.562 139.109 121.664 139.56 121.74C140.526 121.859 141.497 121.923 142.47 121.931C149.27 122.155 155.845 122.766 162.355 124.824C162.902 125.049 163.385 125.258 163.771 125.419C165.244 126.175 165.613 126.112 164.247 124.902ZM125.327 121.767C125.36 120.594 125.295 119.725 125.264 118.874C125.232 118.037 125.183 117.33 125.151 116.751C125.135 116.639 125.135 116.543 125.119 116.433C129.092 116.436 133.059 116.124 136.983 115.501C136.943 115.713 136.916 115.928 136.903 116.143C136.839 116.819 136.806 117.494 136.79 118.169C136.774 118.619 136.774 119.07 136.758 119.52C136.719 119.928 136.808 120.338 137.012 120.693C137.018 120.699 137.023 120.707 137.026 120.715C137.029 120.724 137.03 120.733 137.029 120.741C137.028 120.75 137.024 120.757 137.018 120.763C137.012 120.769 137.005 120.773 136.996 120.773C135.769 121.801 134.355 122.581 132.832 123.073C130.784 123.684 128.581 123.507 126.658 122.574C126.416 122.461 126.192 122.333 125.966 122.204C125.906 122.155 125.327 121.882 125.327 121.769V121.767Z" fill="#1B1818"/>
<path d="M185.229 76.725C184.974 71.4039 182.416 65.2469 178.011 61.9673C176.789 61.0513 175.969 60.7617 175.857 60.8259C175.729 60.9068 176.275 61.3085 177.352 62.3537C178.851 63.8195 180.096 65.5254 181.033 67.4011C182.378 70.1566 183.195 73.1389 183.445 76.1947C184.2 86.4028 174.796 92.7691 165.875 94.5694C162.517 95.2543 159.073 95.4115 155.667 95.0353C154.156 94.859 153.32 94.682 153.207 94.8106C153.111 94.8908 153.738 95.2448 155.265 95.6783C164.01 98.1545 175.36 95.1321 181.308 88.1712C184.022 84.9928 185.424 80.9001 185.229 76.725Z" fill="#1B1818"/>
<path d="M156.194 80.7928C157.624 81.0708 159.085 81.1464 160.535 81.0175C162.607 80.8866 164.659 80.5419 166.66 79.9888C168.1 79.6173 169.484 79.0549 170.775 78.3166C171.483 77.8506 171.483 77.5775 170.648 77.6093C169.249 77.7532 167.859 77.9734 166.485 78.2688L166.002 78.3649C166.517 76.379 166.324 74.2756 165.456 72.4168C165.396 72.3017 165.293 72.2149 165.17 72.1757C165.046 72.1365 164.912 72.148 164.797 72.2077C164.682 72.2674 164.595 72.3703 164.556 72.494C164.516 72.6176 164.528 72.7517 164.588 72.8669C165.402 74.6633 165.511 76.7005 164.893 78.5737C163.493 78.8315 162.015 79.0722 160.568 79.3134C158.575 79.6317 157.067 79.8602 156.261 80.1015C155.471 80.3103 155.375 80.5675 156.194 80.7928Z" fill="#1B1818"/>
<path d="M165.098 52.9004C165.098 52.9004 163.86 52.4987 164.937 49.7977C165.837 47.5475 169.792 37.1465 167.718 28.1919C165.58 19.0131 155.388 13.8524 146.884 17.936C143.841 19.4703 141.245 21.7624 139.346 24.5914C141.323 24.4004 143.911 23.8676 145.825 24.382C156.627 27.2465 155.277 43.6701 153.348 47.3221C151.965 49.9429 149.699 54.1061 145.985 53.19C145.735 53.1255 145.492 53.034 145.262 52.9169C145.394 51.0712 145.431 49.22 145.374 47.3705C144.576 47.2429 143.811 46.9589 143.124 46.5347C141.836 45.7473 140.721 44.708 139.844 43.4791C139.941 44.2023 140.005 44.8293 140.07 45.3761C140.15 48.093 139.828 50.8093 139.957 53.5427C140.005 54.5714 137.577 54.3944 136.919 54.5071C135.171 54.8142 133.451 55.2612 131.774 55.8439C129.719 56.4668 127.752 57.3529 125.923 58.4799C125.201 59.0097 124.509 59.5786 123.849 60.1841C123.849 60.1841 142.658 70.2801 166.128 61.6151L174.858 58.641C171.801 56.412 168.532 54.4892 165.098 52.9004ZM163.748 34.4615C163.635 34.6868 163.523 34.8956 163.394 35.105C163.297 35.2495 163.217 35.3138 163.185 35.3138C163.169 35.3138 163.376 31.1341 163.346 30.7305C163.205 28.9851 162.747 27.28 161.996 25.6984C161.271 24.1331 160.201 22.7518 158.868 21.6578C157.534 20.5638 155.97 19.7853 154.293 19.3804C153.423 19.1878 152.543 19.0431 151.657 18.9469C151.03 18.8661 150.66 18.8196 150.628 18.7057C150.596 18.6089 150.869 18.4962 151.528 18.3874C152.472 18.2597 153.427 18.2435 154.374 18.339C155.78 18.4762 157.148 18.8741 158.409 19.5122C161.511 21.0559 163.392 24.2387 164.18 27.5184C164.522 28.9162 164.626 30.3619 164.485 31.7942C164.378 32.7159 164.129 33.6155 163.748 34.4615Z" fill="#325BD3"/>
<path d="M108.82 85.5669L85.0273 87.4957C84.7817 89.1614 84.8144 90.8563 85.1241 92.5113C85.8797 96.5465 86.1203 101.643 84.3525 99.9547C82.8572 98.5402 81.0424 92.3992 81.106 87.8172L59.0806 89.5996C59.0806 89.5996 69.2728 91.9944 67.1014 97.171C66.6285 98.3267 65.8508 99.3323 64.8512 100.081L82.7917 111.543L111.037 110.707C111.037 110.707 111.535 95.3707 111.696 93.074C111.681 93.0581 106.36 89.4252 108.82 85.5669ZM104.833 108.716C102.823 109.198 97.1164 109.423 92.085 109.23C87.0535 109.037 84.5932 108.475 86.5869 107.993C88.5966 107.51 94.3034 107.285 99.3349 107.478C104.383 107.671 106.842 108.234 104.833 108.716Z" fill="#325BD3"/>
<path d="M65.2856 93.9904C64.5994 93.1699 63.7444 92.5069 62.779 92.0464C61.8136 91.586 60.7603 91.3388 59.6908 91.3219C57.0388 91.1449 54.1933 92.0609 51.2193 92.5594C44.6282 93.6689 38.1174 93.3634 31.8478 90.9679C28.7181 89.7398 25.6685 88.3168 22.7168 86.7074C21.5595 82.9618 21.7358 76.3541 21.7358 76.2739C21.7396 76.1462 21.6927 76.0221 21.6055 75.9288C21.5182 75.8354 21.3975 75.7803 21.2698 75.7755C21.2048 75.7655 21.1384 75.7704 21.0756 75.7899C21.0128 75.8093 20.9552 75.8427 20.9072 75.8877C20.8592 75.9326 20.8221 75.9879 20.7985 76.0493C20.775 76.1107 20.7657 76.1766 20.7714 76.2421C20.7714 76.5152 20.611 82.1094 21.5429 86.032C20.5301 85.4533 19.6784 84.9549 19.003 84.5678C17.8457 83.8924 17.2206 83.4908 17.0933 83.555C16.966 83.6034 17.3479 84.1019 18.4116 85.002C21.6171 87.6586 25.1774 89.8554 28.9895 91.5288C32.6708 93.2329 36.4164 94.648 40.5 95.0172C40.805 95.0496 41.1264 95.0331 41.432 95.0655C41.2716 95.7085 41.0787 96.6888 40.8215 98.0714C40.4517 100.081 39.9691 102.782 39.4211 106.156C39.3084 106.831 33.3602 107.008 32.6848 107.008C30.2993 107.033 27.9177 106.806 25.5794 106.333C20.3347 105.339 15.3992 103.119 11.1757 99.8538C2.38083 92.9133 -0.15909 80.5326 3.45791 70.1979C5.15187 65.5663 8.18488 61.543 12.1713 58.6396C16.994 55.0544 22.7811 53.0773 28.4879 51.1484C22.958 51.9518 17.4924 53.6241 12.7646 56.5981C7.63218 59.746 3.72542 64.5486 1.68824 70.2144C-0.708545 77.0529 -0.548676 84.5278 2.1383 91.2576C4.9354 98.0734 11.2858 103.556 18.1984 105.934C25.384 108.394 32.8593 109.198 40.2543 107.157L40.479 107.093L40.5115 106.868C40.5433 106.595 40.5752 106.337 40.6076 106.064L43.3888 105.983L44.7396 95.084C48.9187 94.907 52.777 93.7981 56.844 92.9782C59.4489 92.4473 62.5032 92.4314 64.6248 94.2641C65.6217 95.1483 65.8789 95.9192 66.0399 95.9357C66.1036 95.9523 66.1202 95.7912 66.0559 95.4539C65.8756 94.9294 65.6158 94.4359 65.2856 93.9904ZM42.5059 105.067L40.7057 105.114C41.3161 100.051 41.686 96.6264 41.7503 95.0993C42.4098 95.1315 43.0688 95.1477 43.7275 95.1477L42.5059 105.067Z" fill="#1B1818"/>
<path d="M63.3401 97.0126C62.564 96.3323 61.6381 95.845 60.638 95.5905C59.6378 95.3361 58.5916 95.3217 57.5848 95.5485C56.5882 95.7056 55.66 96.1531 54.9163 96.835C54.5305 97.2691 54.6273 97.5098 55.1416 97.5098C56.4116 97.5263 57.665 97.2048 58.935 97.2551C60.1604 97.2601 61.3711 97.523 62.4883 98.0266C62.8379 98.2252 63.2284 98.3408 63.6297 98.3647C63.9346 98.3647 64.0797 98.2373 64.1116 98.1234C64.144 97.9961 64.0797 97.8821 63.9512 97.7217C63.7695 97.4672 63.5649 97.2299 63.3401 97.0126Z" fill="#1B1818"/>
<path d="M57.3437 102.269C54.772 100.823 51.7979 101.337 49.3057 102.656C48.1023 103.259 47.0227 104.082 46.1229 105.083C45.641 105.662 45.7212 105.919 46.4412 105.726C48.1294 105.26 49.6724 104.389 51.3122 103.781C53.0447 103.105 54.946 102.993 56.746 103.459C57.3889 103.62 57.8715 103.733 58.2101 103.845C58.5641 103.958 58.7888 104.036 58.9014 103.972C58.9976 103.909 58.9816 103.683 58.7105 103.313C58.3243 102.883 57.8607 102.529 57.3437 102.269Z" fill="#1B1818"/>
<path d="M60.3815 99.665C60.0293 99.3856 59.6529 99.1382 59.2566 98.926C57.7564 98.066 55.9804 97.8238 54.3047 98.2506C53.9024 98.3544 53.5216 98.5285 53.1799 98.7649C52.6974 99.1189 52.7458 99.376 53.276 99.4721C54.2888 99.6631 55.35 99.6332 56.3628 99.8579C58.34 100.309 59.9155 101.386 61.5228 102.575C61.9735 102.929 62.2625 102.929 62.1664 102.269C61.9234 101.206 61.2853 100.275 60.3815 99.665Z" fill="#1B1818"/>
<path d="M39.5811 29.8615C39.0188 29.9717 38.4868 30.2018 38.0215 30.5363L42.2655 31.3256C42.2496 31.3428 40.8192 29.5267 39.5811 29.8615Z" fill="#1B1818"/>
<path d="M50.0603 30.1371C48.1633 28.4329 46.3955 31.1658 46.3955 31.1658L50.0603 30.1371Z" fill="#1B1818"/>
<path d="M49.8202 28.2702C50.029 28.4472 50.8005 28.0793 50.4466 27.4344C50.1092 26.7749 46.9263 25.505 46.5405 28.318C46.4279 29.2047 47.4566 26.3605 49.8202 28.2702Z" fill="#1B1818"/>
<path d="M37.6352 28.2887C37.4589 29.0284 38.3106 29.1729 38.4717 28.9475C40.3177 26.456 42.0562 28.98 41.7029 28.1276C40.6252 25.4756 37.8147 27.549 37.6352 28.2887Z" fill="#1B1818"/>
<path d="M44.821 36.0539C45.4958 35.973 47.1999 34.9284 47.184 34.2715C47.1681 33.6145 45.11 30.7188 45.11 30.7188C44.7243 31.2172 46.1712 34.1753 46.091 34.3039C45.5606 34.5307 45.0185 34.7291 44.4671 34.8985C44.194 35.0245 44.1297 36.1341 44.821 36.0539Z" fill="#1B1818"/>
<path d="M42.6508 38.1593C42.4745 37.9824 41.7832 38.1752 42.0562 38.8023C42.3293 39.4134 45.0946 40.9723 45.5447 38.5935C45.6873 37.8379 44.6745 40.1524 42.6508 38.1593Z" fill="#1B1818"/>
<path d="M28.6637 37.8856C28.6955 38.8984 30.5606 40.9412 32.1362 41.3263L32.1839 41.8566C32.7148 47.6436 33.422 50.4414 33.7594 48.1102C33.958 46.0964 34.0118 44.071 33.9205 42.0494C33.888 40.7126 33.8396 39.2842 33.7435 37.8054L33.711 37.2592C33.7186 36.8877 33.612 36.5229 33.4055 36.214C33.2795 36.0536 33.1216 35.921 32.9418 35.8247C32.762 35.7284 32.5642 35.6704 32.3609 35.6544L31.7981 35.5742C31.2285 35.5485 30.675 35.3769 30.1908 35.0758C30.0145 34.9019 29.8762 34.6933 29.7848 34.4632C29.6934 34.2331 29.6509 33.9864 29.6599 33.739C29.6446 33.2055 29.6873 32.6719 29.7872 32.1476C29.834 31.7934 29.9435 31.4505 30.1106 31.1348C30.7376 30.572 31.4474 30.6363 31.5747 31.6491C31.8153 33.4493 32.5066 29.479 33.6805 28.9163C34.8543 28.3536 40.5128 27.4051 41.8923 19.6224C41.8923 19.6224 44.0948 23.8346 50.8788 25.1529C50.8628 25.3133 50.8469 25.4903 50.8151 25.6991C50.7514 26.5349 50.7674 27.7406 50.8151 29.2002C50.8863 30.845 50.8703 32.4925 50.7674 34.1356C50.6523 36.0043 50.1653 37.8314 49.3351 39.5095C48.4894 41.1915 47.0266 42.4817 45.2521 43.1106C44.4035 43.3698 43.5183 43.4892 42.6313 43.4639C41.8371 43.4832 41.0425 43.4511 40.2525 43.3678C39.1184 43.2571 37.9919 43.0801 36.8786 42.8375C36.0912 42.6765 35.6252 42.5963 35.5418 42.6924C35.4584 42.7885 35.7513 43.0622 36.5069 43.4639C37.5926 44.0053 38.7434 44.4052 39.931 44.6537C40.6844 44.8082 41.4468 44.9145 42.2137 44.9719C42.0467 46.047 42.1235 47.1459 42.4384 48.1873C42.573 48.7601 42.819 49.3008 43.1622 49.7787C43.4035 50.0683 43.6607 50.1326 43.8854 49.7946C44.3036 49.1358 44.2393 47.3998 43.8535 45.9204C43.7834 45.6125 43.6865 45.3114 43.5639 45.0203H43.7893C44.3132 45.0083 44.8349 44.9491 45.3482 44.8433C46.4457 44.5829 47.4796 44.1043 48.3883 43.4359C49.297 42.7676 50.0619 41.9233 50.6375 40.9533C51.7546 39.0188 52.3786 36.8392 52.4543 34.6066C52.5163 33.184 52.4571 31.7587 52.2773 30.3461C53.0011 29.3174 56.811 23.2247 52.0227 15.4764C46.7659 6.98832 40.6573 14.4954 40.6573 14.4954C40.6573 14.4954 33.0535 9.94647 28.5039 15.9595C25.8056 19.4646 24.4232 23.8057 24.5979 28.2256C24.5979 28.2256 23.0064 28.1289 23.3438 30.3473C23.6812 32.5658 28.6312 36.7442 28.6637 37.8856ZM31.0266 26.0861C31.5251 25.7163 32.5378 25.2344 33.6467 24.5106C34.8604 23.7219 35.982 22.7999 36.9907 21.7619C37.7356 20.9798 38.4386 20.1588 39.0964 19.3022C39.2874 19.0475 39.4345 18.8846 39.5465 18.8846C39.6585 18.8846 39.7559 19.0609 39.7559 19.4308C39.5848 20.6084 39.1012 21.7187 38.3555 22.6461C37.3705 23.9711 36.0965 25.0541 34.6303 25.813C33.6081 26.3872 32.4586 26.6967 31.2863 26.7131C30.6249 26.6648 30.5282 26.4401 31.0266 26.0861Z" fill="#1B1818"/>
<path d="M76.877 84.1357C76.661 81.5143 76.1485 78.9258 75.3492 76.4198C72.7723 68.3864 67.6626 61.4037 60.7851 56.5174C56.9358 53.8277 52.6006 51.9113 48.0205 50.8748C47.7474 50.6017 47.4902 50.3127 47.2165 50.0549C46.9434 49.7659 46.6544 49.4763 46.4291 49.2516L45.9001 48.7041L45.3857 49.2185C43.5531 51.0352 41.8649 52.691 40.3861 54.1697C36.447 51.8392 33.345 50.0543 31.2551 48.897L31.1743 48.8486L31.1106 48.9123C28.2976 51.9188 28.0723 52.4974 31.0629 49.9893C31.1184 49.9374 31.1773 49.8891 31.2392 49.8448C33.3291 51.2918 36.3356 53.2823 39.9844 55.6485L40.5796 56.0342L41.1099 55.5358C42.574 54.1691 44.1807 52.6744 45.8524 51.1307C46.2063 51.5006 46.5437 51.8704 46.897 52.2562L47.1064 52.4815L47.3954 52.5452C58.3591 54.9565 67.5225 63.1549 72.4763 73.0581C74.1363 76.516 75.3621 80.166 76.1258 83.925C76.7165 87.5439 76.9737 87.9806 76.877 84.1357Z" fill="#1B1818"/>
<path d="M41.155 59.3629C42.248 60.5208 45.3666 62.8036 48.7105 64.9412L50.5432 66.115L50.125 64.057C49.934 63.125 49.7233 62.1766 49.5145 61.2599C48.389 56.5493 47.4087 54.3474 47.3119 56.3245C47.3527 58.3101 47.5571 60.2889 47.9231 62.2408C47.3603 61.8869 46.7976 61.5495 46.2508 61.2281C42.071 58.7524 39.8048 57.9166 41.155 59.3629Z" fill="#1B1818"/>
<path d="M33.2932 65.5524L34.1934 64.5396C34.483 64.2213 34.7561 63.8966 35.0451 63.5752C38.0835 60.1027 39.2248 58.093 37.6334 59.0899C36.3544 59.9927 35.16 61.0096 34.0648 62.1282C33.679 60.9226 33.2608 59.7169 32.8266 58.5431C31.2034 54.2188 29.9812 52.2576 30.1104 54.1386C30.2224 55.8574 31.3963 60.167 32.8107 64.1697L33.2932 65.5524Z" fill="#1B1818"/>
<path d="M39.6115 60.2795C39.5323 60.341 39.4711 60.4227 39.4343 60.516C39.3976 60.6093 39.3867 60.7108 39.4027 60.8098C39.4138 60.904 39.4531 60.9928 39.5154 61.0644C40.1424 62.9455 43.5824 77.446 43.0522 87.8004C43.0486 87.8649 43.0578 87.9294 43.0793 87.9903C43.1009 88.0512 43.1343 88.1071 43.1776 88.155C43.221 88.2028 43.2734 88.2416 43.3319 88.269C43.3903 88.2965 43.4536 88.312 43.5181 88.3148H43.5506C43.675 88.3127 43.794 88.2634 43.8835 88.1769C43.9729 88.0904 44.0262 87.9731 44.0325 87.8488C44.5634 77.5281 40.9133 60.6965 40.1424 60.263C40.0606 60.2177 39.9681 60.1953 39.8747 60.1983C39.7812 60.2012 39.6903 60.2292 39.6115 60.2795Z" fill="#1B1818"/>
<path d="M89.7588 87.2166L77.0273 88.1714C77.3456 89.6567 77.9822 93.3276 77.9822 96.1286C77.9822 98.9295 83.7113 101.115 86.5759 101.858L89.7588 87.2166Z" fill="#325BD3"/>
</svg>
