<svg width="25" height="25" viewBox="0 0 25 25" fill="none" xmlns="http://www.w3.org/2000/svg">
<path d="M12.5002 10.2099L2.76519 0.47519C2.13197 -0.158331 1.10814 -0.158331 0.474915 0.475189C-0.158306 1.10841 -0.158306 2.13224 0.474915 2.76547L10.2099 12.5005L0.474916 22.2352C-0.158305 22.8687 -0.158305 23.8922 0.474916 24.5255C1.10814 25.159 2.13197 25.159 2.76519 24.5255L12.5002 14.7908L22.2352 24.5255C22.8684 25.159 23.8922 25.159 24.5255 24.5255C24.8413 24.2099 25 23.795 25 23.3803C25 22.9657 24.8413 22.5511 24.5255 22.2352L14.7905 12.5005L24.5255 2.76547C24.8413 2.4496 25 2.03497 25 1.62033C25 1.2057 24.8413 0.791061 24.5255 0.475193C23.8922 -0.158327 22.8684 -0.158328 22.2352 0.475192L12.5002 10.2099Z" fill="white" fill-opacity="0.3"/>
</svg>
