<svg width="70" height="71" viewBox="0 0 70 71" fill="none" xmlns="http://www.w3.org/2000/svg">
<path d="M54.271 0.666504H15.729C7.05092 0.666504 0 7.72849 0 16.3955V54.9375C0 63.6156 7.06199 70.6665 15.729 70.6665H54.271C62.9491 70.6665 70 63.6045 70 54.9375V16.3955C70.0111 7.71742 62.9491 0.666504 54.271 0.666504ZM67.7973 54.9375C67.7973 62.3869 61.7315 68.4527 54.2821 68.4527H15.729C8.27957 68.4527 2.21379 62.3869 2.21379 54.9375V16.3955C2.21379 8.94607 8.27957 2.88029 15.729 2.88029H54.271C61.7204 2.88029 67.7862 8.94607 67.7862 16.3955V54.9375H67.7973Z" fill="#121111"/>
<path d="M51.2492 5.97949H18.7508C11.3457 5.97949 5.31311 12.0121 5.31311 19.4172V51.9156C5.31311 59.3318 11.3457 65.3533 18.7508 65.3533H51.2492C58.6654 65.3533 64.6869 59.3207 64.6869 51.9156V19.4172C64.6869 12.001 58.6654 5.97949 51.2492 5.97949ZM62.4731 51.9156C62.4731 58.1031 57.4368 63.1395 51.2492 63.1395H18.7508C12.5633 63.1395 7.5269 58.1031 7.5269 51.9156V19.4172C7.5269 13.2296 12.5633 8.19328 18.7508 8.19328H51.2492C57.4368 8.19328 62.4731 13.2296 62.4731 19.4172V51.9156Z" fill="#121111"/>
<path d="M35 16.7832C24.5841 16.7832 16.1164 25.2509 16.1164 35.6668C16.1164 46.0827 24.5841 54.5504 35 54.5504C45.4159 54.5504 53.8836 46.0827 53.8836 35.6668C53.8836 25.2509 45.4159 16.7832 35 16.7832ZM35 52.3366C25.8017 52.3366 18.3302 44.854 18.3302 35.6668C18.3302 26.4796 25.8017 18.997 35 18.997C44.1983 18.997 51.6698 26.4685 51.6698 35.6668C51.6698 44.8651 44.1983 52.3366 35 52.3366Z" fill="#121111"/>
<path d="M34.9999 23.1035C28.0708 23.1035 22.4367 28.7376 22.4367 35.6668C22.4367 42.5959 28.0708 48.23 34.9999 48.23C41.9291 48.23 47.5632 42.5959 47.5632 35.6668C47.5632 28.7376 41.9291 23.1035 34.9999 23.1035ZM34.9999 46.0162C29.2994 46.0162 24.6505 41.3783 24.6505 35.6668C24.6505 29.9552 29.2884 25.3173 34.9999 25.3173C40.7115 25.3173 45.3494 29.9552 45.3494 35.6668C45.3494 41.3783 40.7004 46.0162 34.9999 46.0162Z" fill="#121111"/>
<path d="M53.9388 12.1011C51.0609 12.1011 48.7142 14.4477 48.7142 17.3256C48.7142 20.2035 51.0609 22.5502 53.9388 22.5502C56.8167 22.5502 59.1633 20.2035 59.1633 17.3256C59.1522 14.4366 56.8167 12.1011 53.9388 12.1011ZM53.9388 20.3253C52.2784 20.3253 50.928 18.9749 50.928 17.3145C50.928 15.6542 52.2784 14.3038 53.9388 14.3038C55.5991 14.3038 56.9495 15.6542 56.9495 17.3145C56.9495 18.9749 55.588 20.3253 53.9388 20.3253Z" fill="#121111"/>
</svg>
