<svg width="385" height="379" viewBox="0 0 385 379" fill="none" xmlns="http://www.w3.org/2000/svg">
<circle cx="191.979" cy="189.94" r="187.44" stroke="#121111" stroke-width="3"/>
<circle cx="191.982" cy="189.938" r="131.721" stroke="#121111" stroke-width="3"/>
<path d="M87.8159 265.685L191.974 60.0368L296.131 265.685H87.8159Z" stroke="#121111" stroke-width="3"/>
<path d="M152.11 63.8112C151.253 55.5377 153.757 36.6606 170.635 27.3402C187.514 18.0198 192.419 5.89657 192.763 1" stroke="#121111" stroke-width="3"/>
<path d="M232.871 63.8112C233.71 55.5377 231.262 36.6606 214.763 27.3402C198.265 18.0198 193.47 5.89657 193.134 1" stroke="#121111" stroke-width="3"/>
<path d="M229.816 316.069C230.674 324.343 228.17 343.22 211.291 352.54C194.413 361.861 189.507 373.984 189.164 378.88" stroke="#121111" stroke-width="3"/>
<path d="M149.063 316.069C148.224 324.343 150.672 343.22 167.17 352.54C183.669 361.861 188.464 373.984 188.8 378.88" stroke="#121111" stroke-width="3"/>
<path d="M296.405 269.551C301.83 275.856 310.546 292.787 302.003 310.072C293.461 327.358 296.35 340.113 298.863 344.33" stroke="#121111" stroke-width="3"/>
<path d="M230.084 315.634C234.116 322.907 246.898 337.012 265.765 335.251C284.633 333.491 295.488 340.71 298.558 344.54" stroke="#121111" stroke-width="3"/>
<path d="M324.917 194.639C332.796 196.527 349.28 205.038 352.185 223.981C355.09 242.923 364.573 251.497 368.951 253.416" stroke="#121111" stroke-width="3"/>
<path d="M297.891 270.739C305.202 274.226 323.344 278.07 337.418 265.56C351.491 253.05 364.221 252.482 368.826 253.762" stroke="#121111" stroke-width="3"/>
<path d="M300.905 114.135C308.589 110.94 327.431 108.097 341.333 122.286C355.234 136.475 368.304 137.936 373.102 136.893" stroke="#121111" stroke-width="3"/>
<path d="M324.646 194.635C332.828 193.131 350.215 185.351 354.305 166.268C358.394 147.185 368.613 138.976 373.211 137.257" stroke="#121111" stroke-width="3"/>
<path d="M234.136 63.5938C238.294 56.5521 251.442 43.2175 270.772 46.2121C290.103 49.2067 301.253 42.6621 304.412 39.0156" stroke="#121111" stroke-width="3"/>
<path d="M300.428 113.045C305.978 107.042 315.061 90.6744 306.995 73.2305C298.93 55.7866 302.118 43.3015 304.72 39.2394" stroke="#121111" stroke-width="3"/>
<path d="M86.108 269.468C80.5465 276.02 72.9567 291.414 80.8466 308.63C88.7366 325.847 85.4757 338.845 82.859 343.191" stroke="#121111" stroke-width="3"/>
<path d="M149.393 315.609C145.177 323.096 134.436 334.131 115.85 332.95C97.2635 331.77 86.3071 339.42 83.1522 343.393" stroke="#121111" stroke-width="3"/>
<path d="M60.0383 193.626C51.9565 195.591 35.0004 204.254 31.8311 223.181C28.6617 242.109 18.869 250.761 14.3688 252.72" stroke="#121111" stroke-width="3"/>
<path d="M86.9067 269.263C79.3889 272.817 60.7857 276.841 46.5151 264.507C32.2445 252.174 19.2251 251.739 14.4992 253.064" stroke="#121111" stroke-width="3"/>
<path d="M84.0302 113.13C76.3465 109.935 57.5038 107.092 43.6022 121.281C29.7005 135.47 16.63 136.931 11.8325 135.888" stroke="#121111" stroke-width="3"/>
<path d="M60.2892 193.632C52.107 192.127 34.7201 184.347 30.6303 165.264C26.5404 146.181 16.3218 137.972 11.7237 136.253" stroke="#121111" stroke-width="3"/>
<path d="M150.82 62.5797C146.628 55.4918 133.402 42.0516 114.032 44.9941C94.6622 47.9367 83.4611 41.3244 80.2818 37.6504" stroke="#121111" stroke-width="3"/>
<path d="M84.5358 112.031C78.9516 105.981 69.7898 89.5085 77.8165 72.0122C85.8431 54.516 82.6049 41.9631 79.9825 37.8736" stroke="#121111" stroke-width="3"/>
</svg>
