<svg width="70" height="70" viewBox="0 0 70 70" fill="none" xmlns="http://www.w3.org/2000/svg">
<path d="M51.0614 20.8569C50.2677 20.2176 49.1984 20.2065 49 20.2065C47.5118 20.2286 45.7811 20.8018 35.6283 25.0239C32.2661 26.4239 25.4425 29.3561 15.3559 33.7546C13.2393 34.6034 12.2362 35.4632 12.1039 36.5546C11.8614 38.5278 13.8897 39.1672 15.863 39.7845L16.6126 40.027C18.1008 40.5121 20.8236 41.3278 22.3338 41.3609C23.6897 41.3609 25.1779 40.8538 26.7433 39.7845C32.1118 36.1577 35.5291 33.8758 37.6787 32.4538C35.959 34.0963 33.9527 35.9703 32.8944 36.9514C32.0346 37.7451 31.4283 38.3183 31.296 38.4506C31.0315 38.7262 30.7669 38.9798 30.5133 39.2333C29.3889 40.3136 28.3417 41.3278 28.463 42.7498C28.5842 44.1057 29.8189 45.0648 30.7338 45.6711C32.1448 46.5971 33.2692 47.3687 34.4047 48.1404C35.6504 48.9892 36.885 49.838 38.4944 50.8853C38.8913 51.1498 39.2661 51.4144 39.6299 51.679C41.0299 52.6711 42.4629 53.6963 44.2598 53.6963C44.4031 53.6963 44.5464 53.6853 44.7007 53.6742C45.8692 53.564 47.4015 52.7042 48.0629 49.2207C49.1763 43.279 51.4692 29.8302 52.0094 24.131C52.0755 23.4916 51.9874 22.764 51.9433 22.4664C51.8992 22.2128 51.7669 21.4302 51.0614 20.8569ZM49.8267 23.9105C49.2976 29.4664 46.9716 43.0806 45.9023 48.8018C45.5496 50.7089 44.9543 51.4254 44.5133 51.4695C43.3228 51.5798 42.2645 50.8302 40.9196 49.8711C40.5338 49.5955 40.1259 49.3089 39.707 49.0333C38.1086 47.9861 36.885 47.1483 35.6504 46.3105C34.5149 45.5388 33.3795 44.7672 31.9574 43.8302C30.7669 43.0475 30.6787 42.6286 30.6677 42.5404C30.6346 42.1766 31.4173 41.416 32.0456 40.8097C32.3212 40.5451 32.6078 40.2695 32.8944 39.9719C33.0157 39.8506 33.5889 39.3105 34.4047 38.5609C42.1874 31.3294 42.6173 30.69 42.7606 30.1058C42.8488 29.7199 42.8488 28.9373 42.2535 28.4191C41.9007 28.0995 41.4929 28.0223 41.1622 28.0223C40.8976 28.0223 40.6881 28.0774 40.5559 28.0995C40.2141 28.1766 39.8944 28.2538 25.5196 37.9546C24.3291 38.7703 23.2819 39.2002 22.4 39.1561C21.5181 39.1341 19.611 38.6821 17.3181 37.9325L16.5464 37.69C15.7417 37.4365 14.6724 37.1058 14.3527 36.8302C14.496 36.6758 14.9259 36.312 16.2157 35.805L16.2488 35.7939C26.3354 31.3955 33.148 28.4632 36.4992 27.0743C45.4393 23.3593 47.8976 22.4443 49.0661 22.4223C49.2755 22.3892 49.5842 22.4884 49.6944 22.5766C49.7275 22.6097 49.7606 22.6538 49.7937 22.8522C49.8047 23.0396 49.8598 23.5577 49.8267 23.9105Z" fill="#121111"/>
<path d="M35 0C15.6976 0 0 15.6976 0 35C0 54.3023 15.6976 70 35 70C54.3023 70 70 54.3023 70 35C70 15.6976 54.3023 0 35 0ZM35 67.7953C16.9213 67.7953 2.20472 53.0787 2.20472 35C2.20472 16.9213 16.9213 2.20472 35 2.20472C53.0787 2.20472 67.7953 16.9213 67.7953 35C67.7953 53.0787 53.0787 67.7953 35 67.7953Z" fill="#121111"/>
</svg>
