<svg width="70" height="71" viewBox="0 0 70 71" fill="none" xmlns="http://www.w3.org/2000/svg">
<path d="M52.6774 42.2637L44.606 38.3427C44.1691 38.1351 43.6339 38.2334 43.3062 38.6048C42.924 39.0308 42.356 39.6643 41.6461 40.407L41.3403 40.7237C39.7784 42.3402 39.3524 42.7771 38.9592 42.8426C38.6097 42.9081 38.2711 42.8535 37.2445 42.362C33.9023 40.7565 31.7179 38.6594 31.4885 38.43C30.0358 36.9883 28.758 35.3609 27.6985 33.5697C27.633 33.2748 27.6002 32.9471 27.6548 32.6085C27.8187 31.6365 28.5286 30.6207 29.6863 29.6705C30.0358 29.3865 30.1778 28.9059 30.0249 28.4691L26.8138 19.0869C26.6609 18.6501 26.2459 18.3442 25.7762 18.3442H22.0845C21.9098 18.3442 21.7459 18.3879 21.593 18.4644C21.5275 18.4971 14.7339 22.0141 16.6235 30.6644C16.6344 30.7299 16.6562 30.8064 16.689 30.8719C17.0057 31.6146 24.7495 48.9918 41.3512 52.8145C41.4495 52.8363 42.2686 52.9674 43.4373 52.9674C46.1023 52.9674 50.6132 52.2684 52.9286 47.8777C53.0051 47.7357 53.0488 47.5828 53.0488 47.4299L53.2782 43.3341C53.3109 42.8644 53.0706 42.4603 52.6774 42.2637ZM50.8971 47.0367C48.2431 51.7004 42.0065 50.6847 41.799 50.6519C26.934 47.2333 19.3758 31.4399 18.7533 30.0746C17.4645 23.9036 21.4074 21.1075 22.3903 20.5177H25.0117L27.7313 28.4691C26.4862 29.6377 25.7325 30.8938 25.5141 32.2263C25.383 33.0127 25.5032 33.7008 25.6233 34.2141C25.6451 34.3233 25.6888 34.4216 25.7434 34.509C26.923 36.5187 28.3429 38.3645 29.9703 39.9701C30.2324 40.2322 32.6572 42.5586 36.3161 44.3171C37.5175 44.896 38.3694 45.1799 39.3961 44.9724C40.4883 44.7649 41.0563 44.1751 42.9349 42.22L43.2407 41.9033C43.6885 41.4336 44.0817 41.0186 44.4094 40.6582L51.0937 43.902L50.8971 47.0367Z" fill="#121111"/>
<path d="M34.9946 5.56494C18.5786 5.56494 5.23178 18.9118 5.23178 35.3278C5.23178 41.4769 7.08854 47.3749 10.6164 52.3881L8.33367 60.9183C8.23537 61.2897 8.34459 61.6938 8.61764 61.9778C8.8907 62.2508 9.29482 62.3601 9.67709 62.2618L18.2947 59.9572C23.2424 63.3212 29.0093 65.1015 35.0055 65.1015C51.4215 65.1015 64.7684 51.7437 64.7684 35.3387C64.7574 18.9118 51.4106 5.56494 34.9946 5.56494ZM34.9946 62.9062C29.2714 62.9062 23.7885 61.1695 19.1138 57.8711C18.9281 57.74 18.7097 57.6745 18.4803 57.6745C18.382 57.6745 18.2947 57.6854 18.1964 57.7072L10.9113 59.6623L12.8445 52.4646C12.9319 52.1479 12.8664 51.8093 12.6698 51.5362C9.22928 46.796 7.41621 41.193 7.41621 35.3278C7.41621 20.1132 19.791 7.74937 34.9946 7.74937C50.1982 7.74937 62.573 20.1132 62.573 35.3278C62.573 50.5314 50.1982 62.9062 34.9946 62.9062Z" fill="#121111"/>
<path d="M34.9945 0.333496C15.6951 0.333496 0 16.0286 0 35.328C0 41.3134 1.54002 47.2113 4.46715 52.4212L0.0436886 68.9464C-0.0655328 69.3286 0.0436885 69.7328 0.316742 70.0058C0.524263 70.2133 0.808238 70.3226 1.09221 70.3226C1.19051 70.3226 1.27789 70.3116 1.37619 70.2898L17.9014 65.8663C23.1112 68.7935 29.0092 70.3335 34.9945 70.3335C54.2939 70.3335 69.9891 54.6384 69.9891 35.3389C69.9891 16.0395 54.2939 0.333496 34.9945 0.333496ZM34.9945 68.1381C29.2386 68.1381 23.57 66.6199 18.6004 63.7365C18.4366 63.6382 18.24 63.5945 18.0543 63.5945C17.956 63.5945 17.8686 63.6054 17.7703 63.6273L2.63224 67.6903L6.68435 52.5632C6.7608 52.2792 6.71711 51.9843 6.57513 51.7331C3.7026 46.7526 2.18443 41.084 2.18443 35.328C2.18443 17.241 16.8965 2.51792 34.9945 2.51792C53.0925 2.51792 67.8046 17.241 67.8046 35.328C67.8046 53.426 53.0925 68.1381 34.9945 68.1381Z" fill="#121111"/>
</svg>
